<?xml version="1.0" encoding="utf-8" standalone="no"?>
<!DOCTYPE svg PUBLIC "-//W3C//DTD SVG 1.1//EN"
  "http://www.w3.org/Graphics/SVG/1.1/DTD/svg11.dtd">
<!-- Created with matplotlib (https://matplotlib.org/) -->
<svg height="207.59625pt" version="1.1" viewBox="0 0 715.432751 207.59625" width="715.432751pt" xmlns="http://www.w3.org/2000/svg" xmlns:xlink="http://www.w3.org/1999/xlink">
 <defs>
  <style type="text/css">
*{stroke-linecap:butt;stroke-linejoin:round;}
  </style>
 </defs>
 <g id="figure_1">
  <g id="patch_1">
   <path d="M 0 207.59625 
L 715.432751 207.59625 
L 715.432751 0 
L 0 0 
z
" style="fill:none;"/>
  </g>
  <g id="axes_1">
   <g id="patch_2">
    <path d="M 36.465625 183.718125 
L 344.878373 183.718125 
L 344.878373 22.318125 
L 36.465625 22.318125 
z
" style="fill:#ffffff;"/>
   </g>
   <g id="patch_3">
    <path clip-path="url(#p638d150d6b)" d="M 50.484386 183.718125 
L 53.288139 183.718125 
L 53.288139 183.674244 
L 50.484386 183.674244 
z
" style="fill:#1f77b4;opacity:0.5;"/>
   </g>
   <g id="patch_4">
    <path clip-path="url(#p638d150d6b)" d="M 53.288139 183.718125 
L 56.091891 183.718125 
L 56.091891 183.718125 
L 53.288139 183.718125 
z
" style="fill:#1f77b4;opacity:0.5;"/>
   </g>
   <g id="patch_5">
    <path clip-path="url(#p638d150d6b)" d="M 56.091891 183.718125 
L 58.895643 183.718125 
L 58.895643 183.718125 
L 56.091891 183.718125 
z
" style="fill:#1f77b4;opacity:0.5;"/>
   </g>
   <g id="patch_6">
    <path clip-path="url(#p638d150d6b)" d="M 58.895643 183.718125 
L 61.699395 183.718125 
L 61.699395 183.542602 
L 58.895643 183.542602 
z
" style="fill:#1f77b4;opacity:0.5;"/>
   </g>
   <g id="patch_7">
    <path clip-path="url(#p638d150d6b)" d="M 61.699395 183.718125 
L 64.503148 183.718125 
L 64.503148 183.630363 
L 61.699395 183.630363 
z
" style="fill:#1f77b4;opacity:0.5;"/>
   </g>
   <g id="patch_8">
    <path clip-path="url(#p638d150d6b)" d="M 64.503148 183.718125 
L 67.3069 183.718125 
L 67.3069 183.674244 
L 64.503148 183.674244 
z
" style="fill:#1f77b4;opacity:0.5;"/>
   </g>
   <g id="patch_9">
    <path clip-path="url(#p638d150d6b)" d="M 67.3069 183.718125 
L 70.110652 183.718125 
L 70.110652 183.674244 
L 67.3069 183.674244 
z
" style="fill:#1f77b4;opacity:0.5;"/>
   </g>
   <g id="patch_10">
    <path clip-path="url(#p638d150d6b)" d="M 70.110652 183.718125 
L 72.914404 183.718125 
L 72.914404 183.542602 
L 70.110652 183.542602 
z
" style="fill:#1f77b4;opacity:0.5;"/>
   </g>
   <g id="patch_11">
    <path clip-path="url(#p638d150d6b)" d="M 72.914404 183.718125 
L 75.718157 183.718125 
L 75.718157 183.586483 
L 72.914404 183.586483 
z
" style="fill:#1f77b4;opacity:0.5;"/>
   </g>
   <g id="patch_12">
    <path clip-path="url(#p638d150d6b)" d="M 75.718157 183.718125 
L 78.521909 183.718125 
L 78.521909 183.498721 
L 75.718157 183.498721 
z
" style="fill:#1f77b4;opacity:0.5;"/>
   </g>
   <g id="patch_13">
    <path clip-path="url(#p638d150d6b)" d="M 78.521909 183.718125 
L 81.325661 183.718125 
L 81.325661 183.45484 
L 78.521909 183.45484 
z
" style="fill:#1f77b4;opacity:0.5;"/>
   </g>
   <g id="patch_14">
    <path clip-path="url(#p638d150d6b)" d="M 81.325661 183.718125 
L 84.129413 183.718125 
L 84.129413 183.45484 
L 81.325661 183.45484 
z
" style="fill:#1f77b4;opacity:0.5;"/>
   </g>
   <g id="patch_15">
    <path clip-path="url(#p638d150d6b)" d="M 84.129413 183.718125 
L 86.933166 183.718125 
L 86.933166 183.279317 
L 84.129413 183.279317 
z
" style="fill:#1f77b4;opacity:0.5;"/>
   </g>
   <g id="patch_16">
    <path clip-path="url(#p638d150d6b)" d="M 86.933166 183.718125 
L 89.736918 183.718125 
L 89.736918 183.279317 
L 86.933166 183.279317 
z
" style="fill:#1f77b4;opacity:0.5;"/>
   </g>
   <g id="patch_17">
    <path clip-path="url(#p638d150d6b)" d="M 89.736918 183.718125 
L 92.54067 183.718125 
L 92.54067 182.796629 
L 89.736918 182.796629 
z
" style="fill:#1f77b4;opacity:0.5;"/>
   </g>
   <g id="patch_18">
    <path clip-path="url(#p638d150d6b)" d="M 92.54067 183.718125 
L 95.344422 183.718125 
L 95.344422 182.884391 
L 92.54067 182.884391 
z
" style="fill:#1f77b4;opacity:0.5;"/>
   </g>
   <g id="patch_19">
    <path clip-path="url(#p638d150d6b)" d="M 95.344422 183.718125 
L 98.148175 183.718125 
L 98.148175 181.787372 
L 95.344422 181.787372 
z
" style="fill:#1f77b4;opacity:0.5;"/>
   </g>
   <g id="patch_20">
    <path clip-path="url(#p638d150d6b)" d="M 98.148175 183.718125 
L 100.951927 183.718125 
L 100.951927 180.997518 
L 98.148175 180.997518 
z
" style="fill:#1f77b4;opacity:0.5;"/>
   </g>
   <g id="patch_21">
    <path clip-path="url(#p638d150d6b)" d="M 100.951927 183.718125 
L 103.755679 183.718125 
L 103.755679 180.865876 
L 100.951927 180.865876 
z
" style="fill:#1f77b4;opacity:0.5;"/>
   </g>
   <g id="patch_22">
    <path clip-path="url(#p638d150d6b)" d="M 103.755679 183.718125 
L 106.559431 183.718125 
L 106.559431 180.207665 
L 103.755679 180.207665 
z
" style="fill:#1f77b4;opacity:0.5;"/>
   </g>
   <g id="patch_23">
    <path clip-path="url(#p638d150d6b)" d="M 106.559431 183.718125 
L 109.363184 183.718125 
L 109.363184 179.286169 
L 106.559431 179.286169 
z
" style="fill:#1f77b4;opacity:0.5;"/>
   </g>
   <g id="patch_24">
    <path clip-path="url(#p638d150d6b)" d="M 109.363184 183.718125 
L 112.166936 183.718125 
L 112.166936 177.838104 
L 109.363184 177.838104 
z
" style="fill:#1f77b4;opacity:0.5;"/>
   </g>
   <g id="patch_25">
    <path clip-path="url(#p638d150d6b)" d="M 112.166936 183.718125 
L 114.970688 183.718125 
L 114.970688 177.179892 
L 112.166936 177.179892 
z
" style="fill:#1f77b4;opacity:0.5;"/>
   </g>
   <g id="patch_26">
    <path clip-path="url(#p638d150d6b)" d="M 114.970688 183.718125 
L 117.77444 183.718125 
L 117.77444 175.731828 
L 114.970688 175.731828 
z
" style="fill:#1f77b4;opacity:0.5;"/>
   </g>
   <g id="patch_27">
    <path clip-path="url(#p638d150d6b)" d="M 117.77444 183.718125 
L 120.578193 183.718125 
L 120.578193 173.581671 
L 117.77444 173.581671 
z
" style="fill:#1f77b4;opacity:0.5;"/>
   </g>
   <g id="patch_28">
    <path clip-path="url(#p638d150d6b)" d="M 120.578193 183.718125 
L 123.381945 183.718125 
L 123.381945 172.923459 
L 120.578193 172.923459 
z
" style="fill:#1f77b4;opacity:0.5;"/>
   </g>
   <g id="patch_29">
    <path clip-path="url(#p638d150d6b)" d="M 123.381945 183.718125 
L 126.185697 183.718125 
L 126.185697 167.74553 
L 123.381945 167.74553 
z
" style="fill:#1f77b4;opacity:0.5;"/>
   </g>
   <g id="patch_30">
    <path clip-path="url(#p638d150d6b)" d="M 126.185697 183.718125 
L 128.989449 183.718125 
L 128.989449 166.60463 
L 126.185697 166.60463 
z
" style="fill:#1f77b4;opacity:0.5;"/>
   </g>
   <g id="patch_31">
    <path clip-path="url(#p638d150d6b)" d="M 128.989449 183.718125 
L 131.793202 183.718125 
L 131.793202 161.689986 
L 128.989449 161.689986 
z
" style="fill:#1f77b4;opacity:0.5;"/>
   </g>
   <g id="patch_32">
    <path clip-path="url(#p638d150d6b)" d="M 131.793202 183.718125 
L 134.596954 183.718125 
L 134.596954 160.549086 
L 131.793202 160.549086 
z
" style="fill:#1f77b4;opacity:0.5;"/>
   </g>
   <g id="patch_33">
    <path clip-path="url(#p638d150d6b)" d="M 134.596954 183.718125 
L 137.400706 183.718125 
L 137.400706 154.274138 
L 134.596954 154.274138 
z
" style="fill:#1f77b4;opacity:0.5;"/>
   </g>
   <g id="patch_34">
    <path clip-path="url(#p638d150d6b)" d="M 137.400706 183.718125 
L 140.204458 183.718125 
L 140.204458 147.165456 
L 137.400706 147.165456 
z
" style="fill:#1f77b4;opacity:0.5;"/>
   </g>
   <g id="patch_35">
    <path clip-path="url(#p638d150d6b)" d="M 140.204458 183.718125 
L 143.008211 183.718125 
L 143.008211 144.708134 
L 140.204458 144.708134 
z
" style="fill:#1f77b4;opacity:0.5;"/>
   </g>
   <g id="patch_36">
    <path clip-path="url(#p638d150d6b)" d="M 143.008211 183.718125 
L 145.811963 183.718125 
L 145.811963 138.564828 
L 143.008211 138.564828 
z
" style="fill:#1f77b4;opacity:0.5;"/>
   </g>
   <g id="patch_37">
    <path clip-path="url(#p638d150d6b)" d="M 145.811963 183.718125 
L 148.615715 183.718125 
L 148.615715 132.158238 
L 145.811963 132.158238 
z
" style="fill:#1f77b4;opacity:0.5;"/>
   </g>
   <g id="patch_38">
    <path clip-path="url(#p638d150d6b)" d="M 148.615715 183.718125 
L 151.419467 183.718125 
L 151.419467 121.84626 
L 148.615715 121.84626 
z
" style="fill:#1f77b4;opacity:0.5;"/>
   </g>
   <g id="patch_39">
    <path clip-path="url(#p638d150d6b)" d="M 151.419467 183.718125 
L 154.22322 183.718125 
L 154.22322 117.063258 
L 151.419467 117.063258 
z
" style="fill:#1f77b4;opacity:0.5;"/>
   </g>
   <g id="patch_40">
    <path clip-path="url(#p638d150d6b)" d="M 154.22322 183.718125 
L 157.026972 183.718125 
L 157.026972 111.97309 
L 154.22322 111.97309 
z
" style="fill:#1f77b4;opacity:0.5;"/>
   </g>
   <g id="patch_41">
    <path clip-path="url(#p638d150d6b)" d="M 157.026972 183.718125 
L 159.830724 183.718125 
L 159.830724 102.845893 
L 157.026972 102.845893 
z
" style="fill:#1f77b4;opacity:0.5;"/>
   </g>
   <g id="patch_42">
    <path clip-path="url(#p638d150d6b)" d="M 159.830724 183.718125 
L 162.634477 183.718125 
L 162.634477 94.596311 
L 159.830724 94.596311 
z
" style="fill:#1f77b4;opacity:0.5;"/>
   </g>
   <g id="patch_43">
    <path clip-path="url(#p638d150d6b)" d="M 162.634477 183.718125 
L 165.438229 183.718125 
L 165.438229 89.33062 
L 162.634477 89.33062 
z
" style="fill:#1f77b4;opacity:0.5;"/>
   </g>
   <g id="patch_44">
    <path clip-path="url(#p638d150d6b)" d="M 165.438229 183.718125 
L 168.241981 183.718125 
L 168.241981 77.219532 
L 165.438229 77.219532 
z
" style="fill:#1f77b4;opacity:0.5;"/>
   </g>
   <g id="patch_45">
    <path clip-path="url(#p638d150d6b)" d="M 168.241981 183.718125 
L 171.045733 183.718125 
L 171.045733 70.11085 
L 168.241981 70.11085 
z
" style="fill:#1f77b4;opacity:0.5;"/>
   </g>
   <g id="patch_46">
    <path clip-path="url(#p638d150d6b)" d="M 171.045733 183.718125 
L 173.849486 183.718125 
L 173.849486 68.443381 
L 171.045733 68.443381 
z
" style="fill:#1f77b4;opacity:0.5;"/>
   </g>
   <g id="patch_47">
    <path clip-path="url(#p638d150d6b)" d="M 173.849486 183.718125 
L 176.653238 183.718125 
L 176.653238 54.796466 
L 173.849486 54.796466 
z
" style="fill:#1f77b4;opacity:0.5;"/>
   </g>
   <g id="patch_48">
    <path clip-path="url(#p638d150d6b)" d="M 176.653238 183.718125 
L 179.45699 183.718125 
L 179.45699 50.891079 
L 176.653238 50.891079 
z
" style="fill:#1f77b4;opacity:0.5;"/>
   </g>
   <g id="patch_49">
    <path clip-path="url(#p638d150d6b)" d="M 179.45699 183.718125 
L 182.260742 183.718125 
L 182.260742 44.879415 
L 179.45699 44.879415 
z
" style="fill:#1f77b4;opacity:0.5;"/>
   </g>
   <g id="patch_50">
    <path clip-path="url(#p638d150d6b)" d="M 182.260742 183.718125 
L 185.064495 183.718125 
L 185.064495 39.438202 
L 182.260742 39.438202 
z
" style="fill:#1f77b4;opacity:0.5;"/>
   </g>
   <g id="patch_51">
    <path clip-path="url(#p638d150d6b)" d="M 185.064495 183.718125 
L 187.868247 183.718125 
L 187.868247 35.137888 
L 185.064495 35.137888 
z
" style="fill:#1f77b4;opacity:0.5;"/>
   </g>
   <g id="patch_52">
    <path clip-path="url(#p638d150d6b)" d="M 187.868247 183.718125 
L 190.671999 183.718125 
L 190.671999 30.003839 
L 187.868247 30.003839 
z
" style="fill:#1f77b4;opacity:0.5;"/>
   </g>
   <g id="patch_53">
    <path clip-path="url(#p638d150d6b)" d="M 190.671999 183.718125 
L 193.475751 183.718125 
L 193.475751 33.909227 
L 190.671999 33.909227 
z
" style="fill:#1f77b4;opacity:0.5;"/>
   </g>
   <g id="patch_54">
    <path clip-path="url(#p638d150d6b)" d="M 193.475751 183.718125 
L 196.279504 183.718125 
L 196.279504 35.26953 
L 193.475751 35.26953 
z
" style="fill:#1f77b4;opacity:0.5;"/>
   </g>
   <g id="patch_55">
    <path clip-path="url(#p638d150d6b)" d="M 196.279504 183.718125 
L 199.083256 183.718125 
L 199.083256 35.401172 
L 196.279504 35.401172 
z
" style="fill:#1f77b4;opacity:0.5;"/>
   </g>
   <g id="patch_56">
    <path clip-path="url(#p638d150d6b)" d="M 199.083256 183.718125 
L 201.887008 183.718125 
L 201.887008 36.234907 
L 199.083256 36.234907 
z
" style="fill:#1f77b4;opacity:0.5;"/>
   </g>
   <g id="patch_57">
    <path clip-path="url(#p638d150d6b)" d="M 201.887008 183.718125 
L 204.69076 183.718125 
L 204.69076 38.121779 
L 201.887008 38.121779 
z
" style="fill:#1f77b4;opacity:0.5;"/>
   </g>
   <g id="patch_58">
    <path clip-path="url(#p638d150d6b)" d="M 204.69076 183.718125 
L 207.494513 183.718125 
L 207.494513 40.140294 
L 204.69076 40.140294 
z
" style="fill:#1f77b4;opacity:0.5;"/>
   </g>
   <g id="patch_59">
    <path clip-path="url(#p638d150d6b)" d="M 207.494513 183.718125 
L 210.298265 183.718125 
L 210.298265 47.687784 
L 207.494513 47.687784 
z
" style="fill:#1f77b4;opacity:0.5;"/>
   </g>
   <g id="patch_60">
    <path clip-path="url(#p638d150d6b)" d="M 210.298265 183.718125 
L 213.102017 183.718125 
L 213.102017 50.36451 
L 210.298265 50.36451 
z
" style="fill:#1f77b4;opacity:0.5;"/>
   </g>
   <g id="patch_61">
    <path clip-path="url(#p638d150d6b)" d="M 213.102017 183.718125 
L 215.905769 183.718125 
L 215.905769 59.140661 
L 213.102017 59.140661 
z
" style="fill:#1f77b4;opacity:0.5;"/>
   </g>
   <g id="patch_62">
    <path clip-path="url(#p638d150d6b)" d="M 215.905769 183.718125 
L 218.709522 183.718125 
L 218.709522 67.521885 
L 215.905769 67.521885 
z
" style="fill:#1f77b4;opacity:0.5;"/>
   </g>
   <g id="patch_63">
    <path clip-path="url(#p638d150d6b)" d="M 218.709522 183.718125 
L 221.513274 183.718125 
L 221.513274 71.339511 
L 218.709522 71.339511 
z
" style="fill:#1f77b4;opacity:0.5;"/>
   </g>
   <g id="patch_64">
    <path clip-path="url(#p638d150d6b)" d="M 221.513274 183.718125 
L 224.317026 183.718125 
L 224.317026 80.291185 
L 221.513274 80.291185 
z
" style="fill:#1f77b4;opacity:0.5;"/>
   </g>
   <g id="patch_65">
    <path clip-path="url(#p638d150d6b)" d="M 224.317026 183.718125 
L 227.120778 183.718125 
L 227.120778 88.496886 
L 224.317026 88.496886 
z
" style="fill:#1f77b4;opacity:0.5;"/>
   </g>
   <g id="patch_66">
    <path clip-path="url(#p638d150d6b)" d="M 227.120778 183.718125 
L 229.924531 183.718125 
L 229.924531 96.921991 
L 227.120778 96.921991 
z
" style="fill:#1f77b4;opacity:0.5;"/>
   </g>
   <g id="patch_67">
    <path clip-path="url(#p638d150d6b)" d="M 229.924531 183.718125 
L 232.728283 183.718125 
L 232.728283 105.127692 
L 229.924531 105.127692 
z
" style="fill:#1f77b4;opacity:0.5;"/>
   </g>
   <g id="patch_68">
    <path clip-path="url(#p638d150d6b)" d="M 232.728283 183.718125 
L 235.532035 183.718125 
L 235.532035 112.324136 
L 232.728283 112.324136 
z
" style="fill:#1f77b4;opacity:0.5;"/>
   </g>
   <g id="patch_69">
    <path clip-path="url(#p638d150d6b)" d="M 235.532035 183.718125 
L 238.335787 183.718125 
L 238.335787 122.065664 
L 235.532035 122.065664 
z
" style="fill:#1f77b4;opacity:0.5;"/>
   </g>
   <g id="patch_70">
    <path clip-path="url(#p638d150d6b)" d="M 238.335787 183.718125 
L 241.13954 183.718125 
L 241.13954 126.190455 
L 238.335787 126.190455 
z
" style="fill:#1f77b4;opacity:0.5;"/>
   </g>
   <g id="patch_71">
    <path clip-path="url(#p638d150d6b)" d="M 241.13954 183.718125 
L 243.943292 183.718125 
L 243.943292 132.421522 
L 241.13954 132.421522 
z
" style="fill:#1f77b4;opacity:0.5;"/>
   </g>
   <g id="patch_72">
    <path clip-path="url(#p638d150d6b)" d="M 243.943292 183.718125 
L 246.747044 183.718125 
L 246.747044 137.862736 
L 243.943292 137.862736 
z
" style="fill:#1f77b4;opacity:0.5;"/>
   </g>
   <g id="patch_73">
    <path clip-path="url(#p638d150d6b)" d="M 246.747044 183.718125 
L 249.550796 183.718125 
L 249.550796 143.040665 
L 246.747044 143.040665 
z
" style="fill:#1f77b4;opacity:0.5;"/>
   </g>
   <g id="patch_74">
    <path clip-path="url(#p638d150d6b)" d="M 249.550796 183.718125 
L 252.354549 183.718125 
L 252.354549 149.447255 
L 249.550796 149.447255 
z
" style="fill:#1f77b4;opacity:0.5;"/>
   </g>
   <g id="patch_75">
    <path clip-path="url(#p638d150d6b)" d="M 252.354549 183.718125 
L 255.158301 183.718125 
L 255.158301 154.449661 
L 252.354549 154.449661 
z
" style="fill:#1f77b4;opacity:0.5;"/>
   </g>
   <g id="patch_76">
    <path clip-path="url(#p638d150d6b)" d="M 255.158301 183.718125 
L 257.962053 183.718125 
L 257.962053 159.408187 
L 255.158301 159.408187 
z
" style="fill:#1f77b4;opacity:0.5;"/>
   </g>
   <g id="patch_77">
    <path clip-path="url(#p638d150d6b)" d="M 257.962053 183.718125 
L 260.765805 183.718125 
L 260.765805 161.119536 
L 257.962053 161.119536 
z
" style="fill:#1f77b4;opacity:0.5;"/>
   </g>
   <g id="patch_78">
    <path clip-path="url(#p638d150d6b)" d="M 260.765805 183.718125 
L 263.569558 183.718125 
L 263.569558 165.288208 
L 260.765805 165.288208 
z
" style="fill:#1f77b4;opacity:0.5;"/>
   </g>
   <g id="patch_79">
    <path clip-path="url(#p638d150d6b)" d="M 263.569558 183.718125 
L 266.37331 183.718125 
L 266.37331 170.422256 
L 263.569558 170.422256 
z
" style="fill:#1f77b4;opacity:0.5;"/>
   </g>
   <g id="patch_80">
    <path clip-path="url(#p638d150d6b)" d="M 266.37331 183.718125 
L 269.177062 183.718125 
L 269.177062 171.563156 
L 266.37331 171.563156 
z
" style="fill:#1f77b4;opacity:0.5;"/>
   </g>
   <g id="patch_81">
    <path clip-path="url(#p638d150d6b)" d="M 269.177062 183.718125 
L 271.980814 183.718125 
L 271.980814 175.29302 
L 269.177062 175.29302 
z
" style="fill:#1f77b4;opacity:0.5;"/>
   </g>
   <g id="patch_82">
    <path clip-path="url(#p638d150d6b)" d="M 271.980814 183.718125 
L 274.784567 183.718125 
L 274.784567 175.073616 
L 271.980814 175.073616 
z
" style="fill:#1f77b4;opacity:0.5;"/>
   </g>
   <g id="patch_83">
    <path clip-path="url(#p638d150d6b)" d="M 274.784567 183.718125 
L 277.588319 183.718125 
L 277.588319 176.653323 
L 274.784567 176.653323 
z
" style="fill:#1f77b4;opacity:0.5;"/>
   </g>
   <g id="patch_84">
    <path clip-path="url(#p638d150d6b)" d="M 277.588319 183.718125 
L 280.392071 183.718125 
L 280.392071 178.496315 
L 277.588319 178.496315 
z
" style="fill:#1f77b4;opacity:0.5;"/>
   </g>
   <g id="patch_85">
    <path clip-path="url(#p638d150d6b)" d="M 280.392071 183.718125 
L 283.195824 183.718125 
L 283.195824 178.979003 
L 280.392071 178.979003 
z
" style="fill:#1f77b4;opacity:0.5;"/>
   </g>
   <g id="patch_86">
    <path clip-path="url(#p638d150d6b)" d="M 283.195824 183.718125 
L 285.999576 183.718125 
L 285.999576 180.865876 
L 283.195824 180.865876 
z
" style="fill:#1f77b4;opacity:0.5;"/>
   </g>
   <g id="patch_87">
    <path clip-path="url(#p638d150d6b)" d="M 285.999576 183.718125 
L 288.803328 183.718125 
L 288.803328 181.12916 
L 285.999576 181.12916 
z
" style="fill:#1f77b4;opacity:0.5;"/>
   </g>
   <g id="patch_88">
    <path clip-path="url(#p638d150d6b)" d="M 288.803328 183.718125 
L 291.60708 183.718125 
L 291.60708 181.831253 
L 288.803328 181.831253 
z
" style="fill:#1f77b4;opacity:0.5;"/>
   </g>
   <g id="patch_89">
    <path clip-path="url(#p638d150d6b)" d="M 291.60708 183.718125 
L 294.410833 183.718125 
L 294.410833 182.489464 
L 291.60708 182.489464 
z
" style="fill:#1f77b4;opacity:0.5;"/>
   </g>
   <g id="patch_90">
    <path clip-path="url(#p638d150d6b)" d="M 294.410833 183.718125 
L 297.214585 183.718125 
L 297.214585 182.445583 
L 294.410833 182.445583 
z
" style="fill:#1f77b4;opacity:0.5;"/>
   </g>
   <g id="patch_91">
    <path clip-path="url(#p638d150d6b)" d="M 297.214585 183.718125 
L 300.018337 183.718125 
L 300.018337 182.489464 
L 297.214585 182.489464 
z
" style="fill:#1f77b4;opacity:0.5;"/>
   </g>
   <g id="patch_92">
    <path clip-path="url(#p638d150d6b)" d="M 300.018337 183.718125 
L 302.822089 183.718125 
L 302.822089 182.84051 
L 300.018337 182.84051 
z
" style="fill:#1f77b4;opacity:0.5;"/>
   </g>
   <g id="patch_93">
    <path clip-path="url(#p638d150d6b)" d="M 302.822089 183.718125 
L 305.625842 183.718125 
L 305.625842 183.147675 
L 302.822089 183.147675 
z
" style="fill:#1f77b4;opacity:0.5;"/>
   </g>
   <g id="patch_94">
    <path clip-path="url(#p638d150d6b)" d="M 305.625842 183.718125 
L 308.429594 183.718125 
L 308.429594 183.41096 
L 305.625842 183.41096 
z
" style="fill:#1f77b4;opacity:0.5;"/>
   </g>
   <g id="patch_95">
    <path clip-path="url(#p638d150d6b)" d="M 308.429594 183.718125 
L 311.233346 183.718125 
L 311.233346 183.586483 
L 308.429594 183.586483 
z
" style="fill:#1f77b4;opacity:0.5;"/>
   </g>
   <g id="patch_96">
    <path clip-path="url(#p638d150d6b)" d="M 311.233346 183.718125 
L 314.037098 183.718125 
L 314.037098 183.586483 
L 311.233346 183.586483 
z
" style="fill:#1f77b4;opacity:0.5;"/>
   </g>
   <g id="patch_97">
    <path clip-path="url(#p638d150d6b)" d="M 314.037098 183.718125 
L 316.840851 183.718125 
L 316.840851 183.586483 
L 314.037098 183.586483 
z
" style="fill:#1f77b4;opacity:0.5;"/>
   </g>
   <g id="patch_98">
    <path clip-path="url(#p638d150d6b)" d="M 316.840851 183.718125 
L 319.644603 183.718125 
L 319.644603 183.718125 
L 316.840851 183.718125 
z
" style="fill:#1f77b4;opacity:0.5;"/>
   </g>
   <g id="patch_99">
    <path clip-path="url(#p638d150d6b)" d="M 319.644603 183.718125 
L 322.448355 183.718125 
L 322.448355 183.630363 
L 319.644603 183.630363 
z
" style="fill:#1f77b4;opacity:0.5;"/>
   </g>
   <g id="patch_100">
    <path clip-path="url(#p638d150d6b)" d="M 322.448355 183.718125 
L 325.252107 183.718125 
L 325.252107 183.674244 
L 322.448355 183.674244 
z
" style="fill:#1f77b4;opacity:0.5;"/>
   </g>
   <g id="patch_101">
    <path clip-path="url(#p638d150d6b)" d="M 325.252107 183.718125 
L 328.05586 183.718125 
L 328.05586 183.718125 
L 325.252107 183.718125 
z
" style="fill:#1f77b4;opacity:0.5;"/>
   </g>
   <g id="patch_102">
    <path clip-path="url(#p638d150d6b)" d="M 328.05586 183.718125 
L 330.859612 183.718125 
L 330.859612 183.674244 
L 328.05586 183.674244 
z
" style="fill:#1f77b4;opacity:0.5;"/>
   </g>
   <g id="matplotlib.axis_1">
    <g id="xtick_1">
     <g id="line2d_1">
      <defs>
       <path d="M 0 0 
L 0 3.5 
" id="m72f0d32813" style="stroke:#000000;stroke-width:0.8;"/>
      </defs>
      <g>
       <use style="stroke:#000000;stroke-width:0.8;" x="60.317305" xlink:href="#m72f0d32813" y="183.718125"/>
      </g>
     </g>
     <g id="text_1">
      <!-- 5.0 -->
      <defs>
       <path d="M 10.796875 72.90625 
L 49.515625 72.90625 
L 49.515625 64.59375 
L 19.828125 64.59375 
L 19.828125 46.734375 
Q 21.96875 47.46875 24.109375 47.828125 
Q 26.265625 48.1875 28.421875 48.1875 
Q 40.625 48.1875 47.75 41.5 
Q 54.890625 34.8125 54.890625 23.390625 
Q 54.890625 11.625 47.5625 5.09375 
Q 40.234375 -1.421875 26.90625 -1.421875 
Q 22.3125 -1.421875 17.546875 -0.640625 
Q 12.796875 0.140625 7.71875 1.703125 
L 7.71875 11.625 
Q 12.109375 9.234375 16.796875 8.0625 
Q 21.484375 6.890625 26.703125 6.890625 
Q 35.15625 6.890625 40.078125 11.328125 
Q 45.015625 15.765625 45.015625 23.390625 
Q 45.015625 31 40.078125 35.4375 
Q 35.15625 39.890625 26.703125 39.890625 
Q 22.75 39.890625 18.8125 39.015625 
Q 14.890625 38.140625 10.796875 36.28125 
z
" id="DejaVuSans-53"/>
       <path d="M 10.6875 12.40625 
L 21 12.40625 
L 21 0 
L 10.6875 0 
z
" id="DejaVuSans-46"/>
       <path d="M 31.78125 66.40625 
Q 24.171875 66.40625 20.328125 58.90625 
Q 16.5 51.421875 16.5 36.375 
Q 16.5 21.390625 20.328125 13.890625 
Q 24.171875 6.390625 31.78125 6.390625 
Q 39.453125 6.390625 43.28125 13.890625 
Q 47.125 21.390625 47.125 36.375 
Q 47.125 51.421875 43.28125 58.90625 
Q 39.453125 66.40625 31.78125 66.40625 
z
M 31.78125 74.21875 
Q 44.046875 74.21875 50.515625 64.515625 
Q 56.984375 54.828125 56.984375 36.375 
Q 56.984375 17.96875 50.515625 8.265625 
Q 44.046875 -1.421875 31.78125 -1.421875 
Q 19.53125 -1.421875 13.0625 8.265625 
Q 6.59375 17.96875 6.59375 36.375 
Q 6.59375 54.828125 13.0625 64.515625 
Q 19.53125 74.21875 31.78125 74.21875 
z
" id="DejaVuSans-48"/>
      </defs>
      <g transform="translate(52.365742 198.316562)scale(0.1 -0.1)">
       <use xlink:href="#DejaVuSans-53"/>
       <use x="63.623047" xlink:href="#DejaVuSans-46"/>
       <use x="95.410156" xlink:href="#DejaVuSans-48"/>
      </g>
     </g>
    </g>
    <g id="xtick_2">
     <g id="line2d_2">
      <g>
       <use style="stroke:#000000;stroke-width:0.8;" x="100.886288" xlink:href="#m72f0d32813" y="183.718125"/>
      </g>
     </g>
     <g id="text_2">
      <!-- 7.5 -->
      <defs>
       <path d="M 8.203125 72.90625 
L 55.078125 72.90625 
L 55.078125 68.703125 
L 28.609375 0 
L 18.3125 0 
L 43.21875 64.59375 
L 8.203125 64.59375 
z
" id="DejaVuSans-55"/>
      </defs>
      <g transform="translate(92.934725 198.316562)scale(0.1 -0.1)">
       <use xlink:href="#DejaVuSans-55"/>
       <use x="63.623047" xlink:href="#DejaVuSans-46"/>
       <use x="95.410156" xlink:href="#DejaVuSans-53"/>
      </g>
     </g>
    </g>
    <g id="xtick_3">
     <g id="line2d_3">
      <g>
       <use style="stroke:#000000;stroke-width:0.8;" x="141.455271" xlink:href="#m72f0d32813" y="183.718125"/>
      </g>
     </g>
     <g id="text_3">
      <!-- 10.0 -->
      <defs>
       <path d="M 12.40625 8.296875 
L 28.515625 8.296875 
L 28.515625 63.921875 
L 10.984375 60.40625 
L 10.984375 69.390625 
L 28.421875 72.90625 
L 38.28125 72.90625 
L 38.28125 8.296875 
L 54.390625 8.296875 
L 54.390625 0 
L 12.40625 0 
z
" id="DejaVuSans-49"/>
      </defs>
      <g transform="translate(130.322458 198.316562)scale(0.1 -0.1)">
       <use xlink:href="#DejaVuSans-49"/>
       <use x="63.623047" xlink:href="#DejaVuSans-48"/>
       <use x="127.246094" xlink:href="#DejaVuSans-46"/>
       <use x="159.033203" xlink:href="#DejaVuSans-48"/>
      </g>
     </g>
    </g>
    <g id="xtick_4">
     <g id="line2d_4">
      <g>
       <use style="stroke:#000000;stroke-width:0.8;" x="182.024254" xlink:href="#m72f0d32813" y="183.718125"/>
      </g>
     </g>
     <g id="text_4">
      <!-- 12.5 -->
      <defs>
       <path d="M 19.1875 8.296875 
L 53.609375 8.296875 
L 53.609375 0 
L 7.328125 0 
L 7.328125 8.296875 
Q 12.9375 14.109375 22.625 23.890625 
Q 32.328125 33.6875 34.8125 36.53125 
Q 39.546875 41.84375 41.421875 45.53125 
Q 43.3125 49.21875 43.3125 52.78125 
Q 43.3125 58.59375 39.234375 62.25 
Q 35.15625 65.921875 28.609375 65.921875 
Q 23.96875 65.921875 18.8125 64.3125 
Q 13.671875 62.703125 7.8125 59.421875 
L 7.8125 69.390625 
Q 13.765625 71.78125 18.9375 73 
Q 24.125 74.21875 28.421875 74.21875 
Q 39.75 74.21875 46.484375 68.546875 
Q 53.21875 62.890625 53.21875 53.421875 
Q 53.21875 48.921875 51.53125 44.890625 
Q 49.859375 40.875 45.40625 35.40625 
Q 44.1875 33.984375 37.640625 27.21875 
Q 31.109375 20.453125 19.1875 8.296875 
z
" id="DejaVuSans-50"/>
      </defs>
      <g transform="translate(170.891442 198.316562)scale(0.1 -0.1)">
       <use xlink:href="#DejaVuSans-49"/>
       <use x="63.623047" xlink:href="#DejaVuSans-50"/>
       <use x="127.246094" xlink:href="#DejaVuSans-46"/>
       <use x="159.033203" xlink:href="#DejaVuSans-53"/>
      </g>
     </g>
    </g>
    <g id="xtick_5">
     <g id="line2d_5">
      <g>
       <use style="stroke:#000000;stroke-width:0.8;" x="222.593237" xlink:href="#m72f0d32813" y="183.718125"/>
      </g>
     </g>
     <g id="text_5">
      <!-- 15.0 -->
      <g transform="translate(211.460425 198.316562)scale(0.1 -0.1)">
       <use xlink:href="#DejaVuSans-49"/>
       <use x="63.623047" xlink:href="#DejaVuSans-53"/>
       <use x="127.246094" xlink:href="#DejaVuSans-46"/>
       <use x="159.033203" xlink:href="#DejaVuSans-48"/>
      </g>
     </g>
    </g>
    <g id="xtick_6">
     <g id="line2d_6">
      <g>
       <use style="stroke:#000000;stroke-width:0.8;" x="263.16222" xlink:href="#m72f0d32813" y="183.718125"/>
      </g>
     </g>
     <g id="text_6">
      <!-- 17.5 -->
      <g transform="translate(252.029408 198.316562)scale(0.1 -0.1)">
       <use xlink:href="#DejaVuSans-49"/>
       <use x="63.623047" xlink:href="#DejaVuSans-55"/>
       <use x="127.246094" xlink:href="#DejaVuSans-46"/>
       <use x="159.033203" xlink:href="#DejaVuSans-53"/>
      </g>
     </g>
    </g>
    <g id="xtick_7">
     <g id="line2d_7">
      <g>
       <use style="stroke:#000000;stroke-width:0.8;" x="303.731204" xlink:href="#m72f0d32813" y="183.718125"/>
      </g>
     </g>
     <g id="text_7">
      <!-- 20.0 -->
      <g transform="translate(292.598391 198.316562)scale(0.1 -0.1)">
       <use xlink:href="#DejaVuSans-50"/>
       <use x="63.623047" xlink:href="#DejaVuSans-48"/>
       <use x="127.246094" xlink:href="#DejaVuSans-46"/>
       <use x="159.033203" xlink:href="#DejaVuSans-48"/>
      </g>
     </g>
    </g>
    <g id="xtick_8">
     <g id="line2d_8">
      <g>
       <use style="stroke:#000000;stroke-width:0.8;" x="344.300187" xlink:href="#m72f0d32813" y="183.718125"/>
      </g>
     </g>
     <g id="text_8">
      <!-- 22.5 -->
      <g transform="translate(333.167374 198.316562)scale(0.1 -0.1)">
       <use xlink:href="#DejaVuSans-50"/>
       <use x="63.623047" xlink:href="#DejaVuSans-50"/>
       <use x="127.246094" xlink:href="#DejaVuSans-46"/>
       <use x="159.033203" xlink:href="#DejaVuSans-53"/>
      </g>
     </g>
    </g>
   </g>
   <g id="matplotlib.axis_2">
    <g id="ytick_1">
     <g id="line2d_9">
      <defs>
       <path d="M 0 0 
L -3.5 0 
" id="m0980f80937" style="stroke:#000000;stroke-width:0.8;"/>
      </defs>
      <g>
       <use style="stroke:#000000;stroke-width:0.8;" x="36.465625" xlink:href="#m0980f80937" y="183.718125"/>
      </g>
     </g>
     <g id="text_9">
      <!-- 0.00 -->
      <g transform="translate(7.2 187.517344)scale(0.1 -0.1)">
       <use xlink:href="#DejaVuSans-48"/>
       <use x="63.623047" xlink:href="#DejaVuSans-46"/>
       <use x="95.410156" xlink:href="#DejaVuSans-48"/>
       <use x="159.033203" xlink:href="#DejaVuSans-48"/>
      </g>
     </g>
    </g>
    <g id="ytick_2">
     <g id="line2d_10">
      <g>
       <use style="stroke:#000000;stroke-width:0.8;" x="36.465625" xlink:href="#m0980f80937" y="145.810234"/>
      </g>
     </g>
     <g id="text_10">
      <!-- 0.05 -->
      <g transform="translate(7.2 149.609453)scale(0.1 -0.1)">
       <use xlink:href="#DejaVuSans-48"/>
       <use x="63.623047" xlink:href="#DejaVuSans-46"/>
       <use x="95.410156" xlink:href="#DejaVuSans-48"/>
       <use x="159.033203" xlink:href="#DejaVuSans-53"/>
      </g>
     </g>
    </g>
    <g id="ytick_3">
     <g id="line2d_11">
      <g>
       <use style="stroke:#000000;stroke-width:0.8;" x="36.465625" xlink:href="#m0980f80937" y="107.902343"/>
      </g>
     </g>
     <g id="text_11">
      <!-- 0.10 -->
      <g transform="translate(7.2 111.701562)scale(0.1 -0.1)">
       <use xlink:href="#DejaVuSans-48"/>
       <use x="63.623047" xlink:href="#DejaVuSans-46"/>
       <use x="95.410156" xlink:href="#DejaVuSans-49"/>
       <use x="159.033203" xlink:href="#DejaVuSans-48"/>
      </g>
     </g>
    </g>
    <g id="ytick_4">
     <g id="line2d_12">
      <g>
       <use style="stroke:#000000;stroke-width:0.8;" x="36.465625" xlink:href="#m0980f80937" y="69.994453"/>
      </g>
     </g>
     <g id="text_12">
      <!-- 0.15 -->
      <g transform="translate(7.2 73.793671)scale(0.1 -0.1)">
       <use xlink:href="#DejaVuSans-48"/>
       <use x="63.623047" xlink:href="#DejaVuSans-46"/>
       <use x="95.410156" xlink:href="#DejaVuSans-49"/>
       <use x="159.033203" xlink:href="#DejaVuSans-53"/>
      </g>
     </g>
    </g>
    <g id="ytick_5">
     <g id="line2d_13">
      <g>
       <use style="stroke:#000000;stroke-width:0.8;" x="36.465625" xlink:href="#m0980f80937" y="32.086562"/>
      </g>
     </g>
     <g id="text_13">
      <!-- 0.20 -->
      <g transform="translate(7.2 35.885781)scale(0.1 -0.1)">
       <use xlink:href="#DejaVuSans-48"/>
       <use x="63.623047" xlink:href="#DejaVuSans-46"/>
       <use x="95.410156" xlink:href="#DejaVuSans-50"/>
       <use x="159.033203" xlink:href="#DejaVuSans-48"/>
      </g>
     </g>
    </g>
   </g>
   <g id="LineCollection_1">
    <path clip-path="url(#p638d150d6b)" d="M 141.455271 183.718125 
L 141.455271 32.487521 
" style="fill:none;stroke:#ff7f0e;stroke-width:1.5;"/>
   </g>
   <g id="line2d_14">
    <path clip-path="url(#p638d150d6b)" d="M 50.484386 183.710473 
L 53.316459 183.706887 
L 56.148532 183.701746 
L 58.980605 183.694434 
L 61.812678 183.684118 
L 64.644751 183.66968 
L 67.476824 183.649636 
L 70.308897 183.622034 
L 73.14097 183.58433 
L 75.973043 183.533245 
L 78.805116 183.464593 
L 81.637189 183.373086 
L 84.469262 183.252112 
L 87.301335 183.093498 
L 90.133408 182.887249 
L 92.965481 182.621282 
L 95.797554 182.28116 
L 98.629627 181.849849 
L 101.4617 181.307505 
L 104.293773 180.631317 
L 107.125846 179.795439 
L 109.957919 178.771026 
L 112.789992 177.526414 
L 115.622065 176.027462 
L 118.454138 174.238088 
L 121.286211 172.121028 
L 124.118284 169.638806 
L 126.950357 166.754952 
L 129.78243 163.435434 
L 132.614503 159.650283 
L 135.446576 155.375388 
L 138.278649 150.594376 
L 141.110722 145.300522 
L 143.942795 139.498597 
L 146.774868 133.206537 
L 149.606941 126.456851 
L 152.439014 119.297629 
L 155.271087 111.793072 
L 158.10316 104.023434 
L 160.935233 96.084322 
L 163.767306 88.085298 
L 166.599379 80.147785 
L 169.431452 72.402307 
L 172.263525 64.985128 
L 175.095598 58.034399 
L 177.927671 51.685963 
L 180.759744 46.068988 
L 183.591817 41.30162 
L 186.42389 37.486865 
L 189.255963 34.708888 
L 192.088036 33.02993 
L 194.920109 32.48799 
L 197.752182 33.095393 
L 200.584255 34.838327 
L 203.416328 37.677363 
L 206.2484 41.548938 
L 209.080473 46.367721 
L 211.912546 52.02974 
L 214.744619 58.416105 
L 217.576692 65.397149 
L 220.408765 72.83678 
L 223.240838 80.596844 
L 226.072911 88.541307 
L 228.904984 96.540079 
L 231.737057 104.472343 
L 234.56913 112.229286 
L 237.401203 119.716145 
L 240.233276 126.85357 
L 243.065349 133.578285 
L 245.897422 139.843106 
L 248.729495 145.616389 
L 251.561568 150.880989 
L 254.393641 155.632838 
L 257.225714 159.879263 
L 260.057787 163.63713 
L 262.88986 166.930934 
L 265.721933 169.790922 
L 268.554006 172.251309 
L 271.386079 174.348659 
L 274.218152 176.120464 
L 277.050225 177.603947 
L 279.882298 178.835096 
L 282.714371 179.847924 
L 285.546444 180.673941 
L 288.378517 181.341825 
L 291.21059 181.877248 
L 294.042663 182.302848 
L 296.874736 182.638306 
L 299.706809 182.900501 
L 302.538882 183.103727 
L 305.370955 183.259943 
L 308.203028 183.379031 
L 311.035101 183.46907 
L 313.867174 183.536589 
L 316.699247 183.586807 
L 319.53132 183.623854 
L 322.363393 183.650963 
L 325.195466 183.670639 
L 328.027539 183.684805 
L 330.859612 183.694923 
" style="fill:none;stroke:#1f77b4;stroke-linecap:square;stroke-width:1.5;"/>
   </g>
   <g id="patch_103">
    <path d="M 36.465625 183.718125 
L 36.465625 22.318125 
" style="fill:none;stroke:#000000;stroke-linecap:square;stroke-linejoin:miter;stroke-width:0.8;"/>
   </g>
   <g id="patch_104">
    <path d="M 344.878373 183.718125 
L 344.878373 22.318125 
" style="fill:none;stroke:#000000;stroke-linecap:square;stroke-linejoin:miter;stroke-width:0.8;"/>
   </g>
   <g id="patch_105">
    <path d="M 36.465625 183.718125 
L 344.878373 183.718125 
" style="fill:none;stroke:#000000;stroke-linecap:square;stroke-linejoin:miter;stroke-width:0.8;"/>
   </g>
   <g id="patch_106">
    <path d="M 36.465625 22.318125 
L 344.878373 22.318125 
" style="fill:none;stroke:#000000;stroke-linecap:square;stroke-linejoin:miter;stroke-width:0.8;"/>
   </g>
   <g id="text_14">
    <!-- S: 10.0 -->
    <defs>
     <path d="M 53.515625 70.515625 
L 53.515625 60.890625 
Q 47.90625 63.578125 42.921875 64.890625 
Q 37.9375 66.21875 33.296875 66.21875 
Q 25.25 66.21875 20.875 63.09375 
Q 16.5 59.96875 16.5 54.203125 
Q 16.5 49.359375 19.40625 46.890625 
Q 22.3125 44.4375 30.421875 42.921875 
L 36.375 41.703125 
Q 47.40625 39.59375 52.65625 34.296875 
Q 57.90625 29 57.90625 20.125 
Q 57.90625 9.515625 50.796875 4.046875 
Q 43.703125 -1.421875 29.984375 -1.421875 
Q 24.8125 -1.421875 18.96875 -0.25 
Q 13.140625 0.921875 6.890625 3.21875 
L 6.890625 13.375 
Q 12.890625 10.015625 18.65625 8.296875 
Q 24.421875 6.59375 29.984375 6.59375 
Q 38.421875 6.59375 43.015625 9.90625 
Q 47.609375 13.234375 47.609375 19.390625 
Q 47.609375 24.75 44.3125 27.78125 
Q 41.015625 30.8125 33.5 32.328125 
L 27.484375 33.5 
Q 16.453125 35.6875 11.515625 40.375 
Q 6.59375 45.0625 6.59375 53.421875 
Q 6.59375 63.09375 13.40625 68.65625 
Q 20.21875 74.21875 32.171875 74.21875 
Q 37.3125 74.21875 42.625 73.28125 
Q 47.953125 72.359375 53.515625 70.515625 
z
" id="DejaVuSans-83"/>
     <path d="M 11.71875 12.40625 
L 22.015625 12.40625 
L 22.015625 0 
L 11.71875 0 
z
M 11.71875 51.703125 
L 22.015625 51.703125 
L 22.015625 39.3125 
L 11.71875 39.3125 
z
" id="DejaVuSans-58"/>
     <path id="DejaVuSans-32"/>
    </defs>
    <g transform="translate(169.575437 16.318125)scale(0.12 -0.12)">
     <use xlink:href="#DejaVuSans-83"/>
     <use x="63.476562" xlink:href="#DejaVuSans-58"/>
     <use x="97.167969" xlink:href="#DejaVuSans-32"/>
     <use x="128.955078" xlink:href="#DejaVuSans-49"/>
     <use x="192.578125" xlink:href="#DejaVuSans-48"/>
     <use x="256.201172" xlink:href="#DejaVuSans-46"/>
     <use x="287.988281" xlink:href="#DejaVuSans-48"/>
    </g>
   </g>
   <g id="legend_1">
    <g id="patch_107">
     <path d="M 298.929936 59.674375 
L 337.878373 59.674375 
Q 339.878373 59.674375 339.878373 57.674375 
L 339.878373 29.318125 
Q 339.878373 27.318125 337.878373 27.318125 
L 298.929936 27.318125 
Q 296.929936 27.318125 296.929936 29.318125 
L 296.929936 57.674375 
Q 296.929936 59.674375 298.929936 59.674375 
z
" style="fill:#ffffff;opacity:0.8;stroke:#cccccc;stroke-linejoin:miter;"/>
    </g>
    <g id="patch_108">
     <path d="M 300.929936 38.916562 
L 320.929936 38.916562 
L 320.929936 31.916562 
L 300.929936 31.916562 
z
" style="fill:#1f77b4;opacity:0.5;"/>
    </g>
    <g id="text_15">
     <!-- R -->
     <defs>
      <path d="M 44.390625 34.1875 
Q 47.5625 33.109375 50.5625 29.59375 
Q 53.5625 26.078125 56.59375 19.921875 
L 66.609375 0 
L 56 0 
L 46.6875 18.703125 
Q 43.0625 26.03125 39.671875 28.421875 
Q 36.28125 30.8125 30.421875 30.8125 
L 19.671875 30.8125 
L 19.671875 0 
L 9.8125 0 
L 9.8125 72.90625 
L 32.078125 72.90625 
Q 44.578125 72.90625 50.734375 67.671875 
Q 56.890625 62.453125 56.890625 51.90625 
Q 56.890625 45.015625 53.6875 40.46875 
Q 50.484375 35.9375 44.390625 34.1875 
z
M 19.671875 64.796875 
L 19.671875 38.921875 
L 32.078125 38.921875 
Q 39.203125 38.921875 42.84375 42.21875 
Q 46.484375 45.515625 46.484375 51.90625 
Q 46.484375 58.296875 42.84375 61.546875 
Q 39.203125 64.796875 32.078125 64.796875 
z
" id="DejaVuSans-82"/>
     </defs>
     <g transform="translate(328.929936 38.916562)scale(0.1 -0.1)">
      <use xlink:href="#DejaVuSans-82"/>
     </g>
    </g>
    <g id="line2d_15">
     <path d="M 300.929936 50.094687 
L 320.929936 50.094687 
" style="fill:none;stroke:#ff7f0e;stroke-width:1.5;"/>
    </g>
    <g id="text_16">
     <!-- S -->
     <g transform="translate(328.929936 53.594687)scale(0.1 -0.1)">
      <use xlink:href="#DejaVuSans-83"/>
     </g>
    </g>
   </g>
  </g>
  <g id="axes_2">
   <g id="patch_109">
    <path d="M 389.265377 183.718125 
L 697.678125 183.718125 
L 697.678125 22.318125 
L 389.265377 22.318125 
z
" style="fill:#ffffff;"/>
   </g>
   <g id="patch_110">
    <path clip-path="url(#p40adbaa510)" d="M 403.284138 183.718125 
L 406.08789 183.718125 
L 406.08789 183.674244 
L 403.284138 183.674244 
z
" style="fill:#2ca02c;opacity:0.5;"/>
   </g>
   <g id="patch_111">
    <path clip-path="url(#p40adbaa510)" d="M 406.08789 183.718125 
L 408.891643 183.718125 
L 408.891643 183.718125 
L 406.08789 183.718125 
z
" style="fill:#2ca02c;opacity:0.5;"/>
   </g>
   <g id="patch_112">
    <path clip-path="url(#p40adbaa510)" d="M 408.891643 183.718125 
L 411.695395 183.718125 
L 411.695395 183.718125 
L 408.891643 183.718125 
z
" style="fill:#2ca02c;opacity:0.5;"/>
   </g>
   <g id="patch_113">
    <path clip-path="url(#p40adbaa510)" d="M 411.695395 183.718125 
L 414.499147 183.718125 
L 414.499147 183.542602 
L 411.695395 183.542602 
z
" style="fill:#2ca02c;opacity:0.5;"/>
   </g>
   <g id="patch_114">
    <path clip-path="url(#p40adbaa510)" d="M 414.499147 183.718125 
L 417.302899 183.718125 
L 417.302899 183.630363 
L 414.499147 183.630363 
z
" style="fill:#2ca02c;opacity:0.5;"/>
   </g>
   <g id="patch_115">
    <path clip-path="url(#p40adbaa510)" d="M 417.302899 183.718125 
L 420.106652 183.718125 
L 420.106652 183.674244 
L 417.302899 183.674244 
z
" style="fill:#2ca02c;opacity:0.5;"/>
   </g>
   <g id="patch_116">
    <path clip-path="url(#p40adbaa510)" d="M 420.106652 183.718125 
L 422.910404 183.718125 
L 422.910404 183.674244 
L 420.106652 183.674244 
z
" style="fill:#2ca02c;opacity:0.5;"/>
   </g>
   <g id="patch_117">
    <path clip-path="url(#p40adbaa510)" d="M 422.910404 183.718125 
L 425.714156 183.718125 
L 425.714156 183.542602 
L 422.910404 183.542602 
z
" style="fill:#2ca02c;opacity:0.5;"/>
   </g>
   <g id="patch_118">
    <path clip-path="url(#p40adbaa510)" d="M 425.714156 183.718125 
L 428.517908 183.718125 
L 428.517908 183.586483 
L 425.714156 183.586483 
z
" style="fill:#2ca02c;opacity:0.5;"/>
   </g>
   <g id="patch_119">
    <path clip-path="url(#p40adbaa510)" d="M 428.517908 183.718125 
L 431.321661 183.718125 
L 431.321661 183.498721 
L 428.517908 183.498721 
z
" style="fill:#2ca02c;opacity:0.5;"/>
   </g>
   <g id="patch_120">
    <path clip-path="url(#p40adbaa510)" d="M 431.321661 183.718125 
L 434.125413 183.718125 
L 434.125413 183.45484 
L 431.321661 183.45484 
z
" style="fill:#2ca02c;opacity:0.5;"/>
   </g>
   <g id="patch_121">
    <path clip-path="url(#p40adbaa510)" d="M 434.125413 183.718125 
L 436.929165 183.718125 
L 436.929165 183.45484 
L 434.125413 183.45484 
z
" style="fill:#2ca02c;opacity:0.5;"/>
   </g>
   <g id="patch_122">
    <path clip-path="url(#p40adbaa510)" d="M 436.929165 183.718125 
L 439.732917 183.718125 
L 439.732917 183.279317 
L 436.929165 183.279317 
z
" style="fill:#2ca02c;opacity:0.5;"/>
   </g>
   <g id="patch_123">
    <path clip-path="url(#p40adbaa510)" d="M 439.732917 183.718125 
L 442.53667 183.718125 
L 442.53667 183.279317 
L 439.732917 183.279317 
z
" style="fill:#2ca02c;opacity:0.5;"/>
   </g>
   <g id="patch_124">
    <path clip-path="url(#p40adbaa510)" d="M 442.53667 183.718125 
L 445.340422 183.718125 
L 445.340422 182.796629 
L 442.53667 182.796629 
z
" style="fill:#2ca02c;opacity:0.5;"/>
   </g>
   <g id="patch_125">
    <path clip-path="url(#p40adbaa510)" d="M 445.340422 183.718125 
L 448.144174 183.718125 
L 448.144174 182.884391 
L 445.340422 182.884391 
z
" style="fill:#2ca02c;opacity:0.5;"/>
   </g>
   <g id="patch_126">
    <path clip-path="url(#p40adbaa510)" d="M 448.144174 183.718125 
L 450.947926 183.718125 
L 450.947926 181.787372 
L 448.144174 181.787372 
z
" style="fill:#2ca02c;opacity:0.5;"/>
   </g>
   <g id="patch_127">
    <path clip-path="url(#p40adbaa510)" d="M 450.947926 183.718125 
L 453.751679 183.718125 
L 453.751679 180.997518 
L 450.947926 180.997518 
z
" style="fill:#2ca02c;opacity:0.5;"/>
   </g>
   <g id="patch_128">
    <path clip-path="url(#p40adbaa510)" d="M 453.751679 183.718125 
L 456.555431 183.718125 
L 456.555431 180.865876 
L 453.751679 180.865876 
z
" style="fill:#2ca02c;opacity:0.5;"/>
   </g>
   <g id="patch_129">
    <path clip-path="url(#p40adbaa510)" d="M 456.555431 183.718125 
L 459.359183 183.718125 
L 459.359183 180.207665 
L 456.555431 180.207665 
z
" style="fill:#2ca02c;opacity:0.5;"/>
   </g>
   <g id="patch_130">
    <path clip-path="url(#p40adbaa510)" d="M 459.359183 183.718125 
L 462.162936 183.718125 
L 462.162936 179.286169 
L 459.359183 179.286169 
z
" style="fill:#2ca02c;opacity:0.5;"/>
   </g>
   <g id="patch_131">
    <path clip-path="url(#p40adbaa510)" d="M 462.162936 183.718125 
L 464.966688 183.718125 
L 464.966688 177.838104 
L 462.162936 177.838104 
z
" style="fill:#2ca02c;opacity:0.5;"/>
   </g>
   <g id="patch_132">
    <path clip-path="url(#p40adbaa510)" d="M 464.966688 183.718125 
L 467.77044 183.718125 
L 467.77044 177.179892 
L 464.966688 177.179892 
z
" style="fill:#2ca02c;opacity:0.5;"/>
   </g>
   <g id="patch_133">
    <path clip-path="url(#p40adbaa510)" d="M 467.77044 183.718125 
L 470.574192 183.718125 
L 470.574192 175.731828 
L 467.77044 175.731828 
z
" style="fill:#2ca02c;opacity:0.5;"/>
   </g>
   <g id="patch_134">
    <path clip-path="url(#p40adbaa510)" d="M 470.574192 183.718125 
L 473.377945 183.718125 
L 473.377945 173.581671 
L 470.574192 173.581671 
z
" style="fill:#2ca02c;opacity:0.5;"/>
   </g>
   <g id="patch_135">
    <path clip-path="url(#p40adbaa510)" d="M 473.377945 183.718125 
L 476.181697 183.718125 
L 476.181697 172.923459 
L 473.377945 172.923459 
z
" style="fill:#2ca02c;opacity:0.5;"/>
   </g>
   <g id="patch_136">
    <path clip-path="url(#p40adbaa510)" d="M 476.181697 183.718125 
L 478.985449 183.718125 
L 478.985449 167.74553 
L 476.181697 167.74553 
z
" style="fill:#2ca02c;opacity:0.5;"/>
   </g>
   <g id="patch_137">
    <path clip-path="url(#p40adbaa510)" d="M 478.985449 183.718125 
L 481.789201 183.718125 
L 481.789201 166.60463 
L 478.985449 166.60463 
z
" style="fill:#2ca02c;opacity:0.5;"/>
   </g>
   <g id="patch_138">
    <path clip-path="url(#p40adbaa510)" d="M 481.789201 183.718125 
L 484.592954 183.718125 
L 484.592954 161.689986 
L 481.789201 161.689986 
z
" style="fill:#2ca02c;opacity:0.5;"/>
   </g>
   <g id="patch_139">
    <path clip-path="url(#p40adbaa510)" d="M 484.592954 183.718125 
L 487.396706 183.718125 
L 487.396706 160.549086 
L 484.592954 160.549086 
z
" style="fill:#2ca02c;opacity:0.5;"/>
   </g>
   <g id="patch_140">
    <path clip-path="url(#p40adbaa510)" d="M 487.396706 183.718125 
L 490.200458 183.718125 
L 490.200458 154.274138 
L 487.396706 154.274138 
z
" style="fill:#2ca02c;opacity:0.5;"/>
   </g>
   <g id="patch_141">
    <path clip-path="url(#p40adbaa510)" d="M 490.200458 183.718125 
L 493.00421 183.718125 
L 493.00421 147.165456 
L 490.200458 147.165456 
z
" style="fill:#2ca02c;opacity:0.5;"/>
   </g>
   <g id="patch_142">
    <path clip-path="url(#p40adbaa510)" d="M 493.00421 183.718125 
L 495.807963 183.718125 
L 495.807963 144.708134 
L 493.00421 144.708134 
z
" style="fill:#2ca02c;opacity:0.5;"/>
   </g>
   <g id="patch_143">
    <path clip-path="url(#p40adbaa510)" d="M 495.807963 183.718125 
L 498.611715 183.718125 
L 498.611715 138.564828 
L 495.807963 138.564828 
z
" style="fill:#2ca02c;opacity:0.5;"/>
   </g>
   <g id="patch_144">
    <path clip-path="url(#p40adbaa510)" d="M 498.611715 183.718125 
L 501.415467 183.718125 
L 501.415467 132.158238 
L 498.611715 132.158238 
z
" style="fill:#2ca02c;opacity:0.5;"/>
   </g>
   <g id="patch_145">
    <path clip-path="url(#p40adbaa510)" d="M 501.415467 183.718125 
L 504.219219 183.718125 
L 504.219219 121.84626 
L 501.415467 121.84626 
z
" style="fill:#2ca02c;opacity:0.5;"/>
   </g>
   <g id="patch_146">
    <path clip-path="url(#p40adbaa510)" d="M 504.219219 183.718125 
L 507.022972 183.718125 
L 507.022972 117.063258 
L 504.219219 117.063258 
z
" style="fill:#2ca02c;opacity:0.5;"/>
   </g>
   <g id="patch_147">
    <path clip-path="url(#p40adbaa510)" d="M 507.022972 183.718125 
L 509.826724 183.718125 
L 509.826724 111.97309 
L 507.022972 111.97309 
z
" style="fill:#2ca02c;opacity:0.5;"/>
   </g>
   <g id="patch_148">
    <path clip-path="url(#p40adbaa510)" d="M 509.826724 183.718125 
L 512.630476 183.718125 
L 512.630476 102.845893 
L 509.826724 102.845893 
z
" style="fill:#2ca02c;opacity:0.5;"/>
   </g>
   <g id="patch_149">
    <path clip-path="url(#p40adbaa510)" d="M 512.630476 183.718125 
L 515.434228 183.718125 
L 515.434228 94.596311 
L 512.630476 94.596311 
z
" style="fill:#2ca02c;opacity:0.5;"/>
   </g>
   <g id="patch_150">
    <path clip-path="url(#p40adbaa510)" d="M 515.434228 183.718125 
L 518.237981 183.718125 
L 518.237981 89.33062 
L 515.434228 89.33062 
z
" style="fill:#2ca02c;opacity:0.5;"/>
   </g>
   <g id="patch_151">
    <path clip-path="url(#p40adbaa510)" d="M 518.237981 183.718125 
L 521.041733 183.718125 
L 521.041733 77.219532 
L 518.237981 77.219532 
z
" style="fill:#2ca02c;opacity:0.5;"/>
   </g>
   <g id="patch_152">
    <path clip-path="url(#p40adbaa510)" d="M 521.041733 183.718125 
L 523.845485 183.718125 
L 523.845485 70.11085 
L 521.041733 70.11085 
z
" style="fill:#2ca02c;opacity:0.5;"/>
   </g>
   <g id="patch_153">
    <path clip-path="url(#p40adbaa510)" d="M 523.845485 183.718125 
L 526.649237 183.718125 
L 526.649237 68.443381 
L 523.845485 68.443381 
z
" style="fill:#2ca02c;opacity:0.5;"/>
   </g>
   <g id="patch_154">
    <path clip-path="url(#p40adbaa510)" d="M 526.649237 183.718125 
L 529.45299 183.718125 
L 529.45299 54.796466 
L 526.649237 54.796466 
z
" style="fill:#2ca02c;opacity:0.5;"/>
   </g>
   <g id="patch_155">
    <path clip-path="url(#p40adbaa510)" d="M 529.45299 183.718125 
L 532.256742 183.718125 
L 532.256742 50.891079 
L 529.45299 50.891079 
z
" style="fill:#2ca02c;opacity:0.5;"/>
   </g>
   <g id="patch_156">
    <path clip-path="url(#p40adbaa510)" d="M 532.256742 183.718125 
L 535.060494 183.718125 
L 535.060494 44.879415 
L 532.256742 44.879415 
z
" style="fill:#2ca02c;opacity:0.5;"/>
   </g>
   <g id="patch_157">
    <path clip-path="url(#p40adbaa510)" d="M 535.060494 183.718125 
L 537.864246 183.718125 
L 537.864246 39.438202 
L 535.060494 39.438202 
z
" style="fill:#2ca02c;opacity:0.5;"/>
   </g>
   <g id="patch_158">
    <path clip-path="url(#p40adbaa510)" d="M 537.864246 183.718125 
L 540.667999 183.718125 
L 540.667999 35.137888 
L 537.864246 35.137888 
z
" style="fill:#2ca02c;opacity:0.5;"/>
   </g>
   <g id="patch_159">
    <path clip-path="url(#p40adbaa510)" d="M 540.667999 183.718125 
L 543.471751 183.718125 
L 543.471751 30.003839 
L 540.667999 30.003839 
z
" style="fill:#2ca02c;opacity:0.5;"/>
   </g>
   <g id="patch_160">
    <path clip-path="url(#p40adbaa510)" d="M 543.471751 183.718125 
L 546.275503 183.718125 
L 546.275503 33.909227 
L 543.471751 33.909227 
z
" style="fill:#2ca02c;opacity:0.5;"/>
   </g>
   <g id="patch_161">
    <path clip-path="url(#p40adbaa510)" d="M 546.275503 183.718125 
L 549.079255 183.718125 
L 549.079255 35.26953 
L 546.275503 35.26953 
z
" style="fill:#2ca02c;opacity:0.5;"/>
   </g>
   <g id="patch_162">
    <path clip-path="url(#p40adbaa510)" d="M 549.079255 183.718125 
L 551.883008 183.718125 
L 551.883008 35.401172 
L 549.079255 35.401172 
z
" style="fill:#2ca02c;opacity:0.5;"/>
   </g>
   <g id="patch_163">
    <path clip-path="url(#p40adbaa510)" d="M 551.883008 183.718125 
L 554.68676 183.718125 
L 554.68676 36.234907 
L 551.883008 36.234907 
z
" style="fill:#2ca02c;opacity:0.5;"/>
   </g>
   <g id="patch_164">
    <path clip-path="url(#p40adbaa510)" d="M 554.68676 183.718125 
L 557.490512 183.718125 
L 557.490512 38.121779 
L 554.68676 38.121779 
z
" style="fill:#2ca02c;opacity:0.5;"/>
   </g>
   <g id="patch_165">
    <path clip-path="url(#p40adbaa510)" d="M 557.490512 183.718125 
L 560.294264 183.718125 
L 560.294264 40.140294 
L 557.490512 40.140294 
z
" style="fill:#2ca02c;opacity:0.5;"/>
   </g>
   <g id="patch_166">
    <path clip-path="url(#p40adbaa510)" d="M 560.294264 183.718125 
L 563.098017 183.718125 
L 563.098017 47.687784 
L 560.294264 47.687784 
z
" style="fill:#2ca02c;opacity:0.5;"/>
   </g>
   <g id="patch_167">
    <path clip-path="url(#p40adbaa510)" d="M 563.098017 183.718125 
L 565.901769 183.718125 
L 565.901769 50.36451 
L 563.098017 50.36451 
z
" style="fill:#2ca02c;opacity:0.5;"/>
   </g>
   <g id="patch_168">
    <path clip-path="url(#p40adbaa510)" d="M 565.901769 183.718125 
L 568.705521 183.718125 
L 568.705521 59.140661 
L 565.901769 59.140661 
z
" style="fill:#2ca02c;opacity:0.5;"/>
   </g>
   <g id="patch_169">
    <path clip-path="url(#p40adbaa510)" d="M 568.705521 183.718125 
L 571.509273 183.718125 
L 571.509273 67.521885 
L 568.705521 67.521885 
z
" style="fill:#2ca02c;opacity:0.5;"/>
   </g>
   <g id="patch_170">
    <path clip-path="url(#p40adbaa510)" d="M 571.509273 183.718125 
L 574.313026 183.718125 
L 574.313026 71.339511 
L 571.509273 71.339511 
z
" style="fill:#2ca02c;opacity:0.5;"/>
   </g>
   <g id="patch_171">
    <path clip-path="url(#p40adbaa510)" d="M 574.313026 183.718125 
L 577.116778 183.718125 
L 577.116778 80.291185 
L 574.313026 80.291185 
z
" style="fill:#2ca02c;opacity:0.5;"/>
   </g>
   <g id="patch_172">
    <path clip-path="url(#p40adbaa510)" d="M 577.116778 183.718125 
L 579.92053 183.718125 
L 579.92053 88.496886 
L 577.116778 88.496886 
z
" style="fill:#2ca02c;opacity:0.5;"/>
   </g>
   <g id="patch_173">
    <path clip-path="url(#p40adbaa510)" d="M 579.92053 183.718125 
L 582.724283 183.718125 
L 582.724283 96.921991 
L 579.92053 96.921991 
z
" style="fill:#2ca02c;opacity:0.5;"/>
   </g>
   <g id="patch_174">
    <path clip-path="url(#p40adbaa510)" d="M 582.724283 183.718125 
L 585.528035 183.718125 
L 585.528035 105.127692 
L 582.724283 105.127692 
z
" style="fill:#2ca02c;opacity:0.5;"/>
   </g>
   <g id="patch_175">
    <path clip-path="url(#p40adbaa510)" d="M 585.528035 183.718125 
L 588.331787 183.718125 
L 588.331787 112.324136 
L 585.528035 112.324136 
z
" style="fill:#2ca02c;opacity:0.5;"/>
   </g>
   <g id="patch_176">
    <path clip-path="url(#p40adbaa510)" d="M 588.331787 183.718125 
L 591.135539 183.718125 
L 591.135539 122.065664 
L 588.331787 122.065664 
z
" style="fill:#2ca02c;opacity:0.5;"/>
   </g>
   <g id="patch_177">
    <path clip-path="url(#p40adbaa510)" d="M 591.135539 183.718125 
L 593.939292 183.718125 
L 593.939292 126.190455 
L 591.135539 126.190455 
z
" style="fill:#2ca02c;opacity:0.5;"/>
   </g>
   <g id="patch_178">
    <path clip-path="url(#p40adbaa510)" d="M 593.939292 183.718125 
L 596.743044 183.718125 
L 596.743044 132.421522 
L 593.939292 132.421522 
z
" style="fill:#2ca02c;opacity:0.5;"/>
   </g>
   <g id="patch_179">
    <path clip-path="url(#p40adbaa510)" d="M 596.743044 183.718125 
L 599.546796 183.718125 
L 599.546796 137.862736 
L 596.743044 137.862736 
z
" style="fill:#2ca02c;opacity:0.5;"/>
   </g>
   <g id="patch_180">
    <path clip-path="url(#p40adbaa510)" d="M 599.546796 183.718125 
L 602.350548 183.718125 
L 602.350548 143.040665 
L 599.546796 143.040665 
z
" style="fill:#2ca02c;opacity:0.5;"/>
   </g>
   <g id="patch_181">
    <path clip-path="url(#p40adbaa510)" d="M 602.350548 183.718125 
L 605.154301 183.718125 
L 605.154301 149.447255 
L 602.350548 149.447255 
z
" style="fill:#2ca02c;opacity:0.5;"/>
   </g>
   <g id="patch_182">
    <path clip-path="url(#p40adbaa510)" d="M 605.154301 183.718125 
L 607.958053 183.718125 
L 607.958053 154.449661 
L 605.154301 154.449661 
z
" style="fill:#2ca02c;opacity:0.5;"/>
   </g>
   <g id="patch_183">
    <path clip-path="url(#p40adbaa510)" d="M 607.958053 183.718125 
L 610.761805 183.718125 
L 610.761805 159.408187 
L 607.958053 159.408187 
z
" style="fill:#2ca02c;opacity:0.5;"/>
   </g>
   <g id="patch_184">
    <path clip-path="url(#p40adbaa510)" d="M 610.761805 183.718125 
L 613.565557 183.718125 
L 613.565557 161.119536 
L 610.761805 161.119536 
z
" style="fill:#2ca02c;opacity:0.5;"/>
   </g>
   <g id="patch_185">
    <path clip-path="url(#p40adbaa510)" d="M 613.565557 183.718125 
L 616.36931 183.718125 
L 616.36931 165.288208 
L 613.565557 165.288208 
z
" style="fill:#2ca02c;opacity:0.5;"/>
   </g>
   <g id="patch_186">
    <path clip-path="url(#p40adbaa510)" d="M 616.36931 183.718125 
L 619.173062 183.718125 
L 619.173062 170.422256 
L 616.36931 170.422256 
z
" style="fill:#2ca02c;opacity:0.5;"/>
   </g>
   <g id="patch_187">
    <path clip-path="url(#p40adbaa510)" d="M 619.173062 183.718125 
L 621.976814 183.718125 
L 621.976814 171.563156 
L 619.173062 171.563156 
z
" style="fill:#2ca02c;opacity:0.5;"/>
   </g>
   <g id="patch_188">
    <path clip-path="url(#p40adbaa510)" d="M 621.976814 183.718125 
L 624.780566 183.718125 
L 624.780566 175.29302 
L 621.976814 175.29302 
z
" style="fill:#2ca02c;opacity:0.5;"/>
   </g>
   <g id="patch_189">
    <path clip-path="url(#p40adbaa510)" d="M 624.780566 183.718125 
L 627.584319 183.718125 
L 627.584319 175.073616 
L 624.780566 175.073616 
z
" style="fill:#2ca02c;opacity:0.5;"/>
   </g>
   <g id="patch_190">
    <path clip-path="url(#p40adbaa510)" d="M 627.584319 183.718125 
L 630.388071 183.718125 
L 630.388071 176.653323 
L 627.584319 176.653323 
z
" style="fill:#2ca02c;opacity:0.5;"/>
   </g>
   <g id="patch_191">
    <path clip-path="url(#p40adbaa510)" d="M 630.388071 183.718125 
L 633.191823 183.718125 
L 633.191823 178.496315 
L 630.388071 178.496315 
z
" style="fill:#2ca02c;opacity:0.5;"/>
   </g>
   <g id="patch_192">
    <path clip-path="url(#p40adbaa510)" d="M 633.191823 183.718125 
L 635.995575 183.718125 
L 635.995575 178.979003 
L 633.191823 178.979003 
z
" style="fill:#2ca02c;opacity:0.5;"/>
   </g>
   <g id="patch_193">
    <path clip-path="url(#p40adbaa510)" d="M 635.995575 183.718125 
L 638.799328 183.718125 
L 638.799328 180.865876 
L 635.995575 180.865876 
z
" style="fill:#2ca02c;opacity:0.5;"/>
   </g>
   <g id="patch_194">
    <path clip-path="url(#p40adbaa510)" d="M 638.799328 183.718125 
L 641.60308 183.718125 
L 641.60308 181.12916 
L 638.799328 181.12916 
z
" style="fill:#2ca02c;opacity:0.5;"/>
   </g>
   <g id="patch_195">
    <path clip-path="url(#p40adbaa510)" d="M 641.60308 183.718125 
L 644.406832 183.718125 
L 644.406832 181.831253 
L 641.60308 181.831253 
z
" style="fill:#2ca02c;opacity:0.5;"/>
   </g>
   <g id="patch_196">
    <path clip-path="url(#p40adbaa510)" d="M 644.406832 183.718125 
L 647.210584 183.718125 
L 647.210584 182.489464 
L 644.406832 182.489464 
z
" style="fill:#2ca02c;opacity:0.5;"/>
   </g>
   <g id="patch_197">
    <path clip-path="url(#p40adbaa510)" d="M 647.210584 183.718125 
L 650.014337 183.718125 
L 650.014337 182.445583 
L 647.210584 182.445583 
z
" style="fill:#2ca02c;opacity:0.5;"/>
   </g>
   <g id="patch_198">
    <path clip-path="url(#p40adbaa510)" d="M 650.014337 183.718125 
L 652.818089 183.718125 
L 652.818089 182.489464 
L 650.014337 182.489464 
z
" style="fill:#2ca02c;opacity:0.5;"/>
   </g>
   <g id="patch_199">
    <path clip-path="url(#p40adbaa510)" d="M 652.818089 183.718125 
L 655.621841 183.718125 
L 655.621841 182.84051 
L 652.818089 182.84051 
z
" style="fill:#2ca02c;opacity:0.5;"/>
   </g>
   <g id="patch_200">
    <path clip-path="url(#p40adbaa510)" d="M 655.621841 183.718125 
L 658.425593 183.718125 
L 658.425593 183.147675 
L 655.621841 183.147675 
z
" style="fill:#2ca02c;opacity:0.5;"/>
   </g>
   <g id="patch_201">
    <path clip-path="url(#p40adbaa510)" d="M 658.425593 183.718125 
L 661.229346 183.718125 
L 661.229346 183.41096 
L 658.425593 183.41096 
z
" style="fill:#2ca02c;opacity:0.5;"/>
   </g>
   <g id="patch_202">
    <path clip-path="url(#p40adbaa510)" d="M 661.229346 183.718125 
L 664.033098 183.718125 
L 664.033098 183.586483 
L 661.229346 183.586483 
z
" style="fill:#2ca02c;opacity:0.5;"/>
   </g>
   <g id="patch_203">
    <path clip-path="url(#p40adbaa510)" d="M 664.033098 183.718125 
L 666.83685 183.718125 
L 666.83685 183.586483 
L 664.033098 183.586483 
z
" style="fill:#2ca02c;opacity:0.5;"/>
   </g>
   <g id="patch_204">
    <path clip-path="url(#p40adbaa510)" d="M 666.83685 183.718125 
L 669.640602 183.718125 
L 669.640602 183.586483 
L 666.83685 183.586483 
z
" style="fill:#2ca02c;opacity:0.5;"/>
   </g>
   <g id="patch_205">
    <path clip-path="url(#p40adbaa510)" d="M 669.640602 183.718125 
L 672.444355 183.718125 
L 672.444355 183.718125 
L 669.640602 183.718125 
z
" style="fill:#2ca02c;opacity:0.5;"/>
   </g>
   <g id="patch_206">
    <path clip-path="url(#p40adbaa510)" d="M 672.444355 183.718125 
L 675.248107 183.718125 
L 675.248107 183.630363 
L 672.444355 183.630363 
z
" style="fill:#2ca02c;opacity:0.5;"/>
   </g>
   <g id="patch_207">
    <path clip-path="url(#p40adbaa510)" d="M 675.248107 183.718125 
L 678.051859 183.718125 
L 678.051859 183.674244 
L 675.248107 183.674244 
z
" style="fill:#2ca02c;opacity:0.5;"/>
   </g>
   <g id="patch_208">
    <path clip-path="url(#p40adbaa510)" d="M 678.051859 183.718125 
L 680.855611 183.718125 
L 680.855611 183.718125 
L 678.051859 183.718125 
z
" style="fill:#2ca02c;opacity:0.5;"/>
   </g>
   <g id="patch_209">
    <path clip-path="url(#p40adbaa510)" d="M 680.855611 183.718125 
L 683.659364 183.718125 
L 683.659364 183.674244 
L 680.855611 183.674244 
z
" style="fill:#2ca02c;opacity:0.5;"/>
   </g>
   <g id="matplotlib.axis_3">
    <g id="xtick_9">
     <g id="line2d_16">
      <g>
       <use style="stroke:#000000;stroke-width:0.8;" x="413.117057" xlink:href="#m72f0d32813" y="183.718125"/>
      </g>
     </g>
     <g id="text_17">
      <!-- 5.0 -->
      <defs>
       <path d="M 10.59375 35.5 
L 73.1875 35.5 
L 73.1875 27.203125 
L 10.59375 27.203125 
z
" id="DejaVuSans-8722"/>
      </defs>
      <g transform="translate(400.97565 198.316562)scale(0.1 -0.1)">
       <use xlink:href="#DejaVuSans-8722"/>
       <use x="83.789062" xlink:href="#DejaVuSans-53"/>
       <use x="147.412109" xlink:href="#DejaVuSans-46"/>
       <use x="179.199219" xlink:href="#DejaVuSans-48"/>
      </g>
     </g>
    </g>
    <g id="xtick_10">
     <g id="line2d_17">
      <g>
       <use style="stroke:#000000;stroke-width:0.8;" x="453.68604" xlink:href="#m72f0d32813" y="183.718125"/>
      </g>
     </g>
     <g id="text_18">
      <!-- 2.5 -->
      <g transform="translate(441.544633 198.316562)scale(0.1 -0.1)">
       <use xlink:href="#DejaVuSans-8722"/>
       <use x="83.789062" xlink:href="#DejaVuSans-50"/>
       <use x="147.412109" xlink:href="#DejaVuSans-46"/>
       <use x="179.199219" xlink:href="#DejaVuSans-53"/>
      </g>
     </g>
    </g>
    <g id="xtick_11">
     <g id="line2d_18">
      <g>
       <use style="stroke:#000000;stroke-width:0.8;" x="494.255023" xlink:href="#m72f0d32813" y="183.718125"/>
      </g>
     </g>
     <g id="text_19">
      <!-- 0.0 -->
      <g transform="translate(486.30346 198.316562)scale(0.1 -0.1)">
       <use xlink:href="#DejaVuSans-48"/>
       <use x="63.623047" xlink:href="#DejaVuSans-46"/>
       <use x="95.410156" xlink:href="#DejaVuSans-48"/>
      </g>
     </g>
    </g>
    <g id="xtick_12">
     <g id="line2d_19">
      <g>
       <use style="stroke:#000000;stroke-width:0.8;" x="534.824006" xlink:href="#m72f0d32813" y="183.718125"/>
      </g>
     </g>
     <g id="text_20">
      <!-- 2.5 -->
      <g transform="translate(526.872443 198.316562)scale(0.1 -0.1)">
       <use xlink:href="#DejaVuSans-50"/>
       <use x="63.623047" xlink:href="#DejaVuSans-46"/>
       <use x="95.410156" xlink:href="#DejaVuSans-53"/>
      </g>
     </g>
    </g>
    <g id="xtick_13">
     <g id="line2d_20">
      <g>
       <use style="stroke:#000000;stroke-width:0.8;" x="575.392989" xlink:href="#m72f0d32813" y="183.718125"/>
      </g>
     </g>
     <g id="text_21">
      <!-- 5.0 -->
      <g transform="translate(567.441427 198.316562)scale(0.1 -0.1)">
       <use xlink:href="#DejaVuSans-53"/>
       <use x="63.623047" xlink:href="#DejaVuSans-46"/>
       <use x="95.410156" xlink:href="#DejaVuSans-48"/>
      </g>
     </g>
    </g>
    <g id="xtick_14">
     <g id="line2d_21">
      <g>
       <use style="stroke:#000000;stroke-width:0.8;" x="615.961972" xlink:href="#m72f0d32813" y="183.718125"/>
      </g>
     </g>
     <g id="text_22">
      <!-- 7.5 -->
      <g transform="translate(608.01041 198.316562)scale(0.1 -0.1)">
       <use xlink:href="#DejaVuSans-55"/>
       <use x="63.623047" xlink:href="#DejaVuSans-46"/>
       <use x="95.410156" xlink:href="#DejaVuSans-53"/>
      </g>
     </g>
    </g>
    <g id="xtick_15">
     <g id="line2d_22">
      <g>
       <use style="stroke:#000000;stroke-width:0.8;" x="656.530955" xlink:href="#m72f0d32813" y="183.718125"/>
      </g>
     </g>
     <g id="text_23">
      <!-- 10.0 -->
      <g transform="translate(645.398143 198.316562)scale(0.1 -0.1)">
       <use xlink:href="#DejaVuSans-49"/>
       <use x="63.623047" xlink:href="#DejaVuSans-48"/>
       <use x="127.246094" xlink:href="#DejaVuSans-46"/>
       <use x="159.033203" xlink:href="#DejaVuSans-48"/>
      </g>
     </g>
    </g>
    <g id="xtick_16">
     <g id="line2d_23">
      <g>
       <use style="stroke:#000000;stroke-width:0.8;" x="697.099939" xlink:href="#m72f0d32813" y="183.718125"/>
      </g>
     </g>
     <g id="text_24">
      <!-- 12.5 -->
      <g transform="translate(685.967126 198.316562)scale(0.1 -0.1)">
       <use xlink:href="#DejaVuSans-49"/>
       <use x="63.623047" xlink:href="#DejaVuSans-50"/>
       <use x="127.246094" xlink:href="#DejaVuSans-46"/>
       <use x="159.033203" xlink:href="#DejaVuSans-53"/>
      </g>
     </g>
    </g>
   </g>
   <g id="matplotlib.axis_4">
    <g id="ytick_6">
     <g id="line2d_24">
      <g>
       <use style="stroke:#000000;stroke-width:0.8;" x="389.265377" xlink:href="#m0980f80937" y="183.718125"/>
      </g>
     </g>
     <g id="text_25">
      <!-- 0.00 -->
      <g transform="translate(359.999752 187.517344)scale(0.1 -0.1)">
       <use xlink:href="#DejaVuSans-48"/>
       <use x="63.623047" xlink:href="#DejaVuSans-46"/>
       <use x="95.410156" xlink:href="#DejaVuSans-48"/>
       <use x="159.033203" xlink:href="#DejaVuSans-48"/>
      </g>
     </g>
    </g>
    <g id="ytick_7">
     <g id="line2d_25">
      <g>
       <use style="stroke:#000000;stroke-width:0.8;" x="389.265377" xlink:href="#m0980f80937" y="145.810234"/>
      </g>
     </g>
     <g id="text_26">
      <!-- 0.05 -->
      <g transform="translate(359.999752 149.609453)scale(0.1 -0.1)">
       <use xlink:href="#DejaVuSans-48"/>
       <use x="63.623047" xlink:href="#DejaVuSans-46"/>
       <use x="95.410156" xlink:href="#DejaVuSans-48"/>
       <use x="159.033203" xlink:href="#DejaVuSans-53"/>
      </g>
     </g>
    </g>
    <g id="ytick_8">
     <g id="line2d_26">
      <g>
       <use style="stroke:#000000;stroke-width:0.8;" x="389.265377" xlink:href="#m0980f80937" y="107.902343"/>
      </g>
     </g>
     <g id="text_27">
      <!-- 0.10 -->
      <g transform="translate(359.999752 111.701562)scale(0.1 -0.1)">
       <use xlink:href="#DejaVuSans-48"/>
       <use x="63.623047" xlink:href="#DejaVuSans-46"/>
       <use x="95.410156" xlink:href="#DejaVuSans-49"/>
       <use x="159.033203" xlink:href="#DejaVuSans-48"/>
      </g>
     </g>
    </g>
    <g id="ytick_9">
     <g id="line2d_27">
      <g>
       <use style="stroke:#000000;stroke-width:0.8;" x="389.265377" xlink:href="#m0980f80937" y="69.994453"/>
      </g>
     </g>
     <g id="text_28">
      <!-- 0.15 -->
      <g transform="translate(359.999752 73.793671)scale(0.1 -0.1)">
       <use xlink:href="#DejaVuSans-48"/>
       <use x="63.623047" xlink:href="#DejaVuSans-46"/>
       <use x="95.410156" xlink:href="#DejaVuSans-49"/>
       <use x="159.033203" xlink:href="#DejaVuSans-53"/>
      </g>
     </g>
    </g>
    <g id="ytick_10">
     <g id="line2d_28">
      <g>
       <use style="stroke:#000000;stroke-width:0.8;" x="389.265377" xlink:href="#m0980f80937" y="32.086562"/>
      </g>
     </g>
     <g id="text_29">
      <!-- 0.20 -->
      <g transform="translate(359.999752 35.885781)scale(0.1 -0.1)">
       <use xlink:href="#DejaVuSans-48"/>
       <use x="63.623047" xlink:href="#DejaVuSans-46"/>
       <use x="95.410156" xlink:href="#DejaVuSans-50"/>
       <use x="159.033203" xlink:href="#DejaVuSans-48"/>
      </g>
     </g>
    </g>
   </g>
   <g id="LineCollection_2">
    <path clip-path="url(#p40adbaa510)" d="M 494.255023 183.718125 
L 494.255023 143.833554 
" style="fill:none;stroke:#000000;stroke-dasharray:5.55,2.4;stroke-dashoffset:0;stroke-opacity:0.5;stroke-width:1.5;"/>
   </g>
   <g id="LineCollection_3">
    <path clip-path="url(#p40adbaa510)" d="M 547.454379 183.718125 
L 547.454379 34.494047 
" style="fill:none;stroke:#000000;stroke-dasharray:5.55,2.4;stroke-dashoffset:0;stroke-opacity:0.5;stroke-width:1.5;"/>
   </g>
   <g id="line2d_29">
    <path clip-path="url(#p40adbaa510)" d="M 403.284138 183.702642 
L 406.116211 183.703622 
L 408.948284 183.69222 
L 411.780357 183.656345 
L 414.61243 183.627619 
L 417.444503 183.627434 
L 420.276576 183.626017 
L 423.108649 183.607706 
L 425.940722 183.576187 
L 428.772795 183.527533 
L 431.604868 183.476199 
L 434.436941 183.420356 
L 437.269014 183.33358 
L 440.101087 183.201285 
L 442.93316 182.991928 
L 445.765233 182.644617 
L 448.597306 182.112899 
L 451.429379 181.481062 
L 454.261452 180.864502 
L 457.093525 180.214398 
L 459.925598 179.38563 
L 462.757671 178.358465 
L 465.589744 177.182861 
L 468.421817 175.784229 
L 471.25389 174.128636 
L 474.085963 172.12067 
L 476.918036 169.531246 
L 479.750109 166.517568 
L 482.582182 163.225313 
L 485.414255 159.431552 
L 488.246328 154.797554 
L 491.078401 149.647972 
L 493.910474 144.474085 
L 496.742547 138.902946 
L 499.57462 132.30188 
L 502.406693 124.944108 
L 505.238766 117.811704 
L 508.070839 111.012395 
L 510.902912 103.773865 
L 513.734985 96.168884 
L 516.567058 88.261985 
L 519.399131 80.025799 
L 522.231204 72.487232 
L 525.063277 65.429805 
L 527.89535 57.889125 
L 530.727422 50.807823 
L 533.559495 44.961233 
L 536.391568 39.865776 
L 539.223641 35.786322 
L 542.055714 33.842367 
L 544.887787 33.831036 
L 547.71986 34.57467 
L 550.551933 35.538565 
L 553.384006 36.928758 
L 556.216079 39.038437 
L 559.048152 42.354181 
L 561.880225 47.179353 
L 564.712298 53.114166 
L 567.544371 59.733773 
L 570.376444 66.546621 
L 573.208517 73.528158 
L 576.04059 81.135942 
L 578.872663 89.327922 
L 581.704736 97.734558 
L 584.536809 106.073378 
L 587.368882 114.061755 
L 590.200955 121.364736 
L 593.033028 127.715856 
L 595.865101 133.419932 
L 598.697174 138.91537 
L 601.529247 144.402853 
L 604.36132 149.938092 
L 607.193393 155.06092 
L 610.025466 159.272282 
L 612.857539 162.954048 
L 615.689612 166.616961 
L 618.521685 169.921054 
L 621.353758 172.542193 
L 624.185831 174.440344 
L 627.017904 175.823297 
L 629.849977 177.174558 
L 632.68205 178.510113 
L 635.514123 179.699281 
L 638.346196 180.688789 
L 641.178269 181.402122 
L 644.010342 181.894625 
L 646.842415 182.254407 
L 649.674488 182.508938 
L 652.506561 182.719522 
L 655.338634 182.958249 
L 658.170707 183.207243 
L 661.00278 183.402031 
L 663.834853 183.531389 
L 666.666926 183.604783 
L 669.498999 183.635323 
L 672.331072 183.651807 
L 675.163145 183.671421 
L 677.995218 183.69212 
L 680.827291 183.701105 
L 683.659364 183.701949 
" style="fill:none;stroke:#2ca02c;stroke-linecap:square;stroke-width:1.5;"/>
   </g>
   <g id="patch_210">
    <path d="M 389.265377 183.718125 
L 389.265377 22.318125 
" style="fill:none;stroke:#000000;stroke-linecap:square;stroke-linejoin:miter;stroke-width:0.8;"/>
   </g>
   <g id="patch_211">
    <path d="M 697.678125 183.718125 
L 697.678125 22.318125 
" style="fill:none;stroke:#000000;stroke-linecap:square;stroke-linejoin:miter;stroke-width:0.8;"/>
   </g>
   <g id="patch_212">
    <path d="M 389.265377 183.718125 
L 697.678125 183.718125 
" style="fill:none;stroke:#000000;stroke-linecap:square;stroke-linejoin:miter;stroke-width:0.8;"/>
   </g>
   <g id="patch_213">
    <path d="M 389.265377 22.318125 
L 697.678125 22.318125 
" style="fill:none;stroke:#000000;stroke-linecap:square;stroke-linejoin:miter;stroke-width:0.8;"/>
   </g>
   <g id="text_30">
    <!-- Limit-state P(g&lt;0)=0.05000000000001138 -->
    <defs>
     <path d="M 9.8125 72.90625 
L 19.671875 72.90625 
L 19.671875 8.296875 
L 55.171875 8.296875 
L 55.171875 0 
L 9.8125 0 
z
" id="DejaVuSans-76"/>
     <path d="M 9.421875 54.6875 
L 18.40625 54.6875 
L 18.40625 0 
L 9.421875 0 
z
M 9.421875 75.984375 
L 18.40625 75.984375 
L 18.40625 64.59375 
L 9.421875 64.59375 
z
" id="DejaVuSans-105"/>
     <path d="M 52 44.1875 
Q 55.375 50.25 60.0625 53.125 
Q 64.75 56 71.09375 56 
Q 79.640625 56 84.28125 50.015625 
Q 88.921875 44.046875 88.921875 33.015625 
L 88.921875 0 
L 79.890625 0 
L 79.890625 32.71875 
Q 79.890625 40.578125 77.09375 44.375 
Q 74.3125 48.1875 68.609375 48.1875 
Q 61.625 48.1875 57.5625 43.546875 
Q 53.515625 38.921875 53.515625 30.90625 
L 53.515625 0 
L 44.484375 0 
L 44.484375 32.71875 
Q 44.484375 40.625 41.703125 44.40625 
Q 38.921875 48.1875 33.109375 48.1875 
Q 26.21875 48.1875 22.15625 43.53125 
Q 18.109375 38.875 18.109375 30.90625 
L 18.109375 0 
L 9.078125 0 
L 9.078125 54.6875 
L 18.109375 54.6875 
L 18.109375 46.1875 
Q 21.1875 51.21875 25.484375 53.609375 
Q 29.78125 56 35.6875 56 
Q 41.65625 56 45.828125 52.96875 
Q 50 49.953125 52 44.1875 
z
" id="DejaVuSans-109"/>
     <path d="M 18.3125 70.21875 
L 18.3125 54.6875 
L 36.8125 54.6875 
L 36.8125 47.703125 
L 18.3125 47.703125 
L 18.3125 18.015625 
Q 18.3125 11.328125 20.140625 9.421875 
Q 21.96875 7.515625 27.59375 7.515625 
L 36.8125 7.515625 
L 36.8125 0 
L 27.59375 0 
Q 17.1875 0 13.234375 3.875 
Q 9.28125 7.765625 9.28125 18.015625 
L 9.28125 47.703125 
L 2.6875 47.703125 
L 2.6875 54.6875 
L 9.28125 54.6875 
L 9.28125 70.21875 
z
" id="DejaVuSans-116"/>
     <path d="M 4.890625 31.390625 
L 31.203125 31.390625 
L 31.203125 23.390625 
L 4.890625 23.390625 
z
" id="DejaVuSans-45"/>
     <path d="M 44.28125 53.078125 
L 44.28125 44.578125 
Q 40.484375 46.53125 36.375 47.5 
Q 32.28125 48.484375 27.875 48.484375 
Q 21.1875 48.484375 17.84375 46.4375 
Q 14.5 44.390625 14.5 40.28125 
Q 14.5 37.15625 16.890625 35.375 
Q 19.28125 33.59375 26.515625 31.984375 
L 29.59375 31.296875 
Q 39.15625 29.25 43.1875 25.515625 
Q 47.21875 21.78125 47.21875 15.09375 
Q 47.21875 7.46875 41.1875 3.015625 
Q 35.15625 -1.421875 24.609375 -1.421875 
Q 20.21875 -1.421875 15.453125 -0.5625 
Q 10.6875 0.296875 5.421875 2 
L 5.421875 11.28125 
Q 10.40625 8.6875 15.234375 7.390625 
Q 20.0625 6.109375 24.8125 6.109375 
Q 31.15625 6.109375 34.5625 8.28125 
Q 37.984375 10.453125 37.984375 14.40625 
Q 37.984375 18.0625 35.515625 20.015625 
Q 33.0625 21.96875 24.703125 23.78125 
L 21.578125 24.515625 
Q 13.234375 26.265625 9.515625 29.90625 
Q 5.8125 33.546875 5.8125 39.890625 
Q 5.8125 47.609375 11.28125 51.796875 
Q 16.75 56 26.8125 56 
Q 31.78125 56 36.171875 55.265625 
Q 40.578125 54.546875 44.28125 53.078125 
z
" id="DejaVuSans-115"/>
     <path d="M 34.28125 27.484375 
Q 23.390625 27.484375 19.1875 25 
Q 14.984375 22.515625 14.984375 16.5 
Q 14.984375 11.71875 18.140625 8.90625 
Q 21.296875 6.109375 26.703125 6.109375 
Q 34.1875 6.109375 38.703125 11.40625 
Q 43.21875 16.703125 43.21875 25.484375 
L 43.21875 27.484375 
z
M 52.203125 31.203125 
L 52.203125 0 
L 43.21875 0 
L 43.21875 8.296875 
Q 40.140625 3.328125 35.546875 0.953125 
Q 30.953125 -1.421875 24.3125 -1.421875 
Q 15.921875 -1.421875 10.953125 3.296875 
Q 6 8.015625 6 15.921875 
Q 6 25.140625 12.171875 29.828125 
Q 18.359375 34.515625 30.609375 34.515625 
L 43.21875 34.515625 
L 43.21875 35.40625 
Q 43.21875 41.609375 39.140625 45 
Q 35.0625 48.390625 27.6875 48.390625 
Q 23 48.390625 18.546875 47.265625 
Q 14.109375 46.140625 10.015625 43.890625 
L 10.015625 52.203125 
Q 14.9375 54.109375 19.578125 55.046875 
Q 24.21875 56 28.609375 56 
Q 40.484375 56 46.34375 49.84375 
Q 52.203125 43.703125 52.203125 31.203125 
z
" id="DejaVuSans-97"/>
     <path d="M 56.203125 29.59375 
L 56.203125 25.203125 
L 14.890625 25.203125 
Q 15.484375 15.921875 20.484375 11.0625 
Q 25.484375 6.203125 34.421875 6.203125 
Q 39.59375 6.203125 44.453125 7.46875 
Q 49.3125 8.734375 54.109375 11.28125 
L 54.109375 2.78125 
Q 49.265625 0.734375 44.1875 -0.34375 
Q 39.109375 -1.421875 33.890625 -1.421875 
Q 20.796875 -1.421875 13.15625 6.1875 
Q 5.515625 13.8125 5.515625 26.8125 
Q 5.515625 40.234375 12.765625 48.109375 
Q 20.015625 56 32.328125 56 
Q 43.359375 56 49.78125 48.890625 
Q 56.203125 41.796875 56.203125 29.59375 
z
M 47.21875 32.234375 
Q 47.125 39.59375 43.09375 43.984375 
Q 39.0625 48.390625 32.421875 48.390625 
Q 24.90625 48.390625 20.390625 44.140625 
Q 15.875 39.890625 15.1875 32.171875 
z
" id="DejaVuSans-101"/>
     <path d="M 19.671875 64.796875 
L 19.671875 37.40625 
L 32.078125 37.40625 
Q 38.96875 37.40625 42.71875 40.96875 
Q 46.484375 44.53125 46.484375 51.125 
Q 46.484375 57.671875 42.71875 61.234375 
Q 38.96875 64.796875 32.078125 64.796875 
z
M 9.8125 72.90625 
L 32.078125 72.90625 
Q 44.34375 72.90625 50.609375 67.359375 
Q 56.890625 61.8125 56.890625 51.125 
Q 56.890625 40.328125 50.609375 34.8125 
Q 44.34375 29.296875 32.078125 29.296875 
L 19.671875 29.296875 
L 19.671875 0 
L 9.8125 0 
z
" id="DejaVuSans-80"/>
     <path d="M 31 75.875 
Q 24.46875 64.65625 21.28125 53.65625 
Q 18.109375 42.671875 18.109375 31.390625 
Q 18.109375 20.125 21.3125 9.0625 
Q 24.515625 -2 31 -13.1875 
L 23.1875 -13.1875 
Q 15.875 -1.703125 12.234375 9.375 
Q 8.59375 20.453125 8.59375 31.390625 
Q 8.59375 42.28125 12.203125 53.3125 
Q 15.828125 64.359375 23.1875 75.875 
z
" id="DejaVuSans-40"/>
     <path d="M 45.40625 27.984375 
Q 45.40625 37.75 41.375 43.109375 
Q 37.359375 48.484375 30.078125 48.484375 
Q 22.859375 48.484375 18.828125 43.109375 
Q 14.796875 37.75 14.796875 27.984375 
Q 14.796875 18.265625 18.828125 12.890625 
Q 22.859375 7.515625 30.078125 7.515625 
Q 37.359375 7.515625 41.375 12.890625 
Q 45.40625 18.265625 45.40625 27.984375 
z
M 54.390625 6.78125 
Q 54.390625 -7.171875 48.1875 -13.984375 
Q 42 -20.796875 29.203125 -20.796875 
Q 24.46875 -20.796875 20.265625 -20.09375 
Q 16.0625 -19.390625 12.109375 -17.921875 
L 12.109375 -9.1875 
Q 16.0625 -11.328125 19.921875 -12.34375 
Q 23.78125 -13.375 27.78125 -13.375 
Q 36.625 -13.375 41.015625 -8.765625 
Q 45.40625 -4.15625 45.40625 5.171875 
L 45.40625 9.625 
Q 42.625 4.78125 38.28125 2.390625 
Q 33.9375 0 27.875 0 
Q 17.828125 0 11.671875 7.65625 
Q 5.515625 15.328125 5.515625 27.984375 
Q 5.515625 40.671875 11.671875 48.328125 
Q 17.828125 56 27.875 56 
Q 33.9375 56 38.28125 53.609375 
Q 42.625 51.21875 45.40625 46.390625 
L 45.40625 54.6875 
L 54.390625 54.6875 
z
" id="DejaVuSans-103"/>
     <path d="M 73.1875 49.21875 
L 22.796875 31.296875 
L 73.1875 13.484375 
L 73.1875 4.59375 
L 10.59375 27.296875 
L 10.59375 35.40625 
L 73.1875 58.109375 
z
" id="DejaVuSans-60"/>
     <path d="M 8.015625 75.875 
L 15.828125 75.875 
Q 23.140625 64.359375 26.78125 53.3125 
Q 30.421875 42.28125 30.421875 31.390625 
Q 30.421875 20.453125 26.78125 9.375 
Q 23.140625 -1.703125 15.828125 -13.1875 
L 8.015625 -13.1875 
Q 14.5 -2 17.703125 9.0625 
Q 20.90625 20.125 20.90625 31.390625 
Q 20.90625 42.671875 17.703125 53.65625 
Q 14.5 64.65625 8.015625 75.875 
z
" id="DejaVuSans-41"/>
     <path d="M 10.59375 45.40625 
L 73.1875 45.40625 
L 73.1875 37.203125 
L 10.59375 37.203125 
z
M 10.59375 25.484375 
L 73.1875 25.484375 
L 73.1875 17.1875 
L 10.59375 17.1875 
z
" id="DejaVuSans-61"/>
     <path d="M 40.578125 39.3125 
Q 47.65625 37.796875 51.625 33 
Q 55.609375 28.21875 55.609375 21.1875 
Q 55.609375 10.40625 48.1875 4.484375 
Q 40.765625 -1.421875 27.09375 -1.421875 
Q 22.515625 -1.421875 17.65625 -0.515625 
Q 12.796875 0.390625 7.625 2.203125 
L 7.625 11.71875 
Q 11.71875 9.328125 16.59375 8.109375 
Q 21.484375 6.890625 26.8125 6.890625 
Q 36.078125 6.890625 40.9375 10.546875 
Q 45.796875 14.203125 45.796875 21.1875 
Q 45.796875 27.640625 41.28125 31.265625 
Q 36.765625 34.90625 28.71875 34.90625 
L 20.21875 34.90625 
L 20.21875 43.015625 
L 29.109375 43.015625 
Q 36.375 43.015625 40.234375 45.921875 
Q 44.09375 48.828125 44.09375 54.296875 
Q 44.09375 59.90625 40.109375 62.90625 
Q 36.140625 65.921875 28.71875 65.921875 
Q 24.65625 65.921875 20.015625 65.03125 
Q 15.375 64.15625 9.8125 62.3125 
L 9.8125 71.09375 
Q 15.4375 72.65625 20.34375 73.4375 
Q 25.25 74.21875 29.59375 74.21875 
Q 40.828125 74.21875 47.359375 69.109375 
Q 53.90625 64.015625 53.90625 55.328125 
Q 53.90625 49.265625 50.4375 45.09375 
Q 46.96875 40.921875 40.578125 39.3125 
z
" id="DejaVuSans-51"/>
     <path d="M 31.78125 34.625 
Q 24.75 34.625 20.71875 30.859375 
Q 16.703125 27.09375 16.703125 20.515625 
Q 16.703125 13.921875 20.71875 10.15625 
Q 24.75 6.390625 31.78125 6.390625 
Q 38.8125 6.390625 42.859375 10.171875 
Q 46.921875 13.96875 46.921875 20.515625 
Q 46.921875 27.09375 42.890625 30.859375 
Q 38.875 34.625 31.78125 34.625 
z
M 21.921875 38.8125 
Q 15.578125 40.375 12.03125 44.71875 
Q 8.5 49.078125 8.5 55.328125 
Q 8.5 64.0625 14.71875 69.140625 
Q 20.953125 74.21875 31.78125 74.21875 
Q 42.671875 74.21875 48.875 69.140625 
Q 55.078125 64.0625 55.078125 55.328125 
Q 55.078125 49.078125 51.53125 44.71875 
Q 48 40.375 41.703125 38.8125 
Q 48.828125 37.15625 52.796875 32.3125 
Q 56.78125 27.484375 56.78125 20.515625 
Q 56.78125 9.90625 50.3125 4.234375 
Q 43.84375 -1.421875 31.78125 -1.421875 
Q 19.734375 -1.421875 13.25 4.234375 
Q 6.78125 9.90625 6.78125 20.515625 
Q 6.78125 27.484375 10.78125 32.3125 
Q 14.796875 37.15625 21.921875 38.8125 
z
M 18.3125 54.390625 
Q 18.3125 48.734375 21.84375 45.5625 
Q 25.390625 42.390625 31.78125 42.390625 
Q 38.140625 42.390625 41.71875 45.5625 
Q 45.3125 48.734375 45.3125 54.390625 
Q 45.3125 60.0625 41.71875 63.234375 
Q 38.140625 66.40625 31.78125 66.40625 
Q 25.390625 66.40625 21.84375 63.234375 
Q 18.3125 60.0625 18.3125 54.390625 
z
" id="DejaVuSans-56"/>
    </defs>
    <g transform="translate(412.724251 16.318125)scale(0.12 -0.12)">
     <use xlink:href="#DejaVuSans-76"/>
     <use x="55.712891" xlink:href="#DejaVuSans-105"/>
     <use x="83.496094" xlink:href="#DejaVuSans-109"/>
     <use x="180.908203" xlink:href="#DejaVuSans-105"/>
     <use x="208.691406" xlink:href="#DejaVuSans-116"/>
     <use x="247.900391" xlink:href="#DejaVuSans-45"/>
     <use x="283.984375" xlink:href="#DejaVuSans-115"/>
     <use x="336.083984" xlink:href="#DejaVuSans-116"/>
     <use x="375.292969" xlink:href="#DejaVuSans-97"/>
     <use x="436.572266" xlink:href="#DejaVuSans-116"/>
     <use x="475.78125" xlink:href="#DejaVuSans-101"/>
     <use x="537.304688" xlink:href="#DejaVuSans-32"/>
     <use x="569.091797" xlink:href="#DejaVuSans-80"/>
     <use x="629.394531" xlink:href="#DejaVuSans-40"/>
     <use x="668.408203" xlink:href="#DejaVuSans-103"/>
     <use x="731.884766" xlink:href="#DejaVuSans-60"/>
     <use x="815.673828" xlink:href="#DejaVuSans-48"/>
     <use x="879.296875" xlink:href="#DejaVuSans-41"/>
     <use x="918.310547" xlink:href="#DejaVuSans-61"/>
     <use x="1002.099609" xlink:href="#DejaVuSans-48"/>
     <use x="1065.722656" xlink:href="#DejaVuSans-46"/>
     <use x="1097.509766" xlink:href="#DejaVuSans-48"/>
     <use x="1161.132812" xlink:href="#DejaVuSans-53"/>
     <use x="1224.755859" xlink:href="#DejaVuSans-48"/>
     <use x="1288.378906" xlink:href="#DejaVuSans-48"/>
     <use x="1352.001953" xlink:href="#DejaVuSans-48"/>
     <use x="1415.625" xlink:href="#DejaVuSans-48"/>
     <use x="1479.248047" xlink:href="#DejaVuSans-48"/>
     <use x="1542.871094" xlink:href="#DejaVuSans-48"/>
     <use x="1606.494141" xlink:href="#DejaVuSans-48"/>
     <use x="1670.117188" xlink:href="#DejaVuSans-48"/>
     <use x="1733.740234" xlink:href="#DejaVuSans-48"/>
     <use x="1797.363281" xlink:href="#DejaVuSans-48"/>
     <use x="1860.986328" xlink:href="#DejaVuSans-48"/>
     <use x="1924.609375" xlink:href="#DejaVuSans-49"/>
     <use x="1988.232422" xlink:href="#DejaVuSans-49"/>
     <use x="2051.855469" xlink:href="#DejaVuSans-51"/>
     <use x="2115.478516" xlink:href="#DejaVuSans-56"/>
    </g>
   </g>
   <g id="legend_2">
    <g id="patch_214">
     <path d="M 627.051563 44.99625 
L 690.678125 44.99625 
Q 692.678125 44.99625 692.678125 42.99625 
L 692.678125 29.318125 
Q 692.678125 27.318125 690.678125 27.318125 
L 627.051563 27.318125 
Q 625.051563 27.318125 625.051563 29.318125 
L 625.051563 42.99625 
Q 625.051563 44.99625 627.051563 44.99625 
z
" style="fill:#ffffff;opacity:0.8;stroke:#cccccc;stroke-linejoin:miter;"/>
    </g>
    <g id="patch_215">
     <path d="M 629.051563 38.916562 
L 649.051563 38.916562 
L 649.051563 31.916562 
L 629.051563 31.916562 
z
" style="fill:#2ca02c;opacity:0.5;"/>
    </g>
    <g id="text_31">
     <!-- g=R-S -->
     <g transform="translate(657.051563 38.916562)scale(0.1 -0.1)">
      <use xlink:href="#DejaVuSans-103"/>
      <use x="63.476562" xlink:href="#DejaVuSans-61"/>
      <use x="147.265625" xlink:href="#DejaVuSans-82"/>
      <use x="216.685547" xlink:href="#DejaVuSans-45"/>
      <use x="252.769531" xlink:href="#DejaVuSans-83"/>
     </g>
    </g>
   </g>
  </g>
 </g>
 <defs>
  <clipPath id="p638d150d6b">
   <rect height="161.4" width="308.412748" x="36.465625" y="22.318125"/>
  </clipPath>
  <clipPath id="p40adbaa510">
   <rect height="161.4" width="308.412748" x="389.265377" y="22.318125"/>
  </clipPath>
 </defs>
</svg>
