<?xml version="1.0" encoding="utf-8" standalone="no"?>
<!DOCTYPE svg PUBLIC "-//W3C//DTD SVG 1.1//EN"
  "http://www.w3.org/Graphics/SVG/1.1/DTD/svg11.dtd">
<!-- Created with matplotlib (https://matplotlib.org/) -->
<svg height="562.551732pt" version="1.1" viewBox="0 0 564.403125 562.551732" width="564.403125pt" xmlns="http://www.w3.org/2000/svg" xmlns:xlink="http://www.w3.org/1999/xlink">
 <defs>
  <style type="text/css">
*{stroke-linecap:butt;stroke-linejoin:round;}
  </style>
 </defs>
 <g id="figure_1">
  <g id="patch_1">
   <path d="M 0 562.551732 
L 564.403125 562.551732 
L 564.403125 0 
L 0 0 
z
" style="fill:none;"/>
  </g>
  <g id="axes_1">
   <g id="patch_2">
    <path d="M 43.803125 106.47013 
L 557.203125 106.47013 
L 557.203125 21.02987 
L 43.803125 21.02987 
z
" style="fill:#ffffff;"/>
   </g>
   <g id="matplotlib.axis_1">
    <g id="xtick_1">
     <g id="line2d_1">
      <defs>
       <path d="M 0 0 
L 0 3.5 
" id="m2358608ee2" style="stroke:#000000;stroke-width:0.8;"/>
      </defs>
      <g>
       <use style="stroke:#000000;stroke-width:0.8;" x="67.139489" xlink:href="#m2358608ee2" y="106.47013"/>
      </g>
     </g>
    </g>
    <g id="xtick_2">
     <g id="line2d_2">
      <g>
       <use style="stroke:#000000;stroke-width:0.8;" x="167.04412" xlink:href="#m2358608ee2" y="106.47013"/>
      </g>
     </g>
    </g>
    <g id="xtick_3">
     <g id="line2d_3">
      <g>
       <use style="stroke:#000000;stroke-width:0.8;" x="266.948752" xlink:href="#m2358608ee2" y="106.47013"/>
      </g>
     </g>
    </g>
    <g id="xtick_4">
     <g id="line2d_4">
      <g>
       <use style="stroke:#000000;stroke-width:0.8;" x="366.853384" xlink:href="#m2358608ee2" y="106.47013"/>
      </g>
     </g>
    </g>
    <g id="xtick_5">
     <g id="line2d_5">
      <g>
       <use style="stroke:#000000;stroke-width:0.8;" x="466.758016" xlink:href="#m2358608ee2" y="106.47013"/>
      </g>
     </g>
    </g>
   </g>
   <g id="matplotlib.axis_2">
    <g id="ytick_1">
     <g id="line2d_6">
      <defs>
       <path d="M 0 0 
L -3.5 0 
" id="m0776241ade" style="stroke:#000000;stroke-width:0.8;"/>
      </defs>
      <g>
       <use style="stroke:#000000;stroke-width:0.8;" x="43.803125" xlink:href="#m0776241ade" y="102.594163"/>
      </g>
     </g>
     <g id="text_1">
      <!-- 0.0 -->
      <defs>
       <path d="M 31.78125 66.40625 
Q 24.171875 66.40625 20.328125 58.90625 
Q 16.5 51.421875 16.5 36.375 
Q 16.5 21.390625 20.328125 13.890625 
Q 24.171875 6.390625 31.78125 6.390625 
Q 39.453125 6.390625 43.28125 13.890625 
Q 47.125 21.390625 47.125 36.375 
Q 47.125 51.421875 43.28125 58.90625 
Q 39.453125 66.40625 31.78125 66.40625 
z
M 31.78125 74.21875 
Q 44.046875 74.21875 50.515625 64.515625 
Q 56.984375 54.828125 56.984375 36.375 
Q 56.984375 17.96875 50.515625 8.265625 
Q 44.046875 -1.421875 31.78125 -1.421875 
Q 19.53125 -1.421875 13.0625 8.265625 
Q 6.59375 17.96875 6.59375 36.375 
Q 6.59375 54.828125 13.0625 64.515625 
Q 19.53125 74.21875 31.78125 74.21875 
z
" id="DejaVuSans-48"/>
       <path d="M 10.6875 12.40625 
L 21 12.40625 
L 21 0 
L 10.6875 0 
z
" id="DejaVuSans-46"/>
      </defs>
      <g transform="translate(20.9 106.393382)scale(0.1 -0.1)">
       <use xlink:href="#DejaVuSans-48"/>
       <use x="63.623047" xlink:href="#DejaVuSans-46"/>
       <use x="95.410156" xlink:href="#DejaVuSans-48"/>
      </g>
     </g>
    </g>
    <g id="ytick_2">
     <g id="line2d_7">
      <g>
       <use style="stroke:#000000;stroke-width:0.8;" x="43.803125" xlink:href="#m0776241ade" y="62.559098"/>
      </g>
     </g>
     <g id="text_2">
      <!-- 0.5 -->
      <defs>
       <path d="M 10.796875 72.90625 
L 49.515625 72.90625 
L 49.515625 64.59375 
L 19.828125 64.59375 
L 19.828125 46.734375 
Q 21.96875 47.46875 24.109375 47.828125 
Q 26.265625 48.1875 28.421875 48.1875 
Q 40.625 48.1875 47.75 41.5 
Q 54.890625 34.8125 54.890625 23.390625 
Q 54.890625 11.625 47.5625 5.09375 
Q 40.234375 -1.421875 26.90625 -1.421875 
Q 22.3125 -1.421875 17.546875 -0.640625 
Q 12.796875 0.140625 7.71875 1.703125 
L 7.71875 11.625 
Q 12.109375 9.234375 16.796875 8.0625 
Q 21.484375 6.890625 26.703125 6.890625 
Q 35.15625 6.890625 40.078125 11.328125 
Q 45.015625 15.765625 45.015625 23.390625 
Q 45.015625 31 40.078125 35.4375 
Q 35.15625 39.890625 26.703125 39.890625 
Q 22.75 39.890625 18.8125 39.015625 
Q 14.890625 38.140625 10.796875 36.28125 
z
" id="DejaVuSans-53"/>
      </defs>
      <g transform="translate(20.9 66.358317)scale(0.1 -0.1)">
       <use xlink:href="#DejaVuSans-48"/>
       <use x="63.623047" xlink:href="#DejaVuSans-46"/>
       <use x="95.410156" xlink:href="#DejaVuSans-53"/>
      </g>
     </g>
    </g>
    <g id="ytick_3">
     <g id="line2d_8">
      <g>
       <use style="stroke:#000000;stroke-width:0.8;" x="43.803125" xlink:href="#m0776241ade" y="22.524034"/>
      </g>
     </g>
     <g id="text_3">
      <!-- 1.0 -->
      <defs>
       <path d="M 12.40625 8.296875 
L 28.515625 8.296875 
L 28.515625 63.921875 
L 10.984375 60.40625 
L 10.984375 69.390625 
L 28.421875 72.90625 
L 38.28125 72.90625 
L 38.28125 8.296875 
L 54.390625 8.296875 
L 54.390625 0 
L 12.40625 0 
z
" id="DejaVuSans-49"/>
      </defs>
      <g transform="translate(20.9 26.323252)scale(0.1 -0.1)">
       <use xlink:href="#DejaVuSans-49"/>
       <use x="63.623047" xlink:href="#DejaVuSans-46"/>
       <use x="95.410156" xlink:href="#DejaVuSans-48"/>
      </g>
     </g>
    </g>
    <g id="text_4">
     <!-- Probability of failure $P_f$ -->
     <defs>
      <path d="M 19.671875 64.796875 
L 19.671875 37.40625 
L 32.078125 37.40625 
Q 38.96875 37.40625 42.71875 40.96875 
Q 46.484375 44.53125 46.484375 51.125 
Q 46.484375 57.671875 42.71875 61.234375 
Q 38.96875 64.796875 32.078125 64.796875 
z
M 9.8125 72.90625 
L 32.078125 72.90625 
Q 44.34375 72.90625 50.609375 67.359375 
Q 56.890625 61.8125 56.890625 51.125 
Q 56.890625 40.328125 50.609375 34.8125 
Q 44.34375 29.296875 32.078125 29.296875 
L 19.671875 29.296875 
L 19.671875 0 
L 9.8125 0 
z
" id="DejaVuSans-80"/>
      <path d="M 41.109375 46.296875 
Q 39.59375 47.171875 37.8125 47.578125 
Q 36.03125 48 33.890625 48 
Q 26.265625 48 22.1875 43.046875 
Q 18.109375 38.09375 18.109375 28.8125 
L 18.109375 0 
L 9.078125 0 
L 9.078125 54.6875 
L 18.109375 54.6875 
L 18.109375 46.1875 
Q 20.953125 51.171875 25.484375 53.578125 
Q 30.03125 56 36.53125 56 
Q 37.453125 56 38.578125 55.875 
Q 39.703125 55.765625 41.0625 55.515625 
z
" id="DejaVuSans-114"/>
      <path d="M 30.609375 48.390625 
Q 23.390625 48.390625 19.1875 42.75 
Q 14.984375 37.109375 14.984375 27.296875 
Q 14.984375 17.484375 19.15625 11.84375 
Q 23.34375 6.203125 30.609375 6.203125 
Q 37.796875 6.203125 41.984375 11.859375 
Q 46.1875 17.53125 46.1875 27.296875 
Q 46.1875 37.015625 41.984375 42.703125 
Q 37.796875 48.390625 30.609375 48.390625 
z
M 30.609375 56 
Q 42.328125 56 49.015625 48.375 
Q 55.71875 40.765625 55.71875 27.296875 
Q 55.71875 13.875 49.015625 6.21875 
Q 42.328125 -1.421875 30.609375 -1.421875 
Q 18.84375 -1.421875 12.171875 6.21875 
Q 5.515625 13.875 5.515625 27.296875 
Q 5.515625 40.765625 12.171875 48.375 
Q 18.84375 56 30.609375 56 
z
" id="DejaVuSans-111"/>
      <path d="M 48.6875 27.296875 
Q 48.6875 37.203125 44.609375 42.84375 
Q 40.53125 48.484375 33.40625 48.484375 
Q 26.265625 48.484375 22.1875 42.84375 
Q 18.109375 37.203125 18.109375 27.296875 
Q 18.109375 17.390625 22.1875 11.75 
Q 26.265625 6.109375 33.40625 6.109375 
Q 40.53125 6.109375 44.609375 11.75 
Q 48.6875 17.390625 48.6875 27.296875 
z
M 18.109375 46.390625 
Q 20.953125 51.265625 25.265625 53.625 
Q 29.59375 56 35.59375 56 
Q 45.5625 56 51.78125 48.09375 
Q 58.015625 40.1875 58.015625 27.296875 
Q 58.015625 14.40625 51.78125 6.484375 
Q 45.5625 -1.421875 35.59375 -1.421875 
Q 29.59375 -1.421875 25.265625 0.953125 
Q 20.953125 3.328125 18.109375 8.203125 
L 18.109375 0 
L 9.078125 0 
L 9.078125 75.984375 
L 18.109375 75.984375 
z
" id="DejaVuSans-98"/>
      <path d="M 34.28125 27.484375 
Q 23.390625 27.484375 19.1875 25 
Q 14.984375 22.515625 14.984375 16.5 
Q 14.984375 11.71875 18.140625 8.90625 
Q 21.296875 6.109375 26.703125 6.109375 
Q 34.1875 6.109375 38.703125 11.40625 
Q 43.21875 16.703125 43.21875 25.484375 
L 43.21875 27.484375 
z
M 52.203125 31.203125 
L 52.203125 0 
L 43.21875 0 
L 43.21875 8.296875 
Q 40.140625 3.328125 35.546875 0.953125 
Q 30.953125 -1.421875 24.3125 -1.421875 
Q 15.921875 -1.421875 10.953125 3.296875 
Q 6 8.015625 6 15.921875 
Q 6 25.140625 12.171875 29.828125 
Q 18.359375 34.515625 30.609375 34.515625 
L 43.21875 34.515625 
L 43.21875 35.40625 
Q 43.21875 41.609375 39.140625 45 
Q 35.0625 48.390625 27.6875 48.390625 
Q 23 48.390625 18.546875 47.265625 
Q 14.109375 46.140625 10.015625 43.890625 
L 10.015625 52.203125 
Q 14.9375 54.109375 19.578125 55.046875 
Q 24.21875 56 28.609375 56 
Q 40.484375 56 46.34375 49.84375 
Q 52.203125 43.703125 52.203125 31.203125 
z
" id="DejaVuSans-97"/>
      <path d="M 9.421875 54.6875 
L 18.40625 54.6875 
L 18.40625 0 
L 9.421875 0 
z
M 9.421875 75.984375 
L 18.40625 75.984375 
L 18.40625 64.59375 
L 9.421875 64.59375 
z
" id="DejaVuSans-105"/>
      <path d="M 9.421875 75.984375 
L 18.40625 75.984375 
L 18.40625 0 
L 9.421875 0 
z
" id="DejaVuSans-108"/>
      <path d="M 18.3125 70.21875 
L 18.3125 54.6875 
L 36.8125 54.6875 
L 36.8125 47.703125 
L 18.3125 47.703125 
L 18.3125 18.015625 
Q 18.3125 11.328125 20.140625 9.421875 
Q 21.96875 7.515625 27.59375 7.515625 
L 36.8125 7.515625 
L 36.8125 0 
L 27.59375 0 
Q 17.1875 0 13.234375 3.875 
Q 9.28125 7.765625 9.28125 18.015625 
L 9.28125 47.703125 
L 2.6875 47.703125 
L 2.6875 54.6875 
L 9.28125 54.6875 
L 9.28125 70.21875 
z
" id="DejaVuSans-116"/>
      <path d="M 32.171875 -5.078125 
Q 28.375 -14.84375 24.75 -17.8125 
Q 21.140625 -20.796875 15.09375 -20.796875 
L 7.90625 -20.796875 
L 7.90625 -13.28125 
L 13.1875 -13.28125 
Q 16.890625 -13.28125 18.9375 -11.515625 
Q 21 -9.765625 23.484375 -3.21875 
L 25.09375 0.875 
L 2.984375 54.6875 
L 12.5 54.6875 
L 29.59375 11.921875 
L 46.6875 54.6875 
L 56.203125 54.6875 
z
" id="DejaVuSans-121"/>
      <path id="DejaVuSans-32"/>
      <path d="M 37.109375 75.984375 
L 37.109375 68.5 
L 28.515625 68.5 
Q 23.6875 68.5 21.796875 66.546875 
Q 19.921875 64.59375 19.921875 59.515625 
L 19.921875 54.6875 
L 34.71875 54.6875 
L 34.71875 47.703125 
L 19.921875 47.703125 
L 19.921875 0 
L 10.890625 0 
L 10.890625 47.703125 
L 2.296875 47.703125 
L 2.296875 54.6875 
L 10.890625 54.6875 
L 10.890625 58.5 
Q 10.890625 67.625 15.140625 71.796875 
Q 19.390625 75.984375 28.609375 75.984375 
z
" id="DejaVuSans-102"/>
      <path d="M 8.5 21.578125 
L 8.5 54.6875 
L 17.484375 54.6875 
L 17.484375 21.921875 
Q 17.484375 14.15625 20.5 10.265625 
Q 23.53125 6.390625 29.59375 6.390625 
Q 36.859375 6.390625 41.078125 11.03125 
Q 45.3125 15.671875 45.3125 23.6875 
L 45.3125 54.6875 
L 54.296875 54.6875 
L 54.296875 0 
L 45.3125 0 
L 45.3125 8.40625 
Q 42.046875 3.421875 37.71875 1 
Q 33.40625 -1.421875 27.6875 -1.421875 
Q 18.265625 -1.421875 13.375 4.4375 
Q 8.5 10.296875 8.5 21.578125 
z
M 31.109375 56 
z
" id="DejaVuSans-117"/>
      <path d="M 56.203125 29.59375 
L 56.203125 25.203125 
L 14.890625 25.203125 
Q 15.484375 15.921875 20.484375 11.0625 
Q 25.484375 6.203125 34.421875 6.203125 
Q 39.59375 6.203125 44.453125 7.46875 
Q 49.3125 8.734375 54.109375 11.28125 
L 54.109375 2.78125 
Q 49.265625 0.734375 44.1875 -0.34375 
Q 39.109375 -1.421875 33.890625 -1.421875 
Q 20.796875 -1.421875 13.15625 6.1875 
Q 5.515625 13.8125 5.515625 26.8125 
Q 5.515625 40.234375 12.765625 48.109375 
Q 20.015625 56 32.328125 56 
Q 43.359375 56 49.78125 48.890625 
Q 56.203125 41.796875 56.203125 29.59375 
z
M 47.21875 32.234375 
Q 47.125 39.59375 43.09375 43.984375 
Q 39.0625 48.390625 32.421875 48.390625 
Q 24.90625 48.390625 20.390625 44.140625 
Q 15.875 39.890625 15.1875 32.171875 
z
" id="DejaVuSans-101"/>
      <path d="M 16.890625 72.90625 
L 39.703125 72.90625 
Q 49.65625 72.90625 54.875 68.265625 
Q 60.109375 63.625 60.109375 54.6875 
Q 60.109375 42.671875 52.390625 35.984375 
Q 44.671875 29.296875 30.71875 29.296875 
L 18.3125 29.296875 
L 12.59375 0 
L 2.6875 0 
z
M 25.203125 64.796875 
L 19.921875 37.40625 
L 32.328125 37.40625 
Q 40.71875 37.40625 45.203125 41.703125 
Q 49.703125 46 49.703125 54 
Q 49.703125 59.125 46.65625 61.953125 
Q 43.609375 64.796875 38.09375 64.796875 
z
" id="DejaVuSans-Oblique-80"/>
      <path d="M 47.796875 75.984375 
L 46.390625 68.5 
L 37.796875 68.5 
Q 32.90625 68.5 30.6875 66.578125 
Q 28.46875 64.65625 27.390625 59.515625 
L 26.421875 54.6875 
L 41.21875 54.6875 
L 39.890625 47.703125 
L 25.09375 47.703125 
L 15.828125 0 
L 6.78125 0 
L 16.109375 47.703125 
L 7.515625 47.703125 
L 8.796875 54.6875 
L 17.390625 54.6875 
L 18.109375 58.5 
Q 19.96875 68.171875 24.625 72.078125 
Q 29.296875 75.984375 39.3125 75.984375 
z
" id="DejaVuSans-Oblique-102"/>
     </defs>
     <g transform="translate(14.8 120.3)rotate(-90)scale(0.1 -0.1)">
      <use transform="translate(0 0.015625)" xlink:href="#DejaVuSans-80"/>
      <use transform="translate(60.302734 0.015625)" xlink:href="#DejaVuSans-114"/>
      <use transform="translate(101.416016 0.015625)" xlink:href="#DejaVuSans-111"/>
      <use transform="translate(162.597656 0.015625)" xlink:href="#DejaVuSans-98"/>
      <use transform="translate(226.074219 0.015625)" xlink:href="#DejaVuSans-97"/>
      <use transform="translate(287.353516 0.015625)" xlink:href="#DejaVuSans-98"/>
      <use transform="translate(350.830078 0.015625)" xlink:href="#DejaVuSans-105"/>
      <use transform="translate(378.613281 0.015625)" xlink:href="#DejaVuSans-108"/>
      <use transform="translate(406.396484 0.015625)" xlink:href="#DejaVuSans-105"/>
      <use transform="translate(434.179688 0.015625)" xlink:href="#DejaVuSans-116"/>
      <use transform="translate(473.388672 0.015625)" xlink:href="#DejaVuSans-121"/>
      <use transform="translate(532.568359 0.015625)" xlink:href="#DejaVuSans-32"/>
      <use transform="translate(564.355469 0.015625)" xlink:href="#DejaVuSans-111"/>
      <use transform="translate(625.537109 0.015625)" xlink:href="#DejaVuSans-102"/>
      <use transform="translate(660.742188 0.015625)" xlink:href="#DejaVuSans-32"/>
      <use transform="translate(692.529297 0.015625)" xlink:href="#DejaVuSans-102"/>
      <use transform="translate(727.734375 0.015625)" xlink:href="#DejaVuSans-97"/>
      <use transform="translate(789.013672 0.015625)" xlink:href="#DejaVuSans-105"/>
      <use transform="translate(816.796875 0.015625)" xlink:href="#DejaVuSans-108"/>
      <use transform="translate(844.580078 0.015625)" xlink:href="#DejaVuSans-117"/>
      <use transform="translate(907.958984 0.015625)" xlink:href="#DejaVuSans-114"/>
      <use transform="translate(949.072266 0.015625)" xlink:href="#DejaVuSans-101"/>
      <use transform="translate(1010.595703 0.015625)" xlink:href="#DejaVuSans-32"/>
      <use transform="translate(1042.382812 0.015625)" xlink:href="#DejaVuSans-Oblique-80"/>
      <use transform="translate(1102.685547 -16.390625)scale(0.7)" xlink:href="#DejaVuSans-Oblique-102"/>
     </g>
    </g>
   </g>
   <g id="line2d_9">
    <path clip-path="url(#p5e6806e7b2)" d="M 67.139489 102.586482 
L 87.120415 102.571626 
L 107.101341 102.532764 
L 127.082268 102.438754 
L 147.063194 102.228462 
L 167.04412 101.793461 
L 187.025047 100.961363 
L 207.005973 99.48947 
L 226.986899 97.081804 
L 246.967826 93.439843 
L 266.948752 88.345424 
L 286.929679 81.755589 
L 306.910605 73.872882 
L 326.891531 65.153261 
L 346.872458 56.233742 
L 366.853384 47.796377 
L 386.83431 40.415743 
L 406.815237 34.445366 
L 426.796163 29.979243 
L 446.777089 26.889801 
L 466.758016 24.913518 
" style="fill:none;stroke:#000000;stroke-dasharray:5.55,2.4;stroke-dashoffset:0;stroke-width:1.5;"/>
   </g>
   <g id="line2d_10">
    <defs>
     <path d="M 0 7.5 
L 0 -7.5 
" id="ma748372374" style="stroke:#000000;"/>
    </defs>
    <g clip-path="url(#p5e6806e7b2)">
     <use style="stroke:#000000;" x="147.063194" xlink:href="#ma748372374" y="102.228462"/>
     <use style="stroke:#000000;" x="226.986899" xlink:href="#ma748372374" y="97.081804"/>
     <use style="stroke:#000000;" x="306.910605" xlink:href="#ma748372374" y="73.872882"/>
     <use style="stroke:#000000;" x="386.83431" xlink:href="#ma748372374" y="40.415743"/>
     <use style="stroke:#000000;" x="466.758016" xlink:href="#ma748372374" y="24.913518"/>
    </g>
   </g>
   <g id="patch_3">
    <path d="M 43.803125 106.47013 
L 43.803125 21.02987 
" style="fill:none;stroke:#000000;stroke-linecap:square;stroke-linejoin:miter;stroke-width:0.8;"/>
   </g>
   <g id="patch_4">
    <path d="M 557.203125 106.47013 
L 557.203125 21.02987 
" style="fill:none;stroke:#000000;stroke-linecap:square;stroke-linejoin:miter;stroke-width:0.8;"/>
   </g>
   <g id="patch_5">
    <path d="M 43.803125 106.47013 
L 557.203125 106.47013 
" style="fill:none;stroke:#000000;stroke-linecap:square;stroke-linejoin:miter;stroke-width:0.8;"/>
   </g>
   <g id="patch_6">
    <path d="M 43.803125 21.02987 
L 557.203125 21.02987 
" style="fill:none;stroke:#000000;stroke-linecap:square;stroke-linejoin:miter;stroke-width:0.8;"/>
   </g>
  </g>
  <g id="axes_2">
   <g id="patch_7">
    <path d="M 43.803125 230.292545 
L 557.203125 230.292545 
L 557.203125 144.852285 
L 43.803125 144.852285 
z
" style="fill:#ffffff;"/>
   </g>
   <g id="matplotlib.axis_3">
    <g id="xtick_6">
     <g id="line2d_11">
      <g>
       <use style="stroke:#000000;stroke-width:0.8;" x="67.139489" xlink:href="#m2358608ee2" y="230.292545"/>
      </g>
     </g>
    </g>
    <g id="xtick_7">
     <g id="line2d_12">
      <g>
       <use style="stroke:#000000;stroke-width:0.8;" x="167.04412" xlink:href="#m2358608ee2" y="230.292545"/>
      </g>
     </g>
    </g>
    <g id="xtick_8">
     <g id="line2d_13">
      <g>
       <use style="stroke:#000000;stroke-width:0.8;" x="266.948752" xlink:href="#m2358608ee2" y="230.292545"/>
      </g>
     </g>
    </g>
    <g id="xtick_9">
     <g id="line2d_14">
      <g>
       <use style="stroke:#000000;stroke-width:0.8;" x="366.853384" xlink:href="#m2358608ee2" y="230.292545"/>
      </g>
     </g>
    </g>
    <g id="xtick_10">
     <g id="line2d_15">
      <g>
       <use style="stroke:#000000;stroke-width:0.8;" x="466.758016" xlink:href="#m2358608ee2" y="230.292545"/>
      </g>
     </g>
    </g>
   </g>
   <g id="matplotlib.axis_4">
    <g id="ytick_4">
     <g id="line2d_16">
      <g>
       <use style="stroke:#000000;stroke-width:0.8;" x="43.803125" xlink:href="#m0776241ade" y="227.993686"/>
      </g>
     </g>
     <g id="text_5">
      <!-- −2 -->
      <defs>
       <path d="M 10.59375 35.5 
L 73.1875 35.5 
L 73.1875 27.203125 
L 10.59375 27.203125 
z
" id="DejaVuSans-8722"/>
       <path d="M 19.1875 8.296875 
L 53.609375 8.296875 
L 53.609375 0 
L 7.328125 0 
L 7.328125 8.296875 
Q 12.9375 14.109375 22.625 23.890625 
Q 32.328125 33.6875 34.8125 36.53125 
Q 39.546875 41.84375 41.421875 45.53125 
Q 43.3125 49.21875 43.3125 52.78125 
Q 43.3125 58.59375 39.234375 62.25 
Q 35.15625 65.921875 28.609375 65.921875 
Q 23.96875 65.921875 18.8125 64.3125 
Q 13.671875 62.703125 7.8125 59.421875 
L 7.8125 69.390625 
Q 13.765625 71.78125 18.9375 73 
Q 24.125 74.21875 28.421875 74.21875 
Q 39.75 74.21875 46.484375 68.546875 
Q 53.21875 62.890625 53.21875 53.421875 
Q 53.21875 48.921875 51.53125 44.890625 
Q 49.859375 40.875 45.40625 35.40625 
Q 44.1875 33.984375 37.640625 27.21875 
Q 31.109375 20.453125 19.1875 8.296875 
z
" id="DejaVuSans-50"/>
      </defs>
      <g transform="translate(22.060938 231.792905)scale(0.1 -0.1)">
       <use xlink:href="#DejaVuSans-8722"/>
       <use x="83.789062" xlink:href="#DejaVuSans-50"/>
      </g>
     </g>
    </g>
    <g id="ytick_5">
     <g id="line2d_17">
      <g>
       <use style="stroke:#000000;stroke-width:0.8;" x="43.803125" xlink:href="#m0776241ade" y="200.377737"/>
      </g>
     </g>
     <g id="text_6">
      <!-- 0 -->
      <g transform="translate(30.440625 204.176956)scale(0.1 -0.1)">
       <use xlink:href="#DejaVuSans-48"/>
      </g>
     </g>
    </g>
    <g id="ytick_6">
     <g id="line2d_18">
      <g>
       <use style="stroke:#000000;stroke-width:0.8;" x="43.803125" xlink:href="#m0776241ade" y="172.761789"/>
      </g>
     </g>
     <g id="text_7">
      <!-- 2 -->
      <g transform="translate(30.440625 176.561008)scale(0.1 -0.1)">
       <use xlink:href="#DejaVuSans-50"/>
      </g>
     </g>
    </g>
    <g id="ytick_7">
     <g id="line2d_19">
      <g>
       <use style="stroke:#000000;stroke-width:0.8;" x="43.803125" xlink:href="#m0776241ade" y="145.14584"/>
      </g>
     </g>
     <g id="text_8">
      <!-- 4 -->
      <defs>
       <path d="M 37.796875 64.3125 
L 12.890625 25.390625 
L 37.796875 25.390625 
z
M 35.203125 72.90625 
L 47.609375 72.90625 
L 47.609375 25.390625 
L 58.015625 25.390625 
L 58.015625 17.1875 
L 47.609375 17.1875 
L 47.609375 0 
L 37.796875 0 
L 37.796875 17.1875 
L 4.890625 17.1875 
L 4.890625 26.703125 
z
" id="DejaVuSans-52"/>
      </defs>
      <g transform="translate(30.440625 148.945059)scale(0.1 -0.1)">
       <use xlink:href="#DejaVuSans-52"/>
      </g>
     </g>
    </g>
    <g id="text_9">
     <!-- Reliability factor $\beta$ -->
     <defs>
      <path d="M 44.390625 34.1875 
Q 47.5625 33.109375 50.5625 29.59375 
Q 53.5625 26.078125 56.59375 19.921875 
L 66.609375 0 
L 56 0 
L 46.6875 18.703125 
Q 43.0625 26.03125 39.671875 28.421875 
Q 36.28125 30.8125 30.421875 30.8125 
L 19.671875 30.8125 
L 19.671875 0 
L 9.8125 0 
L 9.8125 72.90625 
L 32.078125 72.90625 
Q 44.578125 72.90625 50.734375 67.671875 
Q 56.890625 62.453125 56.890625 51.90625 
Q 56.890625 45.015625 53.6875 40.46875 
Q 50.484375 35.9375 44.390625 34.1875 
z
M 19.671875 64.796875 
L 19.671875 38.921875 
L 32.078125 38.921875 
Q 39.203125 38.921875 42.84375 42.21875 
Q 46.484375 45.515625 46.484375 51.90625 
Q 46.484375 58.296875 42.84375 61.546875 
Q 39.203125 64.796875 32.078125 64.796875 
z
" id="DejaVuSans-82"/>
      <path d="M 48.78125 52.59375 
L 48.78125 44.1875 
Q 44.96875 46.296875 41.140625 47.34375 
Q 37.3125 48.390625 33.40625 48.390625 
Q 24.65625 48.390625 19.8125 42.84375 
Q 14.984375 37.3125 14.984375 27.296875 
Q 14.984375 17.28125 19.8125 11.734375 
Q 24.65625 6.203125 33.40625 6.203125 
Q 37.3125 6.203125 41.140625 7.25 
Q 44.96875 8.296875 48.78125 10.40625 
L 48.78125 2.09375 
Q 45.015625 0.34375 40.984375 -0.53125 
Q 36.96875 -1.421875 32.421875 -1.421875 
Q 20.0625 -1.421875 12.78125 6.34375 
Q 5.515625 14.109375 5.515625 27.296875 
Q 5.515625 40.671875 12.859375 48.328125 
Q 20.21875 56 33.015625 56 
Q 37.15625 56 41.109375 55.140625 
Q 45.0625 54.296875 48.78125 52.59375 
z
" id="DejaVuSans-99"/>
      <path d="M 13.625 3.375 
L 8.9375 -20.796875 
L -0.09375 -20.796875 
L 14.5 54.34375 
Q 18.84375 76.609375 39.65625 76.609375 
Q 60.75 76.609375 57.171875 57.8125 
Q 54.734375 44.4375 45.21875 39.546875 
Q 58.015625 35.15625 55.515625 22.125 
Q 51.125 -1.078125 27.484375 -1.03125 
Q 17.140625 -0.984375 13.625 3.375 
z
M 15.921875 15.09375 
Q 19.671875 6.59375 29.296875 6.640625 
Q 43.359375 6.640625 46.34375 21.96875 
Q 49.03125 35.75 26.171875 34.671875 
L 27.78125 42.96875 
Q 45.453125 42.671875 48.53125 58.59375 
Q 50.640625 69.34375 39.203125 69.28125 
Q 26.421875 69.28125 23.484375 54.046875 
z
" id="DejaVuSans-Oblique-946"/>
     </defs>
     <g transform="translate(15.960938 233.272415)rotate(-90)scale(0.1 -0.1)">
      <use transform="translate(0 0.390625)" xlink:href="#DejaVuSans-82"/>
      <use transform="translate(69.482422 0.390625)" xlink:href="#DejaVuSans-101"/>
      <use transform="translate(131.005859 0.390625)" xlink:href="#DejaVuSans-108"/>
      <use transform="translate(158.789062 0.390625)" xlink:href="#DejaVuSans-105"/>
      <use transform="translate(186.572266 0.390625)" xlink:href="#DejaVuSans-97"/>
      <use transform="translate(247.851562 0.390625)" xlink:href="#DejaVuSans-98"/>
      <use transform="translate(311.328125 0.390625)" xlink:href="#DejaVuSans-105"/>
      <use transform="translate(339.111328 0.390625)" xlink:href="#DejaVuSans-108"/>
      <use transform="translate(366.894531 0.390625)" xlink:href="#DejaVuSans-105"/>
      <use transform="translate(394.677734 0.390625)" xlink:href="#DejaVuSans-116"/>
      <use transform="translate(433.886719 0.390625)" xlink:href="#DejaVuSans-121"/>
      <use transform="translate(493.066406 0.390625)" xlink:href="#DejaVuSans-32"/>
      <use transform="translate(524.853516 0.390625)" xlink:href="#DejaVuSans-102"/>
      <use transform="translate(560.058594 0.390625)" xlink:href="#DejaVuSans-97"/>
      <use transform="translate(621.337891 0.390625)" xlink:href="#DejaVuSans-99"/>
      <use transform="translate(676.318359 0.390625)" xlink:href="#DejaVuSans-116"/>
      <use transform="translate(715.527344 0.390625)" xlink:href="#DejaVuSans-111"/>
      <use transform="translate(776.708984 0.390625)" xlink:href="#DejaVuSans-114"/>
      <use transform="translate(817.822266 0.390625)" xlink:href="#DejaVuSans-32"/>
      <use transform="translate(849.609375 0.390625)" xlink:href="#DejaVuSans-Oblique-946"/>
     </g>
    </g>
   </g>
   <g id="line2d_20">
    <path clip-path="url(#pcb69d8e47b)" d="M 67.139489 148.735933 
L 87.120415 152.683746 
L 107.101341 156.511548 
L 127.082268 160.417873 
L 147.063194 164.390488 
L 167.04412 168.317009 
L 187.025047 171.995116 
L 207.005973 176.006504 
L 226.986899 179.869562 
L 246.967826 183.79329 
L 266.948752 187.443505 
L 286.929679 191.539592 
L 306.910605 195.40215 
L 326.891531 199.22429 
L 346.872458 203.144962 
L 366.853384 207.044294 
L 386.83431 210.857606 
L 406.815237 214.823215 
L 426.796163 218.619589 
L 446.777089 222.503168 
L 466.758016 226.408897 
" style="fill:none;stroke:#000000;stroke-dasharray:5.55,2.4;stroke-dashoffset:0;stroke-width:1.5;"/>
   </g>
   <g id="line2d_21">
    <g clip-path="url(#pcb69d8e47b)">
     <use style="stroke:#000000;" x="147.063194" xlink:href="#ma748372374" y="164.390488"/>
     <use style="stroke:#000000;" x="226.986899" xlink:href="#ma748372374" y="179.869562"/>
     <use style="stroke:#000000;" x="306.910605" xlink:href="#ma748372374" y="195.40215"/>
     <use style="stroke:#000000;" x="386.83431" xlink:href="#ma748372374" y="210.857606"/>
     <use style="stroke:#000000;" x="466.758016" xlink:href="#ma748372374" y="226.408897"/>
    </g>
   </g>
   <g id="patch_8">
    <path d="M 43.803125 230.292545 
L 43.803125 144.852285 
" style="fill:none;stroke:#000000;stroke-linecap:square;stroke-linejoin:miter;stroke-width:0.8;"/>
   </g>
   <g id="patch_9">
    <path d="M 557.203125 230.292545 
L 557.203125 144.852285 
" style="fill:none;stroke:#000000;stroke-linecap:square;stroke-linejoin:miter;stroke-width:0.8;"/>
   </g>
   <g id="patch_10">
    <path d="M 43.803125 230.292545 
L 557.203125 230.292545 
" style="fill:none;stroke:#000000;stroke-linecap:square;stroke-linejoin:miter;stroke-width:0.8;"/>
   </g>
   <g id="patch_11">
    <path d="M 43.803125 144.852285 
L 557.203125 144.852285 
" style="fill:none;stroke:#000000;stroke-linecap:square;stroke-linejoin:miter;stroke-width:0.8;"/>
   </g>
  </g>
  <g id="axes_3">
   <g id="patch_12">
    <path d="M 43.803125 524.995482 
L 557.203125 524.995482 
L 557.203125 268.6747 
L 43.803125 268.6747 
z
" style="fill:#ffffff;"/>
   </g>
   <g id="PolyCollection_1">
    <defs>
     <path d="M 147.067743 -49.207195 
L 147.063194 -49.207195 
L 147.063194 -51.463534 
L 147.063194 -53.719873 
L 147.063194 -55.976212 
L 147.063194 -58.23255 
L 147.063194 -60.488889 
L 147.063194 -62.745228 
L 147.063194 -65.001567 
L 147.063194 -67.257906 
L 147.063194 -69.514245 
L 147.063194 -71.770584 
L 147.063194 -74.026923 
L 147.063194 -76.283262 
L 147.063194 -78.539601 
L 147.063194 -80.79594 
L 147.063194 -83.052279 
L 147.063194 -85.308618 
L 147.063194 -87.564957 
L 147.063194 -89.821296 
L 147.063194 -92.077635 
L 147.063194 -94.333974 
L 147.063194 -96.590313 
L 147.063194 -98.846652 
L 147.063194 -101.102991 
L 147.063194 -103.35933 
L 147.063194 -105.615669 
L 147.063194 -107.872008 
L 147.063194 -110.128347 
L 147.063194 -112.384686 
L 147.063194 -114.641024 
L 147.063194 -116.897363 
L 147.063194 -119.153702 
L 147.063194 -121.410041 
L 147.063194 -123.66638 
L 147.063194 -125.922719 
L 147.063194 -128.179058 
L 147.063194 -130.435397 
L 147.063194 -132.691736 
L 147.063194 -134.948075 
L 147.063194 -137.204414 
L 147.063194 -139.460753 
L 147.063194 -141.717092 
L 147.063194 -143.973431 
L 147.063194 -146.22977 
L 147.063194 -148.486109 
L 147.063194 -150.742448 
L 147.063194 -152.998787 
L 147.063194 -155.255126 
L 147.063194 -157.511465 
L 147.063194 -159.767804 
L 147.063194 -162.024143 
L 147.063194 -164.280482 
L 147.063194 -166.536821 
L 147.063194 -168.793159 
L 147.063194 -171.049498 
L 147.063194 -173.305837 
L 147.063194 -175.562176 
L 147.063194 -177.818515 
L 147.063194 -180.074854 
L 147.063194 -182.331193 
L 147.063194 -184.587532 
L 147.063194 -186.843871 
L 147.063194 -189.10021 
L 147.063194 -191.356549 
L 147.063194 -193.612888 
L 147.063194 -195.869227 
L 147.063194 -198.125566 
L 147.063194 -200.381905 
L 147.063194 -202.638244 
L 147.063194 -204.894583 
L 147.063194 -207.150922 
L 147.063194 -209.407261 
L 147.063194 -211.6636 
L 147.063194 -213.919939 
L 147.063194 -216.176278 
L 147.063194 -218.432617 
L 147.063194 -220.688956 
L 147.063194 -222.945294 
L 147.063194 -225.201633 
L 147.063194 -227.457972 
L 147.063194 -229.714311 
L 147.063194 -231.97065 
L 147.063194 -234.226989 
L 147.063194 -236.483328 
L 147.063194 -238.739667 
L 147.063194 -240.996006 
L 147.063194 -243.252345 
L 147.063194 -245.508684 
L 147.063194 -247.765023 
L 147.063194 -250.021362 
L 147.063194 -252.277701 
L 147.063194 -254.53404 
L 147.063194 -256.790379 
L 147.063194 -259.046718 
L 147.063194 -261.303057 
L 147.063194 -263.559396 
L 147.063194 -265.815735 
L 147.063194 -268.072074 
L 147.063194 -270.328413 
L 147.063194 -272.584752 
L 147.069714 -272.584752 
L 147.069714 -272.584752 
L 147.072663 -270.328413 
L 147.076839 -268.072074 
L 147.082706 -265.815735 
L 147.090883 -263.559396 
L 147.102185 -261.303057 
L 147.11768 -259.046718 
L 147.13875 -256.790379 
L 147.167166 -254.53404 
L 147.205173 -252.277701 
L 147.255588 -250.021362 
L 147.321909 -247.765023 
L 147.408427 -245.508684 
L 147.52035 -243.252345 
L 147.663923 -240.996006 
L 147.84654 -238.739667 
L 148.076848 -236.483328 
L 148.364824 -234.226989 
L 148.721812 -231.97065 
L 149.160523 -229.714311 
L 149.694966 -227.457972 
L 150.340304 -225.201633 
L 151.112636 -222.945294 
L 152.028667 -220.688956 
L 153.105287 -218.432617 
L 154.359037 -216.176278 
L 155.805477 -213.919939 
L 157.458458 -211.6636 
L 159.329323 -209.407261 
L 161.426051 -207.150922 
L 163.75239 -204.894583 
L 166.307016 -202.638244 
L 169.08275 -200.381905 
L 172.065904 -198.125566 
L 175.235792 -195.869227 
L 178.564462 -193.612888 
L 182.016679 -191.356549 
L 185.550209 -189.10021 
L 189.116417 -186.843871 
L 192.661178 -184.587532 
L 196.126105 -182.331193 
L 199.450044 -180.074854 
L 202.570809 -177.818515 
L 205.427074 -175.562176 
L 207.960355 -173.305837 
L 210.116991 -171.049498 
L 211.850027 -168.793159 
L 213.120911 -166.536821 
L 213.900922 -164.280482 
L 214.172246 -162.024143 
L 213.928654 -159.767804 
L 213.175739 -157.511465 
L 211.930703 -155.255126 
L 210.221703 -152.998787 
L 208.086794 -150.742448 
L 205.572519 -148.486109 
L 202.732224 -146.22977 
L 199.624183 -143.973431 
L 196.309619 -141.717092 
L 192.850722 -139.460753 
L 189.308747 -137.204414 
L 185.74227 -134.948075 
L 182.205682 -132.691736 
L 178.747939 -130.435397 
L 175.411639 -128.179058 
L 172.232403 -125.922719 
L 169.23858 -123.66638 
L 166.451244 -121.410041 
L 163.884448 -119.153702 
L 161.545707 -116.897363 
L 159.436643 -114.641024 
L 157.553761 -112.384686 
L 155.889285 -110.128347 
L 154.432035 -107.872008 
L 153.168273 -105.615669 
L 152.082512 -103.35933 
L 151.158246 -101.102991 
L 150.37859 -98.846652 
L 149.726817 -96.590313 
L 149.186787 -94.333974 
L 148.743279 -92.077635 
L 148.382217 -89.821296 
L 148.09082 -87.564957 
L 147.857666 -85.308618 
L 147.672708 -83.052279 
L 147.527229 -80.79594 
L 147.413767 -78.539601 
L 147.326019 -76.283262 
L 147.258726 -74.026923 
L 147.207548 -71.770584 
L 147.168949 -69.514245 
L 147.140078 -67.257906 
L 147.118661 -65.001567 
L 147.102903 -62.745228 
L 147.091404 -60.488889 
L 147.083082 -58.23255 
L 147.077107 -55.976212 
L 147.072853 -53.719873 
L 147.069848 -51.463534 
L 147.067743 -49.207195 
z
" id="mcdfeff5ab4" style="stroke:#1f77b4;stroke-opacity:0.5;"/>
    </defs>
    <g clip-path="url(#p73518b95dc)">
     <use style="fill:#1f77b4;fill-opacity:0.5;stroke:#1f77b4;stroke-opacity:0.5;" x="0" xlink:href="#mcdfeff5ab4" y="562.551732"/>
    </g>
   </g>
   <g id="PolyCollection_2">
    <defs>
     <path d="M 226.991652 -49.464799 
L 226.986899 -49.464799 
L 226.986899 -51.763517 
L 226.986899 -54.062235 
L 226.986899 -56.360952 
L 226.986899 -58.65967 
L 226.986899 -60.958388 
L 226.986899 -63.257105 
L 226.986899 -65.555823 
L 226.986899 -67.854541 
L 226.986899 -70.153258 
L 226.986899 -72.451976 
L 226.986899 -74.750694 
L 226.986899 -77.049411 
L 226.986899 -79.348129 
L 226.986899 -81.646846 
L 226.986899 -83.945564 
L 226.986899 -86.244282 
L 226.986899 -88.542999 
L 226.986899 -90.841717 
L 226.986899 -93.140435 
L 226.986899 -95.439152 
L 226.986899 -97.73787 
L 226.986899 -100.036588 
L 226.986899 -102.335305 
L 226.986899 -104.634023 
L 226.986899 -106.932741 
L 226.986899 -109.231458 
L 226.986899 -111.530176 
L 226.986899 -113.828894 
L 226.986899 -116.127611 
L 226.986899 -118.426329 
L 226.986899 -120.725046 
L 226.986899 -123.023764 
L 226.986899 -125.322482 
L 226.986899 -127.621199 
L 226.986899 -129.919917 
L 226.986899 -132.218635 
L 226.986899 -134.517352 
L 226.986899 -136.81607 
L 226.986899 -139.114788 
L 226.986899 -141.413505 
L 226.986899 -143.712223 
L 226.986899 -146.010941 
L 226.986899 -148.309658 
L 226.986899 -150.608376 
L 226.986899 -152.907094 
L 226.986899 -155.205811 
L 226.986899 -157.504529 
L 226.986899 -159.803246 
L 226.986899 -162.101964 
L 226.986899 -164.400682 
L 226.986899 -166.699399 
L 226.986899 -168.998117 
L 226.986899 -171.296835 
L 226.986899 -173.595552 
L 226.986899 -175.89427 
L 226.986899 -178.192988 
L 226.986899 -180.491705 
L 226.986899 -182.790423 
L 226.986899 -185.089141 
L 226.986899 -187.387858 
L 226.986899 -189.686576 
L 226.986899 -191.985294 
L 226.986899 -194.284011 
L 226.986899 -196.582729 
L 226.986899 -198.881446 
L 226.986899 -201.180164 
L 226.986899 -203.478882 
L 226.986899 -205.777599 
L 226.986899 -208.076317 
L 226.986899 -210.375035 
L 226.986899 -212.673752 
L 226.986899 -214.97247 
L 226.986899 -217.271188 
L 226.986899 -219.569905 
L 226.986899 -221.868623 
L 226.986899 -224.167341 
L 226.986899 -226.466058 
L 226.986899 -228.764776 
L 226.986899 -231.063494 
L 226.986899 -233.362211 
L 226.986899 -235.660929 
L 226.986899 -237.959647 
L 226.986899 -240.258364 
L 226.986899 -242.557082 
L 226.986899 -244.855799 
L 226.986899 -247.154517 
L 226.986899 -249.453235 
L 226.986899 -251.751952 
L 226.986899 -254.05067 
L 226.986899 -256.349388 
L 226.986899 -258.648105 
L 226.986899 -260.946823 
L 226.986899 -263.245541 
L 226.986899 -265.544258 
L 226.986899 -267.842976 
L 226.986899 -270.141694 
L 226.986899 -272.440411 
L 226.986899 -274.739129 
L 226.986899 -277.037847 
L 226.989952 -277.037847 
L 226.989952 -277.037847 
L 226.991433 -274.739129 
L 226.993579 -272.440411 
L 226.996662 -270.141694 
L 227.001054 -267.842976 
L 227.007259 -265.544258 
L 227.015952 -263.245541 
L 227.028027 -260.946823 
L 227.044657 -258.648105 
L 227.067369 -256.349388 
L 227.09812 -254.05067 
L 227.1394 -251.751952 
L 227.19434 -249.453235 
L 227.266831 -247.154517 
L 227.361651 -244.855799 
L 227.484602 -242.557082 
L 227.642639 -240.258364 
L 227.843992 -237.959647 
L 228.098269 -235.660929 
L 228.416531 -233.362211 
L 228.811318 -231.063494 
L 229.296621 -228.764776 
L 229.887777 -226.466058 
L 230.601279 -224.167341 
L 231.454486 -221.868623 
L 232.465213 -219.569905 
L 233.651214 -217.271188 
L 235.029542 -214.97247 
L 236.615803 -212.673752 
L 238.423305 -210.375035 
L 240.462155 -208.076317 
L 242.738301 -205.777599 
L 245.252589 -203.478882 
L 247.999881 -201.180164 
L 250.968269 -198.881446 
L 254.138474 -196.582729 
L 257.483452 -194.284011 
L 260.968295 -191.985294 
L 264.550427 -189.686576 
L 268.180168 -187.387858 
L 271.801635 -185.089141 
L 275.354011 -182.790423 
L 278.773114 -180.491705 
L 281.993259 -178.192988 
L 284.949298 -175.89427 
L 287.578791 -173.595552 
L 289.82418 -171.296835 
L 291.634881 -168.998117 
L 292.969172 -166.699399 
L 293.795794 -164.400682 
L 294.095165 -162.101964 
L 293.860153 -159.803246 
L 293.096359 -157.504529 
L 291.821894 -155.205811 
L 290.066663 -152.907094 
L 287.871205 -150.608376 
L 285.285129 -148.309658 
L 282.365259 -146.010941 
L 279.173562 -143.712223 
L 275.774973 -141.413505 
L 272.235227 -139.114788 
L 268.618788 -136.81607 
L 264.98697 -134.517352 
L 261.396323 -132.218635 
L 257.897335 -129.919917 
L 254.533471 -127.621199 
L 251.340585 -125.322482 
L 248.346668 -123.023764 
L 245.571923 -120.725046 
L 243.029117 -118.426329 
L 240.724168 -116.127611 
L 238.656906 -113.828894 
L 236.821949 -111.530176 
L 235.209642 -109.231458 
L 233.807012 -106.932741 
L 232.598685 -104.634023 
L 231.567742 -102.335305 
L 230.696476 -100.036588 
L 229.967049 -97.73787 
L 229.362025 -95.439152 
L 228.864787 -93.140435 
L 228.459848 -90.841717 
L 228.133046 -88.542999 
L 227.871663 -86.244282 
L 227.664462 -83.945564 
L 227.501661 -81.646846 
L 227.374869 -79.348129 
L 227.276983 -77.049411 
L 227.202071 -74.750694 
L 227.145236 -72.451976 
L 227.102487 -70.153258 
L 227.070609 -67.854541 
L 227.047041 -65.555823 
L 227.029765 -63.257105 
L 227.017209 -60.958388 
L 227.00816 -58.65967 
L 227.001695 -56.360952 
L 226.997113 -54.062235 
L 226.993895 -51.763517 
L 226.991652 -49.464799 
z
" id="mdafde1fea0" style="stroke:#1f77b4;stroke-opacity:0.5;"/>
    </defs>
    <g clip-path="url(#p73518b95dc)">
     <use style="fill:#1f77b4;fill-opacity:0.5;stroke:#1f77b4;stroke-opacity:0.5;" x="0" xlink:href="#mdafde1fea0" y="562.551732"/>
    </g>
   </g>
   <g id="PolyCollection_3">
    <defs>
     <path d="M 306.92021 -53.685541 
L 306.910605 -53.685541 
L 306.910605 -55.994032 
L 306.910605 -58.302522 
L 306.910605 -60.611012 
L 306.910605 -62.919503 
L 306.910605 -65.227993 
L 306.910605 -67.536483 
L 306.910605 -69.844974 
L 306.910605 -72.153464 
L 306.910605 -74.461955 
L 306.910605 -76.770445 
L 306.910605 -79.078935 
L 306.910605 -81.387426 
L 306.910605 -83.695916 
L 306.910605 -86.004406 
L 306.910605 -88.312897 
L 306.910605 -90.621387 
L 306.910605 -92.929877 
L 306.910605 -95.238368 
L 306.910605 -97.546858 
L 306.910605 -99.855349 
L 306.910605 -102.163839 
L 306.910605 -104.472329 
L 306.910605 -106.78082 
L 306.910605 -109.08931 
L 306.910605 -111.3978 
L 306.910605 -113.706291 
L 306.910605 -116.014781 
L 306.910605 -118.323272 
L 306.910605 -120.631762 
L 306.910605 -122.940252 
L 306.910605 -125.248743 
L 306.910605 -127.557233 
L 306.910605 -129.865723 
L 306.910605 -132.174214 
L 306.910605 -134.482704 
L 306.910605 -136.791194 
L 306.910605 -139.099685 
L 306.910605 -141.408175 
L 306.910605 -143.716666 
L 306.910605 -146.025156 
L 306.910605 -148.333646 
L 306.910605 -150.642137 
L 306.910605 -152.950627 
L 306.910605 -155.259117 
L 306.910605 -157.567608 
L 306.910605 -159.876098 
L 306.910605 -162.184589 
L 306.910605 -164.493079 
L 306.910605 -166.801569 
L 306.910605 -169.11006 
L 306.910605 -171.41855 
L 306.910605 -173.72704 
L 306.910605 -176.035531 
L 306.910605 -178.344021 
L 306.910605 -180.652511 
L 306.910605 -182.961002 
L 306.910605 -185.269492 
L 306.910605 -187.577983 
L 306.910605 -189.886473 
L 306.910605 -192.194963 
L 306.910605 -194.503454 
L 306.910605 -196.811944 
L 306.910605 -199.120434 
L 306.910605 -201.428925 
L 306.910605 -203.737415 
L 306.910605 -206.045906 
L 306.910605 -208.354396 
L 306.910605 -210.662886 
L 306.910605 -212.971377 
L 306.910605 -215.279867 
L 306.910605 -217.588357 
L 306.910605 -219.896848 
L 306.910605 -222.205338 
L 306.910605 -224.513829 
L 306.910605 -226.822319 
L 306.910605 -229.130809 
L 306.910605 -231.4393 
L 306.910605 -233.74779 
L 306.910605 -236.05628 
L 306.910605 -238.364771 
L 306.910605 -240.673261 
L 306.910605 -242.981751 
L 306.910605 -245.290242 
L 306.910605 -247.598732 
L 306.910605 -249.907223 
L 306.910605 -252.215713 
L 306.910605 -254.524203 
L 306.910605 -256.832694 
L 306.910605 -259.141184 
L 306.910605 -261.449674 
L 306.910605 -263.758165 
L 306.910605 -266.066655 
L 306.910605 -268.375146 
L 306.910605 -270.683636 
L 306.910605 -272.992126 
L 306.910605 -275.300617 
L 306.910605 -277.609107 
L 306.910605 -279.917597 
L 306.910605 -282.226088 
L 306.911819 -282.226088 
L 306.911819 -282.226088 
L 306.912444 -279.917597 
L 306.913369 -277.609107 
L 306.914724 -275.300617 
L 306.916695 -272.992126 
L 306.919538 -270.683636 
L 306.923602 -268.375146 
L 306.929363 -266.066655 
L 306.937461 -263.758165 
L 306.948747 -261.449674 
L 306.964341 -259.141184 
L 306.985705 -256.832694 
L 307.01472 -254.524203 
L 307.053789 -252.215713 
L 307.105939 -249.907223 
L 307.174949 -247.598732 
L 307.265471 -245.290242 
L 307.383175 -242.981751 
L 307.534874 -240.673261 
L 307.728661 -238.364771 
L 307.974013 -236.05628 
L 308.28187 -233.74779 
L 308.664681 -231.4393 
L 309.136376 -229.130809 
L 309.712279 -226.822319 
L 310.40893 -224.513829 
L 311.243795 -222.205338 
L 312.234881 -219.896848 
L 313.400214 -217.588357 
L 314.757209 -215.279867 
L 316.321915 -212.971377 
L 318.108171 -210.662886 
L 320.126676 -208.354396 
L 322.384024 -206.045906 
L 324.881736 -203.737415 
L 327.615341 -201.428925 
L 330.573571 -199.120434 
L 333.737713 -196.811944 
L 337.081188 -194.503454 
L 340.569414 -192.194963 
L 344.159979 -189.886473 
L 347.803174 -187.577983 
L 351.442892 -185.269492 
L 355.017883 -182.961002 
L 358.463345 -180.652511 
L 361.712795 -178.344021 
L 364.700149 -176.035531 
L 367.361926 -173.72704 
L 369.639483 -171.41855 
L 371.481146 -169.11006 
L 372.844163 -166.801569 
L 373.696353 -164.493079 
L 374.017363 -162.184589 
L 373.799483 -159.876098 
L 373.047949 -157.567608 
L 371.780735 -155.259117 
L 370.027842 -152.950627 
L 367.830112 -150.642137 
L 365.237648 -148.333646 
L 362.307922 -146.025156 
L 359.103656 -143.716666 
L 355.690609 -141.408175 
L 352.135353 -139.099685 
L 348.503167 -136.791194 
L 344.856113 -134.482704 
L 341.251393 -132.174214 
L 337.740024 -129.865723 
L 334.365867 -127.557233 
L 331.165033 -125.248743 
L 328.165633 -122.940252 
L 325.387862 -120.631762 
L 322.844373 -118.323272 
L 320.540882 -116.014781 
L 318.476948 -113.706291 
L 316.646876 -111.3978 
L 315.040677 -109.08931 
L 313.645042 -106.78082 
L 312.444277 -104.472329 
L 311.421168 -102.163839 
L 310.557752 -99.855349 
L 309.835976 -97.546858 
L 309.238234 -95.238368 
L 308.747786 -92.929877 
L 308.349056 -90.621387 
L 308.027837 -88.312897 
L 307.771395 -86.004406 
L 307.568499 -83.695916 
L 307.409397 -81.387426 
L 307.285741 -79.078935 
L 307.19048 -76.770445 
L 307.117735 -74.461955 
L 307.062669 -72.153464 
L 307.021348 -69.844974 
L 306.990609 -67.536483 
L 306.967939 -65.227993 
L 306.951363 -62.919503 
L 306.939348 -60.611012 
L 306.930712 -58.302522 
L 306.924558 -55.994032 
L 306.92021 -53.685541 
z
" id="m157d0fc5c7" style="stroke:#1f77b4;stroke-opacity:0.5;"/>
    </defs>
    <g clip-path="url(#p73518b95dc)">
     <use style="fill:#1f77b4;fill-opacity:0.5;stroke:#1f77b4;stroke-opacity:0.5;" x="0" xlink:href="#m157d0fc5c7" y="562.551732"/>
    </g>
   </g>
   <g id="PolyCollection_4">
    <defs>
     <path d="M 386.852238 -57.572326 
L 386.83431 -57.572326 
L 386.83431 -59.712883 
L 386.83431 -61.853439 
L 386.83431 -63.993995 
L 386.83431 -66.134551 
L 386.83431 -68.275107 
L 386.83431 -70.415663 
L 386.83431 -72.556219 
L 386.83431 -74.696775 
L 386.83431 -76.837331 
L 386.83431 -78.977887 
L 386.83431 -81.118444 
L 386.83431 -83.259 
L 386.83431 -85.399556 
L 386.83431 -87.540112 
L 386.83431 -89.680668 
L 386.83431 -91.821224 
L 386.83431 -93.96178 
L 386.83431 -96.102336 
L 386.83431 -98.242892 
L 386.83431 -100.383448 
L 386.83431 -102.524004 
L 386.83431 -104.664561 
L 386.83431 -106.805117 
L 386.83431 -108.945673 
L 386.83431 -111.086229 
L 386.83431 -113.226785 
L 386.83431 -115.367341 
L 386.83431 -117.507897 
L 386.83431 -119.648453 
L 386.83431 -121.789009 
L 386.83431 -123.929565 
L 386.83431 -126.070122 
L 386.83431 -128.210678 
L 386.83431 -130.351234 
L 386.83431 -132.49179 
L 386.83431 -134.632346 
L 386.83431 -136.772902 
L 386.83431 -138.913458 
L 386.83431 -141.054014 
L 386.83431 -143.19457 
L 386.83431 -145.335126 
L 386.83431 -147.475682 
L 386.83431 -149.616239 
L 386.83431 -151.756795 
L 386.83431 -153.897351 
L 386.83431 -156.037907 
L 386.83431 -158.178463 
L 386.83431 -160.319019 
L 386.83431 -162.459575 
L 386.83431 -164.600131 
L 386.83431 -166.740687 
L 386.83431 -168.881243 
L 386.83431 -171.0218 
L 386.83431 -173.162356 
L 386.83431 -175.302912 
L 386.83431 -177.443468 
L 386.83431 -179.584024 
L 386.83431 -181.72458 
L 386.83431 -183.865136 
L 386.83431 -186.005692 
L 386.83431 -188.146248 
L 386.83431 -190.286804 
L 386.83431 -192.42736 
L 386.83431 -194.567917 
L 386.83431 -196.708473 
L 386.83431 -198.849029 
L 386.83431 -200.989585 
L 386.83431 -203.130141 
L 386.83431 -205.270697 
L 386.83431 -207.411253 
L 386.83431 -209.551809 
L 386.83431 -211.692365 
L 386.83431 -213.832921 
L 386.83431 -215.973478 
L 386.83431 -218.114034 
L 386.83431 -220.25459 
L 386.83431 -222.395146 
L 386.83431 -224.535702 
L 386.83431 -226.676258 
L 386.83431 -228.816814 
L 386.83431 -230.95737 
L 386.83431 -233.097926 
L 386.83431 -235.238482 
L 386.83431 -237.379038 
L 386.83431 -239.519595 
L 386.83431 -241.660151 
L 386.83431 -243.800707 
L 386.83431 -245.941263 
L 386.83431 -248.081819 
L 386.83431 -250.222375 
L 386.83431 -252.362931 
L 386.83431 -254.503487 
L 386.83431 -256.644043 
L 386.83431 -258.784599 
L 386.83431 -260.925156 
L 386.83431 -263.065712 
L 386.83431 -265.206268 
L 386.83431 -267.346824 
L 386.83431 -269.48738 
L 386.84517 -269.48738 
L 386.84517 -269.48738 
L 386.84963 -267.346824 
L 386.855773 -265.206268 
L 386.864172 -263.065712 
L 386.875571 -260.925156 
L 386.890928 -258.784599 
L 386.911465 -256.644043 
L 386.938727 -254.503487 
L 386.974648 -252.362931 
L 387.021624 -250.222375 
L 387.082602 -248.081819 
L 387.161162 -245.941263 
L 387.261611 -243.800707 
L 387.389079 -241.660151 
L 387.549605 -239.519595 
L 387.750222 -237.379038 
L 387.999019 -235.238482 
L 388.305186 -233.097926 
L 388.679028 -230.95737 
L 389.131935 -228.816814 
L 389.676305 -226.676258 
L 390.325414 -224.535702 
L 391.093209 -222.395146 
L 391.994041 -220.25459 
L 393.042314 -218.114034 
L 394.252058 -215.973478 
L 395.636431 -213.832921 
L 397.207151 -211.692365 
L 398.973879 -209.551809 
L 400.943562 -207.411253 
L 403.119764 -205.270697 
L 405.502015 -203.130141 
L 408.085201 -200.989585 
L 410.85904 -198.849029 
L 413.807669 -196.708473 
L 416.909386 -194.567917 
L 420.136561 -192.42736 
L 423.455766 -190.286804 
L 426.828121 -188.146248 
L 430.209873 -186.005692 
L 433.553213 -183.865136 
L 436.807296 -181.72458 
L 439.919469 -179.584024 
L 442.836642 -177.443468 
L 445.506765 -175.302912 
L 447.880361 -173.162356 
L 449.912038 -171.0218 
L 451.561936 -168.881243 
L 452.797018 -166.740687 
L 453.592174 -164.600131 
L 453.931071 -162.459575 
L 453.806706 -160.319019 
L 453.221652 -158.178463 
L 452.187965 -156.037907 
L 450.726776 -153.897351 
L 448.867566 -151.756795 
L 446.647184 -149.616239 
L 444.108627 -147.475682 
L 441.299664 -145.335126 
L 438.271343 -143.19457 
L 435.076459 -141.054014 
L 431.768047 -138.913458 
L 428.397953 -136.772902 
L 425.015532 -134.632346 
L 421.666534 -132.49179 
L 418.392185 -130.351234 
L 415.228498 -128.210678 
L 412.205821 -126.070122 
L 409.348605 -123.929565 
L 406.675401 -121.789009 
L 404.199035 -119.648453 
L 401.926957 -117.507897 
L 399.86172 -115.367341 
L 398.001552 -113.226785 
L 396.340991 -111.086229 
L 394.871553 -108.945673 
L 393.582393 -106.805117 
L 392.460947 -104.664561 
L 391.493523 -102.524004 
L 390.665833 -100.383448 
L 389.963453 -98.242892 
L 389.37221 -96.102336 
L 388.878488 -93.96178 
L 388.469463 -91.821224 
L 388.133261 -89.680668 
L 387.859071 -87.540112 
L 387.637185 -85.399556 
L 387.459005 -83.259 
L 387.317017 -81.118444 
L 387.204729 -78.977887 
L 387.116603 -76.837331 
L 387.047959 -74.696775 
L 386.994892 -72.556219 
L 386.954174 -70.415663 
L 386.923164 -68.275107 
L 386.899722 -66.134551 
L 386.882133 -63.993995 
L 386.869032 -61.853439 
L 386.859347 -59.712883 
L 386.852238 -57.572326 
z
" id="m9d69d9031e" style="stroke:#1f77b4;stroke-opacity:0.5;"/>
    </defs>
    <g clip-path="url(#p73518b95dc)">
     <use style="fill:#1f77b4;fill-opacity:0.5;stroke:#1f77b4;stroke-opacity:0.5;" x="0" xlink:href="#m9d69d9031e" y="562.551732"/>
    </g>
   </g>
   <g id="PolyCollection_5">
    <defs>
     <path d="M 466.764181 -51.00668 
L 466.758016 -51.00668 
L 466.758016 -53.284615 
L 466.758016 -55.562551 
L 466.758016 -57.840486 
L 466.758016 -60.118422 
L 466.758016 -62.396357 
L 466.758016 -64.674293 
L 466.758016 -66.952229 
L 466.758016 -69.230164 
L 466.758016 -71.5081 
L 466.758016 -73.786035 
L 466.758016 -76.063971 
L 466.758016 -78.341906 
L 466.758016 -80.619842 
L 466.758016 -82.897777 
L 466.758016 -85.175713 
L 466.758016 -87.453648 
L 466.758016 -89.731584 
L 466.758016 -92.009519 
L 466.758016 -94.287455 
L 466.758016 -96.56539 
L 466.758016 -98.843326 
L 466.758016 -101.121262 
L 466.758016 -103.399197 
L 466.758016 -105.677133 
L 466.758016 -107.955068 
L 466.758016 -110.233004 
L 466.758016 -112.510939 
L 466.758016 -114.788875 
L 466.758016 -117.06681 
L 466.758016 -119.344746 
L 466.758016 -121.622681 
L 466.758016 -123.900617 
L 466.758016 -126.178552 
L 466.758016 -128.456488 
L 466.758016 -130.734424 
L 466.758016 -133.012359 
L 466.758016 -135.290295 
L 466.758016 -137.56823 
L 466.758016 -139.846166 
L 466.758016 -142.124101 
L 466.758016 -144.402037 
L 466.758016 -146.679972 
L 466.758016 -148.957908 
L 466.758016 -151.235843 
L 466.758016 -153.513779 
L 466.758016 -155.791714 
L 466.758016 -158.06965 
L 466.758016 -160.347586 
L 466.758016 -162.625521 
L 466.758016 -164.903457 
L 466.758016 -167.181392 
L 466.758016 -169.459328 
L 466.758016 -171.737263 
L 466.758016 -174.015199 
L 466.758016 -176.293134 
L 466.758016 -178.57107 
L 466.758016 -180.849005 
L 466.758016 -183.126941 
L 466.758016 -185.404876 
L 466.758016 -187.682812 
L 466.758016 -189.960747 
L 466.758016 -192.238683 
L 466.758016 -194.516619 
L 466.758016 -196.794554 
L 466.758016 -199.07249 
L 466.758016 -201.350425 
L 466.758016 -203.628361 
L 466.758016 -205.906296 
L 466.758016 -208.184232 
L 466.758016 -210.462167 
L 466.758016 -212.740103 
L 466.758016 -215.018038 
L 466.758016 -217.295974 
L 466.758016 -219.573909 
L 466.758016 -221.851845 
L 466.758016 -224.129781 
L 466.758016 -226.407716 
L 466.758016 -228.685652 
L 466.758016 -230.963587 
L 466.758016 -233.241523 
L 466.758016 -235.519458 
L 466.758016 -237.797394 
L 466.758016 -240.075329 
L 466.758016 -242.353265 
L 466.758016 -244.6312 
L 466.758016 -246.909136 
L 466.758016 -249.187071 
L 466.758016 -251.465007 
L 466.758016 -253.742943 
L 466.758016 -256.020878 
L 466.758016 -258.298814 
L 466.758016 -260.576749 
L 466.758016 -262.854685 
L 466.758016 -265.13262 
L 466.758016 -267.410556 
L 466.758016 -269.688491 
L 466.758016 -271.966427 
L 466.758016 -274.244362 
L 466.758016 -276.522298 
L 466.761354 -276.522298 
L 466.761354 -276.522298 
L 466.762947 -274.244362 
L 466.765243 -271.966427 
L 466.768526 -269.688491 
L 466.773181 -267.410556 
L 466.779726 -265.13262 
L 466.788854 -262.854685 
L 466.801477 -260.576749 
L 466.81879 -258.298814 
L 466.842335 -256.020878 
L 466.87409 -253.742943 
L 466.916556 -251.465007 
L 466.972869 -249.187071 
L 467.046911 -246.909136 
L 467.143437 -244.6312 
L 467.268202 -242.353265 
L 467.428083 -240.075329 
L 467.631199 -237.797394 
L 467.887004 -235.519458 
L 468.206356 -233.241523 
L 468.601539 -230.963587 
L 469.086235 -228.685652 
L 469.675417 -226.407716 
L 470.385166 -224.129781 
L 471.232387 -221.851845 
L 472.234421 -219.573909 
L 473.408546 -217.295974 
L 474.771364 -215.018038 
L 476.338089 -212.740103 
L 478.121742 -210.462167 
L 480.132277 -208.184232 
L 482.375673 -205.906296 
L 484.853036 -203.628361 
L 487.559741 -201.350425 
L 490.484682 -199.07249 
L 493.609678 -196.794554 
L 496.909085 -194.516619 
L 500.349667 -192.238683 
L 503.890762 -189.960747 
L 507.484776 -187.682812 
L 511.078017 -185.404876 
L 514.61185 -183.126941 
L 518.024178 -180.849005 
L 521.251172 -178.57107 
L 524.229208 -176.293134 
L 526.896924 -174.015199 
L 529.197306 -171.737263 
L 531.079708 -169.459328 
L 532.501703 -167.181392 
L 533.430669 -164.903457 
L 533.845037 -162.625521 
L 533.73512 -160.347586 
L 533.103492 -158.06965 
L 531.964885 -155.791714 
L 530.345621 -153.513779 
L 528.282599 -151.235843 
L 525.821896 -148.957908 
L 523.017061 -146.679972 
L 519.92718 -144.402037 
L 516.614815 -142.124101 
L 513.143921 -139.846166 
L 509.57783 -137.56823 
L 505.977384 -135.290295 
L 502.399314 -133.012359 
L 498.894881 -130.734424 
L 495.50886 -128.456488 
L 492.278844 -126.178552 
L 489.234896 -123.900617 
L 486.399504 -121.622681 
L 483.787826 -119.344746 
L 481.408175 -117.06681 
L 479.262678 -114.788875 
L 477.348082 -112.510939 
L 475.656631 -110.233004 
L 474.176981 -107.955068 
L 472.895089 -105.677133 
L 471.795067 -103.399197 
L 470.859948 -101.121262 
L 470.072361 -98.843326 
L 469.415092 -96.56539 
L 468.871541 -94.287455 
L 468.426061 -92.009519 
L 468.064203 -89.731584 
L 467.772862 -87.453648 
L 467.540349 -85.175713 
L 467.356401 -82.897777 
L 467.212132 -80.619842 
L 467.099956 -78.341906 
L 467.01348 -76.063971 
L 466.947384 -73.786035 
L 466.897293 -71.5081 
L 466.859653 -69.230164 
L 466.831606 -66.952229 
L 466.810883 -64.674293 
L 466.795699 -62.396357 
L 466.784667 -60.118422 
L 466.776717 -57.840486 
L 466.771036 -55.562551 
L 466.76701 -53.284615 
L 466.764181 -51.00668 
z
" id="m03383142b0" style="stroke:#1f77b4;stroke-opacity:0.5;"/>
    </defs>
    <g clip-path="url(#p73518b95dc)">
     <use style="fill:#1f77b4;fill-opacity:0.5;stroke:#1f77b4;stroke-opacity:0.5;" x="0" xlink:href="#m03383142b0" y="562.551732"/>
    </g>
   </g>
   <g id="matplotlib.axis_5">
    <g id="xtick_11">
     <g id="line2d_22">
      <g>
       <use style="stroke:#000000;stroke-width:0.8;" x="67.139489" xlink:href="#m2358608ee2" y="524.995482"/>
      </g>
     </g>
     <g id="text_10">
      <!-- 0 -->
      <g transform="translate(63.958239 539.593919)scale(0.1 -0.1)">
       <use xlink:href="#DejaVuSans-48"/>
      </g>
     </g>
    </g>
    <g id="xtick_12">
     <g id="line2d_23">
      <g>
       <use style="stroke:#000000;stroke-width:0.8;" x="167.04412" xlink:href="#m2358608ee2" y="524.995482"/>
      </g>
     </g>
     <g id="text_11">
      <!-- 5 -->
      <g transform="translate(163.86287 539.593919)scale(0.1 -0.1)">
       <use xlink:href="#DejaVuSans-53"/>
      </g>
     </g>
    </g>
    <g id="xtick_13">
     <g id="line2d_24">
      <g>
       <use style="stroke:#000000;stroke-width:0.8;" x="266.948752" xlink:href="#m2358608ee2" y="524.995482"/>
      </g>
     </g>
     <g id="text_12">
      <!-- 10 -->
      <g transform="translate(260.586252 539.593919)scale(0.1 -0.1)">
       <use xlink:href="#DejaVuSans-49"/>
       <use x="63.623047" xlink:href="#DejaVuSans-48"/>
      </g>
     </g>
    </g>
    <g id="xtick_14">
     <g id="line2d_25">
      <g>
       <use style="stroke:#000000;stroke-width:0.8;" x="366.853384" xlink:href="#m2358608ee2" y="524.995482"/>
      </g>
     </g>
     <g id="text_13">
      <!-- 15 -->
      <g transform="translate(360.490884 539.593919)scale(0.1 -0.1)">
       <use xlink:href="#DejaVuSans-49"/>
       <use x="63.623047" xlink:href="#DejaVuSans-53"/>
      </g>
     </g>
    </g>
    <g id="xtick_15">
     <g id="line2d_26">
      <g>
       <use style="stroke:#000000;stroke-width:0.8;" x="466.758016" xlink:href="#m2358608ee2" y="524.995482"/>
      </g>
     </g>
     <g id="text_14">
      <!-- 20 -->
      <g transform="translate(460.395516 539.593919)scale(0.1 -0.1)">
       <use xlink:href="#DejaVuSans-50"/>
       <use x="63.623047" xlink:href="#DejaVuSans-48"/>
      </g>
     </g>
    </g>
    <g id="text_15">
     <!-- Time[year] -->
     <defs>
      <path d="M -0.296875 72.90625 
L 61.375 72.90625 
L 61.375 64.59375 
L 35.5 64.59375 
L 35.5 0 
L 25.59375 0 
L 25.59375 64.59375 
L -0.296875 64.59375 
z
" id="DejaVuSans-84"/>
      <path d="M 52 44.1875 
Q 55.375 50.25 60.0625 53.125 
Q 64.75 56 71.09375 56 
Q 79.640625 56 84.28125 50.015625 
Q 88.921875 44.046875 88.921875 33.015625 
L 88.921875 0 
L 79.890625 0 
L 79.890625 32.71875 
Q 79.890625 40.578125 77.09375 44.375 
Q 74.3125 48.1875 68.609375 48.1875 
Q 61.625 48.1875 57.5625 43.546875 
Q 53.515625 38.921875 53.515625 30.90625 
L 53.515625 0 
L 44.484375 0 
L 44.484375 32.71875 
Q 44.484375 40.625 41.703125 44.40625 
Q 38.921875 48.1875 33.109375 48.1875 
Q 26.21875 48.1875 22.15625 43.53125 
Q 18.109375 38.875 18.109375 30.90625 
L 18.109375 0 
L 9.078125 0 
L 9.078125 54.6875 
L 18.109375 54.6875 
L 18.109375 46.1875 
Q 21.1875 51.21875 25.484375 53.609375 
Q 29.78125 56 35.6875 56 
Q 41.65625 56 45.828125 52.96875 
Q 50 49.953125 52 44.1875 
z
" id="DejaVuSans-109"/>
      <path d="M 8.59375 75.984375 
L 29.296875 75.984375 
L 29.296875 69 
L 17.578125 69 
L 17.578125 -6.203125 
L 29.296875 -6.203125 
L 29.296875 -13.1875 
L 8.59375 -13.1875 
z
" id="DejaVuSans-91"/>
      <path d="M 30.421875 75.984375 
L 30.421875 -13.1875 
L 9.71875 -13.1875 
L 9.71875 -6.203125 
L 21.390625 -6.203125 
L 21.390625 69 
L 9.71875 69 
L 9.71875 75.984375 
z
" id="DejaVuSans-93"/>
     </defs>
     <g transform="translate(273.058594 553.272044)scale(0.1 -0.1)">
      <use xlink:href="#DejaVuSans-84"/>
      <use x="61.037109" xlink:href="#DejaVuSans-105"/>
      <use x="88.820312" xlink:href="#DejaVuSans-109"/>
      <use x="186.232422" xlink:href="#DejaVuSans-101"/>
      <use x="247.755859" xlink:href="#DejaVuSans-91"/>
      <use x="286.769531" xlink:href="#DejaVuSans-121"/>
      <use x="345.949219" xlink:href="#DejaVuSans-101"/>
      <use x="407.472656" xlink:href="#DejaVuSans-97"/>
      <use x="468.751953" xlink:href="#DejaVuSans-114"/>
      <use x="509.865234" xlink:href="#DejaVuSans-93"/>
     </g>
    </g>
   </g>
   <g id="matplotlib.axis_6">
    <g id="ytick_8">
     <g id="line2d_27">
      <g>
       <use style="stroke:#000000;stroke-width:0.8;" x="43.803125" xlink:href="#m0776241ade" y="496.563661"/>
      </g>
     </g>
     <g id="text_16">
      <!-- 0 -->
      <g transform="translate(30.440625 500.36288)scale(0.1 -0.1)">
       <use xlink:href="#DejaVuSans-48"/>
      </g>
     </g>
    </g>
    <g id="ytick_9">
     <g id="line2d_28">
      <g>
       <use style="stroke:#000000;stroke-width:0.8;" x="43.803125" xlink:href="#m0776241ade" y="460.454816"/>
      </g>
     </g>
     <g id="text_17">
      <!-- 5 -->
      <g transform="translate(30.440625 464.254035)scale(0.1 -0.1)">
       <use xlink:href="#DejaVuSans-53"/>
      </g>
     </g>
    </g>
    <g id="ytick_10">
     <g id="line2d_29">
      <g>
       <use style="stroke:#000000;stroke-width:0.8;" x="43.803125" xlink:href="#m0776241ade" y="424.345971"/>
      </g>
     </g>
     <g id="text_18">
      <!-- 10 -->
      <g transform="translate(24.078125 428.14519)scale(0.1 -0.1)">
       <use xlink:href="#DejaVuSans-49"/>
       <use x="63.623047" xlink:href="#DejaVuSans-48"/>
      </g>
     </g>
    </g>
    <g id="ytick_11">
     <g id="line2d_30">
      <g>
       <use style="stroke:#000000;stroke-width:0.8;" x="43.803125" xlink:href="#m0776241ade" y="388.237126"/>
      </g>
     </g>
     <g id="text_19">
      <!-- 15 -->
      <g transform="translate(24.078125 392.036345)scale(0.1 -0.1)">
       <use xlink:href="#DejaVuSans-49"/>
       <use x="63.623047" xlink:href="#DejaVuSans-53"/>
      </g>
     </g>
    </g>
    <g id="ytick_12">
     <g id="line2d_31">
      <g>
       <use style="stroke:#000000;stroke-width:0.8;" x="43.803125" xlink:href="#m0776241ade" y="352.128281"/>
      </g>
     </g>
     <g id="text_20">
      <!-- 20 -->
      <g transform="translate(24.078125 355.9275)scale(0.1 -0.1)">
       <use xlink:href="#DejaVuSans-50"/>
       <use x="63.623047" xlink:href="#DejaVuSans-48"/>
      </g>
     </g>
    </g>
    <g id="ytick_13">
     <g id="line2d_32">
      <g>
       <use style="stroke:#000000;stroke-width:0.8;" x="43.803125" xlink:href="#m0776241ade" y="316.019436"/>
      </g>
     </g>
     <g id="text_21">
      <!-- 25 -->
      <g transform="translate(24.078125 319.818655)scale(0.1 -0.1)">
       <use xlink:href="#DejaVuSans-50"/>
       <use x="63.623047" xlink:href="#DejaVuSans-53"/>
      </g>
     </g>
    </g>
    <g id="ytick_14">
     <g id="line2d_33">
      <g>
       <use style="stroke:#000000;stroke-width:0.8;" x="43.803125" xlink:href="#m0776241ade" y="279.910591"/>
      </g>
     </g>
     <g id="text_22">
      <!-- 30 -->
      <defs>
       <path d="M 40.578125 39.3125 
Q 47.65625 37.796875 51.625 33 
Q 55.609375 28.21875 55.609375 21.1875 
Q 55.609375 10.40625 48.1875 4.484375 
Q 40.765625 -1.421875 27.09375 -1.421875 
Q 22.515625 -1.421875 17.65625 -0.515625 
Q 12.796875 0.390625 7.625 2.203125 
L 7.625 11.71875 
Q 11.71875 9.328125 16.59375 8.109375 
Q 21.484375 6.890625 26.8125 6.890625 
Q 36.078125 6.890625 40.9375 10.546875 
Q 45.796875 14.203125 45.796875 21.1875 
Q 45.796875 27.640625 41.28125 31.265625 
Q 36.765625 34.90625 28.71875 34.90625 
L 20.21875 34.90625 
L 20.21875 43.015625 
L 29.109375 43.015625 
Q 36.375 43.015625 40.234375 45.921875 
Q 44.09375 48.828125 44.09375 54.296875 
Q 44.09375 59.90625 40.109375 62.90625 
Q 36.140625 65.921875 28.71875 65.921875 
Q 24.65625 65.921875 20.015625 65.03125 
Q 15.375 64.15625 9.8125 62.3125 
L 9.8125 71.09375 
Q 15.4375 72.65625 20.34375 73.4375 
Q 25.25 74.21875 29.59375 74.21875 
Q 40.828125 74.21875 47.359375 69.109375 
Q 53.90625 64.015625 53.90625 55.328125 
Q 53.90625 49.265625 50.4375 45.09375 
Q 46.96875 40.921875 40.578125 39.3125 
z
" id="DejaVuSans-51"/>
      </defs>
      <g transform="translate(24.078125 283.70981)scale(0.1 -0.1)">
       <use xlink:href="#DejaVuSans-51"/>
       <use x="63.623047" xlink:href="#DejaVuSans-48"/>
      </g>
     </g>
    </g>
    <g id="text_23">
     <!-- age/membrane life [year] -->
     <defs>
      <path d="M 45.40625 27.984375 
Q 45.40625 37.75 41.375 43.109375 
Q 37.359375 48.484375 30.078125 48.484375 
Q 22.859375 48.484375 18.828125 43.109375 
Q 14.796875 37.75 14.796875 27.984375 
Q 14.796875 18.265625 18.828125 12.890625 
Q 22.859375 7.515625 30.078125 7.515625 
Q 37.359375 7.515625 41.375 12.890625 
Q 45.40625 18.265625 45.40625 27.984375 
z
M 54.390625 6.78125 
Q 54.390625 -7.171875 48.1875 -13.984375 
Q 42 -20.796875 29.203125 -20.796875 
Q 24.46875 -20.796875 20.265625 -20.09375 
Q 16.0625 -19.390625 12.109375 -17.921875 
L 12.109375 -9.1875 
Q 16.0625 -11.328125 19.921875 -12.34375 
Q 23.78125 -13.375 27.78125 -13.375 
Q 36.625 -13.375 41.015625 -8.765625 
Q 45.40625 -4.15625 45.40625 5.171875 
L 45.40625 9.625 
Q 42.625 4.78125 38.28125 2.390625 
Q 33.9375 0 27.875 0 
Q 17.828125 0 11.671875 7.65625 
Q 5.515625 15.328125 5.515625 27.984375 
Q 5.515625 40.671875 11.671875 48.328125 
Q 17.828125 56 27.875 56 
Q 33.9375 56 38.28125 53.609375 
Q 42.625 51.21875 45.40625 46.390625 
L 45.40625 54.6875 
L 54.390625 54.6875 
z
" id="DejaVuSans-103"/>
      <path d="M 25.390625 72.90625 
L 33.6875 72.90625 
L 8.296875 -9.28125 
L 0 -9.28125 
z
" id="DejaVuSans-47"/>
      <path d="M 54.890625 33.015625 
L 54.890625 0 
L 45.90625 0 
L 45.90625 32.71875 
Q 45.90625 40.484375 42.875 44.328125 
Q 39.84375 48.1875 33.796875 48.1875 
Q 26.515625 48.1875 22.3125 43.546875 
Q 18.109375 38.921875 18.109375 30.90625 
L 18.109375 0 
L 9.078125 0 
L 9.078125 54.6875 
L 18.109375 54.6875 
L 18.109375 46.1875 
Q 21.34375 51.125 25.703125 53.5625 
Q 30.078125 56 35.796875 56 
Q 45.21875 56 50.046875 50.171875 
Q 54.890625 44.34375 54.890625 33.015625 
z
" id="DejaVuSans-110"/>
     </defs>
     <g transform="translate(17.998438 461.04056)rotate(-90)scale(0.1 -0.1)">
      <use xlink:href="#DejaVuSans-97"/>
      <use x="61.279297" xlink:href="#DejaVuSans-103"/>
      <use x="124.755859" xlink:href="#DejaVuSans-101"/>
      <use x="186.279297" xlink:href="#DejaVuSans-47"/>
      <use x="219.970703" xlink:href="#DejaVuSans-109"/>
      <use x="317.382812" xlink:href="#DejaVuSans-101"/>
      <use x="378.90625" xlink:href="#DejaVuSans-109"/>
      <use x="476.318359" xlink:href="#DejaVuSans-98"/>
      <use x="539.794922" xlink:href="#DejaVuSans-114"/>
      <use x="580.908203" xlink:href="#DejaVuSans-97"/>
      <use x="642.1875" xlink:href="#DejaVuSans-110"/>
      <use x="705.566406" xlink:href="#DejaVuSans-101"/>
      <use x="767.089844" xlink:href="#DejaVuSans-32"/>
      <use x="798.876953" xlink:href="#DejaVuSans-108"/>
      <use x="826.660156" xlink:href="#DejaVuSans-105"/>
      <use x="854.443359" xlink:href="#DejaVuSans-102"/>
      <use x="889.648438" xlink:href="#DejaVuSans-101"/>
      <use x="951.171875" xlink:href="#DejaVuSans-32"/>
      <use x="982.958984" xlink:href="#DejaVuSans-91"/>
      <use x="1021.972656" xlink:href="#DejaVuSans-121"/>
      <use x="1081.152344" xlink:href="#DejaVuSans-101"/>
      <use x="1142.675781" xlink:href="#DejaVuSans-97"/>
      <use x="1203.955078" xlink:href="#DejaVuSans-114"/>
      <use x="1245.068359" xlink:href="#DejaVuSans-93"/>
     </g>
    </g>
   </g>
   <g id="LineCollection_1">
    <path clip-path="url(#p73518b95dc)" d="M 147.063194 467.676585 
L 214.172062 467.676585 
" style="fill:none;stroke:#ff7f0e;stroke-width:1.5;"/>
   </g>
   <g id="LineCollection_2">
    <path clip-path="url(#p73518b95dc)" d="M 226.986899 438.789509 
L 294.096061 438.789509 
" style="fill:none;stroke:#ff7f0e;stroke-width:1.5;"/>
   </g>
   <g id="LineCollection_3">
    <path clip-path="url(#p73518b95dc)" d="M 306.910605 409.902433 
L 374.019689 409.902433 
" style="fill:none;stroke:#ff7f0e;stroke-width:1.5;"/>
   </g>
   <g id="LineCollection_4">
    <path clip-path="url(#p73518b95dc)" d="M 386.83431 381.015357 
L 453.943041 381.015357 
" style="fill:none;stroke:#ff7f0e;stroke-width:1.5;"/>
   </g>
   <g id="LineCollection_5">
    <path clip-path="url(#p73518b95dc)" d="M 466.758016 352.128281 
L 533.866761 352.128281 
" style="fill:none;stroke:#ff7f0e;stroke-width:1.5;"/>
   </g>
   <g id="line2d_34">
    <path clip-path="url(#p73518b95dc)" d="M 67.139489 400.588465 
L 87.120415 400.588465 
L 107.101341 400.588465 
L 127.082268 400.588465 
L 147.063194 400.588465 
L 167.04412 400.588465 
L 187.025047 400.588465 
L 207.005973 400.588465 
L 226.986899 400.588465 
L 246.967826 400.588465 
L 266.948752 400.588465 
L 286.929679 400.588465 
L 306.910605 400.588465 
L 326.891531 400.588465 
L 346.872458 400.588465 
L 366.853384 400.588465 
L 386.83431 400.588465 
L 406.815237 400.588465 
L 426.796163 400.588465 
L 446.777089 400.588465 
L 466.758016 400.588465 
" style="fill:none;stroke:#1f77b4;stroke-dasharray:5.55,2.4;stroke-dashoffset:0;stroke-width:1.5;"/>
   </g>
   <g id="line2d_35">
    <path clip-path="url(#p73518b95dc)" d="M 67.139489 496.563661 
L 87.120415 489.341892 
L 107.101341 482.120123 
L 127.082268 474.898354 
L 147.063194 467.676585 
L 167.04412 460.454816 
L 187.025047 453.233047 
L 207.005973 446.011278 
L 226.986899 438.789509 
L 246.967826 431.56774 
L 266.948752 424.345971 
L 286.929679 417.124202 
L 306.910605 409.902433 
L 326.891531 402.680664 
L 346.872458 395.458895 
L 366.853384 388.237126 
L 386.83431 381.015357 
L 406.815237 373.793588 
L 426.796163 366.571819 
L 446.777089 359.35005 
L 466.758016 352.128281 
" style="fill:none;stroke:#ff7f0e;stroke-dasharray:5.55,2.4;stroke-dashoffset:0;stroke-width:1.5;"/>
   </g>
   <g id="line2d_36">
    <path clip-path="url(#p73518b95dc)" d="M 147.067743 513.344537 
L 147.069848 511.088198 
L 147.072853 508.831859 
L 147.077107 506.57552 
L 147.083082 504.319181 
L 147.091404 502.062843 
L 147.102903 499.806504 
L 147.118661 497.550165 
L 147.140078 495.293826 
L 147.168949 493.037487 
L 147.207548 490.781148 
L 147.258726 488.524809 
L 147.326019 486.26847 
L 147.413767 484.012131 
L 147.527229 481.755792 
L 147.672708 479.499453 
L 147.857666 477.243114 
L 148.09082 474.986775 
L 148.382217 472.730436 
L 148.743279 470.474097 
L 149.186787 468.217758 
L 149.726817 465.961419 
L 150.37859 463.70508 
L 151.158246 461.448741 
L 152.082512 459.192402 
L 153.168273 456.936063 
L 154.432035 454.679724 
L 155.889285 452.423385 
L 157.553761 450.167046 
L 159.436643 447.910708 
L 161.545707 445.654369 
L 163.884448 443.39803 
L 166.451244 441.141691 
L 169.23858 438.885352 
L 172.232403 436.629013 
L 175.411639 434.372674 
L 178.747939 432.116335 
L 182.205682 429.859996 
L 185.74227 427.603657 
L 189.308747 425.347318 
L 192.850722 423.090979 
L 196.309619 420.83464 
L 199.624183 418.578301 
L 202.732224 416.321962 
L 205.572519 414.065623 
L 208.086794 411.809284 
L 210.221703 409.552945 
L 211.930703 407.296606 
L 213.175739 405.040267 
L 213.928654 402.783928 
L 214.172246 400.527589 
L 213.900922 398.27125 
L 213.120911 396.014911 
L 211.850027 393.758572 
L 210.116991 391.502234 
L 207.960355 389.245895 
L 205.427074 386.989556 
L 202.570809 384.733217 
L 199.450044 382.476878 
L 196.126105 380.220539 
L 192.661178 377.9642 
L 189.116417 375.707861 
L 185.550209 373.451522 
L 182.016679 371.195183 
L 178.564462 368.938844 
L 175.235792 366.682505 
L 172.065904 364.426166 
L 169.08275 362.169827 
L 166.307016 359.913488 
L 163.75239 357.657149 
L 161.426051 355.40081 
L 159.329323 353.144471 
L 157.458458 350.888132 
L 155.805477 348.631793 
L 154.359037 346.375454 
L 153.105287 344.119115 
L 152.028667 341.862776 
L 151.112636 339.606437 
L 150.340304 337.350099 
L 149.694966 335.09376 
L 149.160523 332.837421 
L 148.721812 330.581082 
L 148.364824 328.324743 
L 148.076848 326.068404 
L 147.84654 323.812065 
L 147.663923 321.555726 
L 147.52035 319.299387 
L 147.408427 317.043048 
L 147.321909 314.786709 
L 147.255588 312.53037 
L 147.205173 310.274031 
L 147.167166 308.017692 
L 147.13875 305.761353 
L 147.11768 303.505014 
L 147.102185 301.248675 
L 147.090883 298.992336 
L 147.082706 296.735997 
L 147.076839 294.479658 
L 147.072663 292.223319 
L 147.069714 289.96698 
" style="fill:none;stroke:#1f77b4;stroke-linecap:square;stroke-width:1.5;"/>
   </g>
   <g id="line2d_37">
    <path clip-path="url(#p73518b95dc)" d="M 226.991652 513.086933 
L 226.993895 510.788215 
L 226.997113 508.489497 
L 227.001695 506.19078 
L 227.00816 503.892062 
L 227.017209 501.593344 
L 227.029765 499.294627 
L 227.047041 496.995909 
L 227.070609 494.697191 
L 227.102487 492.398474 
L 227.145236 490.099756 
L 227.202071 487.801038 
L 227.276983 485.502321 
L 227.374869 483.203603 
L 227.501661 480.904886 
L 227.664462 478.606168 
L 227.871663 476.30745 
L 228.133046 474.008733 
L 228.459848 471.710015 
L 228.864787 469.411297 
L 229.362025 467.11258 
L 229.967049 464.813862 
L 230.696476 462.515144 
L 231.567742 460.216427 
L 232.598685 457.917709 
L 233.807012 455.618991 
L 235.209642 453.320274 
L 236.821949 451.021556 
L 238.656906 448.722838 
L 240.724168 446.424121 
L 243.029117 444.125403 
L 245.571923 441.826685 
L 248.346668 439.527968 
L 251.340585 437.22925 
L 254.533471 434.930533 
L 257.897335 432.631815 
L 261.396323 430.333097 
L 264.98697 428.03438 
L 268.618788 425.735662 
L 272.235227 423.436944 
L 275.774973 421.138227 
L 279.173562 418.839509 
L 282.365259 416.540791 
L 285.285129 414.242074 
L 287.871205 411.943356 
L 290.066663 409.644638 
L 291.821894 407.345921 
L 293.096359 405.047203 
L 293.860153 402.748485 
L 294.095165 400.449768 
L 293.795794 398.15105 
L 292.969172 395.852333 
L 291.634881 393.553615 
L 289.82418 391.254897 
L 287.578791 388.95618 
L 284.949298 386.657462 
L 281.993259 384.358744 
L 278.773114 382.060027 
L 275.354011 379.761309 
L 271.801635 377.462591 
L 268.180168 375.163874 
L 264.550427 372.865156 
L 260.968295 370.566438 
L 257.483452 368.267721 
L 254.138474 365.969003 
L 250.968269 363.670285 
L 247.999881 361.371568 
L 245.252589 359.07285 
L 242.738301 356.774133 
L 240.462155 354.475415 
L 238.423305 352.176697 
L 236.615803 349.87798 
L 235.029542 347.579262 
L 233.651214 345.280544 
L 232.465213 342.981827 
L 231.454486 340.683109 
L 230.601279 338.384391 
L 229.887777 336.085674 
L 229.296621 333.786956 
L 228.811318 331.488238 
L 228.416531 329.189521 
L 228.098269 326.890803 
L 227.843992 324.592085 
L 227.642639 322.293368 
L 227.484602 319.99465 
L 227.361651 317.695933 
L 227.266831 315.397215 
L 227.19434 313.098497 
L 227.1394 310.79978 
L 227.09812 308.501062 
L 227.067369 306.202344 
L 227.044657 303.903627 
L 227.028027 301.604909 
L 227.015952 299.306191 
L 227.007259 297.007474 
L 227.001054 294.708756 
L 226.996662 292.410038 
L 226.993579 290.111321 
L 226.991433 287.812603 
L 226.989952 285.513885 
" style="fill:none;stroke:#1f77b4;stroke-linecap:square;stroke-width:1.5;"/>
   </g>
   <g id="line2d_38">
    <path clip-path="url(#p73518b95dc)" d="M 306.92021 508.866191 
L 306.924558 506.5577 
L 306.930712 504.24921 
L 306.939348 501.94072 
L 306.951363 499.632229 
L 306.967939 497.323739 
L 306.990609 495.015249 
L 307.021348 492.706758 
L 307.062669 490.398268 
L 307.117735 488.089777 
L 307.19048 485.781287 
L 307.285741 483.472797 
L 307.409397 481.164306 
L 307.568499 478.855816 
L 307.771395 476.547326 
L 308.027837 474.238835 
L 308.349056 471.930345 
L 308.747786 469.621854 
L 309.238234 467.313364 
L 309.835976 465.004874 
L 310.557752 462.696383 
L 311.421168 460.387893 
L 312.444277 458.079403 
L 313.645042 455.770912 
L 315.040677 453.462422 
L 316.646876 451.153932 
L 318.476948 448.845441 
L 320.540882 446.536951 
L 322.844373 444.22846 
L 325.387862 441.91997 
L 328.165633 439.61148 
L 331.165033 437.302989 
L 334.365867 434.994499 
L 337.740024 432.686009 
L 341.251393 430.377518 
L 344.856113 428.069028 
L 348.503167 425.760537 
L 352.135353 423.452047 
L 355.690609 421.143557 
L 359.103656 418.835066 
L 362.307922 416.526576 
L 365.237648 414.218086 
L 367.830112 411.909595 
L 370.027842 409.601105 
L 371.780735 407.292615 
L 373.047949 404.984124 
L 373.799483 402.675634 
L 374.017363 400.367143 
L 373.696353 398.058653 
L 372.844163 395.750163 
L 371.481146 393.441672 
L 369.639483 391.133182 
L 367.361926 388.824692 
L 364.700149 386.516201 
L 361.712795 384.207711 
L 358.463345 381.89922 
L 355.017883 379.59073 
L 351.442892 377.28224 
L 347.803174 374.973749 
L 344.159979 372.665259 
L 340.569414 370.356769 
L 337.081188 368.048278 
L 333.737713 365.739788 
L 330.573571 363.431298 
L 327.615341 361.122807 
L 324.881736 358.814317 
L 322.384024 356.505826 
L 320.126676 354.197336 
L 318.108171 351.888846 
L 316.321915 349.580355 
L 314.757209 347.271865 
L 313.400214 344.963375 
L 312.234881 342.654884 
L 311.243795 340.346394 
L 310.40893 338.037903 
L 309.712279 335.729413 
L 309.136376 333.420923 
L 308.664681 331.112432 
L 308.28187 328.803942 
L 307.974013 326.495452 
L 307.728661 324.186961 
L 307.534874 321.878471 
L 307.383175 319.56998 
L 307.265471 317.26149 
L 307.174949 314.953 
L 307.105939 312.644509 
L 307.053789 310.336019 
L 307.01472 308.027529 
L 306.985705 305.719038 
L 306.964341 303.410548 
L 306.948747 301.102058 
L 306.937461 298.793567 
L 306.929363 296.485077 
L 306.923602 294.176586 
L 306.919538 291.868096 
L 306.916695 289.559606 
L 306.914724 287.251115 
L 306.913369 284.942625 
L 306.912444 282.634135 
L 306.911819 280.325644 
" style="fill:none;stroke:#1f77b4;stroke-linecap:square;stroke-width:1.5;"/>
   </g>
   <g id="line2d_39">
    <path clip-path="url(#p73518b95dc)" d="M 386.852238 504.979405 
L 386.859347 502.838849 
L 386.869032 500.698293 
L 386.882133 498.557737 
L 386.899722 496.417181 
L 386.923164 494.276625 
L 386.954174 492.136069 
L 386.994892 489.995513 
L 387.047959 487.854957 
L 387.116603 485.714401 
L 387.204729 483.573845 
L 387.317017 481.433288 
L 387.459005 479.292732 
L 387.637185 477.152176 
L 387.859071 475.01162 
L 388.133261 472.871064 
L 388.469463 470.730508 
L 388.878488 468.589952 
L 389.37221 466.449396 
L 389.963453 464.30884 
L 390.665833 462.168284 
L 391.493523 460.027727 
L 392.460947 457.887171 
L 393.582393 455.746615 
L 394.871553 453.606059 
L 396.340991 451.465503 
L 398.001552 449.324947 
L 399.86172 447.184391 
L 401.926957 445.043835 
L 404.199035 442.903279 
L 406.675401 440.762723 
L 409.348605 438.622167 
L 412.205821 436.48161 
L 415.228498 434.341054 
L 418.392185 432.200498 
L 421.666534 430.059942 
L 425.015532 427.919386 
L 428.397953 425.77883 
L 431.768047 423.638274 
L 435.076459 421.497718 
L 438.271343 419.357162 
L 441.299664 417.216606 
L 444.108627 415.076049 
L 446.647184 412.935493 
L 448.867566 410.794937 
L 450.726776 408.654381 
L 452.187965 406.513825 
L 453.221652 404.373269 
L 453.806706 402.232713 
L 453.931071 400.092157 
L 453.592174 397.951601 
L 452.797018 395.811045 
L 451.561936 393.670489 
L 449.912038 391.529932 
L 447.880361 389.389376 
L 445.506765 387.24882 
L 442.836642 385.108264 
L 439.919469 382.967708 
L 436.807296 380.827152 
L 433.553213 378.686596 
L 430.209873 376.54604 
L 426.828121 374.405484 
L 423.455766 372.264928 
L 420.136561 370.124371 
L 416.909386 367.983815 
L 413.807669 365.843259 
L 410.85904 363.702703 
L 408.085201 361.562147 
L 405.502015 359.421591 
L 403.119764 357.281035 
L 400.943562 355.140479 
L 398.973879 352.999923 
L 397.207151 350.859367 
L 395.636431 348.718811 
L 394.252058 346.578254 
L 393.042314 344.437698 
L 391.994041 342.297142 
L 391.093209 340.156586 
L 390.325414 338.01603 
L 389.676305 335.875474 
L 389.131935 333.734918 
L 388.679028 331.594362 
L 388.305186 329.453806 
L 387.999019 327.31325 
L 387.750222 325.172693 
L 387.549605 323.032137 
L 387.389079 320.891581 
L 387.261611 318.751025 
L 387.161162 316.610469 
L 387.082602 314.469913 
L 387.021624 312.329357 
L 386.974648 310.188801 
L 386.938727 308.048245 
L 386.911465 305.907689 
L 386.890928 303.767133 
L 386.875571 301.626576 
L 386.864172 299.48602 
L 386.855773 297.345464 
L 386.84963 295.204908 
L 386.84517 293.064352 
" style="fill:none;stroke:#1f77b4;stroke-linecap:square;stroke-width:1.5;"/>
   </g>
   <g id="line2d_40">
    <path clip-path="url(#p73518b95dc)" d="M 466.764181 511.545052 
L 466.76701 509.267117 
L 466.771036 506.989181 
L 466.776717 504.711246 
L 466.784667 502.43331 
L 466.795699 500.155375 
L 466.810883 497.877439 
L 466.831606 495.599503 
L 466.859653 493.321568 
L 466.897293 491.043632 
L 466.947384 488.765697 
L 467.01348 486.487761 
L 467.099956 484.209826 
L 467.212132 481.93189 
L 467.356401 479.653955 
L 467.540349 477.376019 
L 467.772862 475.098084 
L 468.064203 472.820148 
L 468.426061 470.542213 
L 468.871541 468.264277 
L 469.415092 465.986341 
L 470.072361 463.708406 
L 470.859948 461.43047 
L 471.795067 459.152535 
L 472.895089 456.874599 
L 474.176981 454.596664 
L 475.656631 452.318728 
L 477.348082 450.040793 
L 479.262678 447.762857 
L 481.408175 445.484922 
L 483.787826 443.206986 
L 486.399504 440.929051 
L 489.234896 438.651115 
L 492.278844 436.373179 
L 495.50886 434.095244 
L 498.894881 431.817308 
L 502.399314 429.539373 
L 505.977384 427.261437 
L 509.57783 424.983502 
L 513.143921 422.705566 
L 516.614815 420.427631 
L 519.92718 418.149695 
L 523.017061 415.87176 
L 525.821896 413.593824 
L 528.282599 411.315889 
L 530.345621 409.037953 
L 531.964885 406.760018 
L 533.103492 404.482082 
L 533.73512 402.204146 
L 533.845037 399.926211 
L 533.430669 397.648275 
L 532.501703 395.37034 
L 531.079708 393.092404 
L 529.197306 390.814469 
L 526.896924 388.536533 
L 524.229208 386.258598 
L 521.251172 383.980662 
L 518.024178 381.702727 
L 514.61185 379.424791 
L 511.078017 377.146856 
L 507.484776 374.86892 
L 503.890762 372.590984 
L 500.349667 370.313049 
L 496.909085 368.035113 
L 493.609678 365.757178 
L 490.484682 363.479242 
L 487.559741 361.201307 
L 484.853036 358.923371 
L 482.375673 356.645436 
L 480.132277 354.3675 
L 478.121742 352.089565 
L 476.338089 349.811629 
L 474.771364 347.533694 
L 473.408546 345.255758 
L 472.234421 342.977822 
L 471.232387 340.699887 
L 470.385166 338.421951 
L 469.675417 336.144016 
L 469.086235 333.86608 
L 468.601539 331.588145 
L 468.206356 329.310209 
L 467.887004 327.032274 
L 467.631199 324.754338 
L 467.428083 322.476403 
L 467.268202 320.198467 
L 467.143437 317.920532 
L 467.046911 315.642596 
L 466.972869 313.364661 
L 466.916556 311.086725 
L 466.87409 308.808789 
L 466.842335 306.530854 
L 466.81879 304.252918 
L 466.801477 301.974983 
L 466.788854 299.697047 
L 466.779726 297.419112 
L 466.773181 295.141176 
L 466.768526 292.863241 
L 466.765243 290.585305 
L 466.762947 288.30737 
L 466.761354 286.029434 
" style="fill:none;stroke:#1f77b4;stroke-linecap:square;stroke-width:1.5;"/>
   </g>
   <g id="patch_13">
    <path d="M 43.803125 524.995482 
L 43.803125 268.6747 
" style="fill:none;stroke:#000000;stroke-linecap:square;stroke-linejoin:miter;stroke-width:0.8;"/>
   </g>
   <g id="patch_14">
    <path d="M 557.203125 524.995482 
L 557.203125 268.6747 
" style="fill:none;stroke:#000000;stroke-linecap:square;stroke-linejoin:miter;stroke-width:0.8;"/>
   </g>
   <g id="patch_15">
    <path d="M 43.803125 524.995482 
L 557.203125 524.995482 
" style="fill:none;stroke:#000000;stroke-linecap:square;stroke-linejoin:miter;stroke-width:0.8;"/>
   </g>
   <g id="patch_16">
    <path d="M 43.803125 268.6747 
L 557.203125 268.6747 
" style="fill:none;stroke:#000000;stroke-linecap:square;stroke-linejoin:miter;stroke-width:0.8;"/>
   </g>
   <g id="legend_1">
    <g id="patch_17">
     <path d="M 50.803125 306.03095 
L 169.414062 306.03095 
Q 171.414062 306.03095 171.414062 304.03095 
L 171.414062 275.6747 
Q 171.414062 273.6747 169.414062 273.6747 
L 50.803125 273.6747 
Q 48.803125 273.6747 48.803125 275.6747 
L 48.803125 304.03095 
Q 48.803125 306.03095 50.803125 306.03095 
z
" style="fill:#ffffff;opacity:0.8;stroke:#cccccc;stroke-linejoin:miter;"/>
    </g>
    <g id="patch_18">
     <path d="M 52.803125 285.273137 
L 72.803125 285.273137 
L 72.803125 278.273137 
L 52.803125 278.273137 
z
" style="fill:#1f77b4;opacity:0.8;stroke:#1f77b4;stroke-linejoin:miter;"/>
    </g>
    <g id="text_24">
     <!-- R: membrane life -->
     <defs>
      <path d="M 11.71875 12.40625 
L 22.015625 12.40625 
L 22.015625 0 
L 11.71875 0 
z
M 11.71875 51.703125 
L 22.015625 51.703125 
L 22.015625 39.3125 
L 11.71875 39.3125 
z
" id="DejaVuSans-58"/>
     </defs>
     <g transform="translate(80.803125 285.273137)scale(0.1 -0.1)">
      <use xlink:href="#DejaVuSans-82"/>
      <use x="69.435547" xlink:href="#DejaVuSans-58"/>
      <use x="103.126953" xlink:href="#DejaVuSans-32"/>
      <use x="134.914062" xlink:href="#DejaVuSans-109"/>
      <use x="232.326172" xlink:href="#DejaVuSans-101"/>
      <use x="293.849609" xlink:href="#DejaVuSans-109"/>
      <use x="391.261719" xlink:href="#DejaVuSans-98"/>
      <use x="454.738281" xlink:href="#DejaVuSans-114"/>
      <use x="495.851562" xlink:href="#DejaVuSans-97"/>
      <use x="557.130859" xlink:href="#DejaVuSans-110"/>
      <use x="620.509766" xlink:href="#DejaVuSans-101"/>
      <use x="682.033203" xlink:href="#DejaVuSans-32"/>
      <use x="713.820312" xlink:href="#DejaVuSans-108"/>
      <use x="741.603516" xlink:href="#DejaVuSans-105"/>
      <use x="769.386719" xlink:href="#DejaVuSans-102"/>
      <use x="804.591797" xlink:href="#DejaVuSans-101"/>
     </g>
    </g>
    <g id="patch_19">
     <path d="M 52.803125 299.951262 
L 72.803125 299.951262 
L 72.803125 292.951262 
L 52.803125 292.951262 
z
" style="fill:#ff7f0e;opacity:0.8;stroke:#ff7f0e;stroke-linejoin:miter;"/>
    </g>
    <g id="text_25">
     <!-- S: age -->
     <defs>
      <path d="M 53.515625 70.515625 
L 53.515625 60.890625 
Q 47.90625 63.578125 42.921875 64.890625 
Q 37.9375 66.21875 33.296875 66.21875 
Q 25.25 66.21875 20.875 63.09375 
Q 16.5 59.96875 16.5 54.203125 
Q 16.5 49.359375 19.40625 46.890625 
Q 22.3125 44.4375 30.421875 42.921875 
L 36.375 41.703125 
Q 47.40625 39.59375 52.65625 34.296875 
Q 57.90625 29 57.90625 20.125 
Q 57.90625 9.515625 50.796875 4.046875 
Q 43.703125 -1.421875 29.984375 -1.421875 
Q 24.8125 -1.421875 18.96875 -0.25 
Q 13.140625 0.921875 6.890625 3.21875 
L 6.890625 13.375 
Q 12.890625 10.015625 18.65625 8.296875 
Q 24.421875 6.59375 29.984375 6.59375 
Q 38.421875 6.59375 43.015625 9.90625 
Q 47.609375 13.234375 47.609375 19.390625 
Q 47.609375 24.75 44.3125 27.78125 
Q 41.015625 30.8125 33.5 32.328125 
L 27.484375 33.5 
Q 16.453125 35.6875 11.515625 40.375 
Q 6.59375 45.0625 6.59375 53.421875 
Q 6.59375 63.09375 13.40625 68.65625 
Q 20.21875 74.21875 32.171875 74.21875 
Q 37.3125 74.21875 42.625 73.28125 
Q 47.953125 72.359375 53.515625 70.515625 
z
" id="DejaVuSans-83"/>
     </defs>
     <g transform="translate(80.803125 299.951262)scale(0.1 -0.1)">
      <use xlink:href="#DejaVuSans-83"/>
      <use x="63.476562" xlink:href="#DejaVuSans-58"/>
      <use x="97.167969" xlink:href="#DejaVuSans-32"/>
      <use x="128.955078" xlink:href="#DejaVuSans-97"/>
      <use x="190.234375" xlink:href="#DejaVuSans-103"/>
      <use x="253.710938" xlink:href="#DejaVuSans-101"/>
     </g>
    </g>
   </g>
  </g>
 </g>
 <defs>
  <clipPath id="p5e6806e7b2">
   <rect height="85.440261" width="513.4" x="43.803125" y="21.02987"/>
  </clipPath>
  <clipPath id="pcb69d8e47b">
   <rect height="85.440261" width="513.4" x="43.803125" y="144.852285"/>
  </clipPath>
  <clipPath id="p73518b95dc">
   <rect height="256.320782" width="513.4" x="43.803125" y="268.6747"/>
  </clipPath>
 </defs>
</svg>
