<?xml version="1.0" encoding="utf-8" standalone="no"?>
<!DOCTYPE svg PUBLIC "-//W3C//DTD SVG 1.1//EN"
  "http://www.w3.org/Graphics/SVG/1.1/DTD/svg11.dtd">
<!-- Created with matplotlib (https://matplotlib.org/) -->
<svg height="207.59625pt" version="1.1" viewBox="0 0 704.878125 207.59625" width="704.878125pt" xmlns="http://www.w3.org/2000/svg" xmlns:xlink="http://www.w3.org/1999/xlink">
 <defs>
  <style type="text/css">
*{stroke-linecap:butt;stroke-linejoin:round;}
  </style>
 </defs>
 <g id="figure_1">
  <g id="patch_1">
   <path d="M 0 207.59625 
L 704.878125 207.59625 
L 704.878125 0 
L 0 0 
z
" style="fill:none;"/>
  </g>
  <g id="axes_1">
   <g id="patch_2">
    <path d="M 36.465625 183.718125 
L 350.234375 183.718125 
L 350.234375 22.318125 
L 36.465625 22.318125 
z
" style="fill:#ffffff;"/>
   </g>
   <g id="patch_3">
    <path clip-path="url(#pd1ed94c87a)" d="M 50.727841 183.718125 
L 53.580284 183.718125 
L 53.580284 183.673852 
L 50.727841 183.673852 
z
" style="fill:#1f77b4;opacity:0.5;"/>
   </g>
   <g id="patch_4">
    <path clip-path="url(#pd1ed94c87a)" d="M 53.580284 183.718125 
L 56.432727 183.718125 
L 56.432727 183.718125 
L 53.580284 183.718125 
z
" style="fill:#1f77b4;opacity:0.5;"/>
   </g>
   <g id="patch_5">
    <path clip-path="url(#pd1ed94c87a)" d="M 56.432727 183.718125 
L 59.28517 183.718125 
L 59.28517 183.718125 
L 56.432727 183.718125 
z
" style="fill:#1f77b4;opacity:0.5;"/>
   </g>
   <g id="patch_6">
    <path clip-path="url(#pd1ed94c87a)" d="M 59.28517 183.718125 
L 62.137614 183.718125 
L 62.137614 183.718125 
L 59.28517 183.718125 
z
" style="fill:#1f77b4;opacity:0.5;"/>
   </g>
   <g id="patch_7">
    <path clip-path="url(#pd1ed94c87a)" d="M 62.137614 183.718125 
L 64.990057 183.718125 
L 64.990057 183.673852 
L 62.137614 183.673852 
z
" style="fill:#1f77b4;opacity:0.5;"/>
   </g>
   <g id="patch_8">
    <path clip-path="url(#pd1ed94c87a)" d="M 64.990057 183.718125 
L 67.8425 183.718125 
L 67.8425 183.718125 
L 64.990057 183.718125 
z
" style="fill:#1f77b4;opacity:0.5;"/>
   </g>
   <g id="patch_9">
    <path clip-path="url(#pd1ed94c87a)" d="M 67.8425 183.718125 
L 70.694943 183.718125 
L 70.694943 183.496762 
L 67.8425 183.496762 
z
" style="fill:#1f77b4;opacity:0.5;"/>
   </g>
   <g id="patch_10">
    <path clip-path="url(#pd1ed94c87a)" d="M 70.694943 183.718125 
L 73.547386 183.718125 
L 73.547386 183.45249 
L 70.694943 183.45249 
z
" style="fill:#1f77b4;opacity:0.5;"/>
   </g>
   <g id="patch_11">
    <path clip-path="url(#pd1ed94c87a)" d="M 73.547386 183.718125 
L 76.39983 183.718125 
L 76.39983 183.45249 
L 73.547386 183.45249 
z
" style="fill:#1f77b4;opacity:0.5;"/>
   </g>
   <g id="patch_12">
    <path clip-path="url(#pd1ed94c87a)" d="M 76.39983 183.718125 
L 79.252273 183.718125 
L 79.252273 183.541035 
L 76.39983 183.541035 
z
" style="fill:#1f77b4;opacity:0.5;"/>
   </g>
   <g id="patch_13">
    <path clip-path="url(#pd1ed94c87a)" d="M 79.252273 183.718125 
L 82.104716 183.718125 
L 82.104716 183.408217 
L 79.252273 183.408217 
z
" style="fill:#1f77b4;opacity:0.5;"/>
   </g>
   <g id="patch_14">
    <path clip-path="url(#pd1ed94c87a)" d="M 82.104716 183.718125 
L 84.957159 183.718125 
L 84.957159 183.142582 
L 82.104716 183.142582 
z
" style="fill:#1f77b4;opacity:0.5;"/>
   </g>
   <g id="patch_15">
    <path clip-path="url(#pd1ed94c87a)" d="M 84.957159 183.718125 
L 87.809602 183.718125 
L 87.809602 183.098309 
L 84.957159 183.098309 
z
" style="fill:#1f77b4;opacity:0.5;"/>
   </g>
   <g id="patch_16">
    <path clip-path="url(#pd1ed94c87a)" d="M 87.809602 183.718125 
L 90.662045 183.718125 
L 90.662045 182.788401 
L 87.809602 182.788401 
z
" style="fill:#1f77b4;opacity:0.5;"/>
   </g>
   <g id="patch_17">
    <path clip-path="url(#pd1ed94c87a)" d="M 90.662045 183.718125 
L 93.514489 183.718125 
L 93.514489 182.345676 
L 90.662045 182.345676 
z
" style="fill:#1f77b4;opacity:0.5;"/>
   </g>
   <g id="patch_18">
    <path clip-path="url(#pd1ed94c87a)" d="M 93.514489 183.718125 
L 96.366932 183.718125 
L 96.366932 181.991496 
L 93.514489 181.991496 
z
" style="fill:#1f77b4;opacity:0.5;"/>
   </g>
   <g id="patch_19">
    <path clip-path="url(#pd1ed94c87a)" d="M 96.366932 183.718125 
L 99.219375 183.718125 
L 99.219375 181.504498 
L 96.366932 181.504498 
z
" style="fill:#1f77b4;opacity:0.5;"/>
   </g>
   <g id="patch_20">
    <path clip-path="url(#pd1ed94c87a)" d="M 99.219375 183.718125 
L 102.071818 183.718125 
L 102.071818 181.283135 
L 99.219375 181.283135 
z
" style="fill:#1f77b4;opacity:0.5;"/>
   </g>
   <g id="patch_21">
    <path clip-path="url(#pd1ed94c87a)" d="M 102.071818 183.718125 
L 104.924261 183.718125 
L 104.924261 180.619047 
L 102.071818 180.619047 
z
" style="fill:#1f77b4;opacity:0.5;"/>
   </g>
   <g id="patch_22">
    <path clip-path="url(#pd1ed94c87a)" d="M 104.924261 183.718125 
L 107.776705 183.718125 
L 107.776705 179.46796 
L 104.924261 179.46796 
z
" style="fill:#1f77b4;opacity:0.5;"/>
   </g>
   <g id="patch_23">
    <path clip-path="url(#pd1ed94c87a)" d="M 107.776705 183.718125 
L 110.629148 183.718125 
L 110.629148 178.405419 
L 107.776705 178.405419 
z
" style="fill:#1f77b4;opacity:0.5;"/>
   </g>
   <g id="patch_24">
    <path clip-path="url(#pd1ed94c87a)" d="M 110.629148 183.718125 
L 113.481591 183.718125 
L 113.481591 178.228329 
L 110.629148 178.228329 
z
" style="fill:#1f77b4;opacity:0.5;"/>
   </g>
   <g id="patch_25">
    <path clip-path="url(#pd1ed94c87a)" d="M 113.481591 183.718125 
L 116.334034 183.718125 
L 116.334034 175.040706 
L 113.481591 175.040706 
z
" style="fill:#1f77b4;opacity:0.5;"/>
   </g>
   <g id="patch_26">
    <path clip-path="url(#pd1ed94c87a)" d="M 116.334034 183.718125 
L 119.186477 183.718125 
L 119.186477 173.446894 
L 116.334034 173.446894 
z
" style="fill:#1f77b4;opacity:0.5;"/>
   </g>
   <g id="patch_27">
    <path clip-path="url(#pd1ed94c87a)" d="M 119.186477 183.718125 
L 122.03892 183.718125 
L 122.03892 171.277539 
L 119.186477 171.277539 
z
" style="fill:#1f77b4;opacity:0.5;"/>
   </g>
   <g id="patch_28">
    <path clip-path="url(#pd1ed94c87a)" d="M 122.03892 183.718125 
L 124.891364 183.718125 
L 124.891364 169.949363 
L 122.03892 169.949363 
z
" style="fill:#1f77b4;opacity:0.5;"/>
   </g>
   <g id="patch_29">
    <path clip-path="url(#pd1ed94c87a)" d="M 124.891364 183.718125 
L 127.743807 183.718125 
L 127.743807 169.462365 
L 124.891364 169.462365 
z
" style="fill:#1f77b4;opacity:0.5;"/>
   </g>
   <g id="patch_30">
    <path clip-path="url(#pd1ed94c87a)" d="M 127.743807 183.718125 
L 130.59625 183.718125 
L 130.59625 164.85802 
L 127.743807 164.85802 
z
" style="fill:#1f77b4;opacity:0.5;"/>
   </g>
   <g id="patch_31">
    <path clip-path="url(#pd1ed94c87a)" d="M 130.59625 183.718125 
L 133.448693 183.718125 
L 133.448693 159.678132 
L 130.59625 159.678132 
z
" style="fill:#1f77b4;opacity:0.5;"/>
   </g>
   <g id="patch_32">
    <path clip-path="url(#pd1ed94c87a)" d="M 133.448693 183.718125 
L 136.301136 183.718125 
L 136.301136 156.579053 
L 133.448693 156.579053 
z
" style="fill:#1f77b4;opacity:0.5;"/>
   </g>
   <g id="patch_33">
    <path clip-path="url(#pd1ed94c87a)" d="M 136.301136 183.718125 
L 139.15358 183.718125 
L 139.15358 153.125795 
L 136.301136 153.125795 
z
" style="fill:#1f77b4;opacity:0.5;"/>
   </g>
   <g id="patch_34">
    <path clip-path="url(#pd1ed94c87a)" d="M 139.15358 183.718125 
L 142.006023 183.718125 
L 142.006023 146.175005 
L 139.15358 146.175005 
z
" style="fill:#1f77b4;opacity:0.5;"/>
   </g>
   <g id="patch_35">
    <path clip-path="url(#pd1ed94c87a)" d="M 142.006023 183.718125 
L 144.858466 183.718125 
L 144.858466 143.208744 
L 142.006023 143.208744 
z
" style="fill:#1f77b4;opacity:0.5;"/>
   </g>
   <g id="patch_36">
    <path clip-path="url(#pd1ed94c87a)" d="M 144.858466 183.718125 
L 147.710909 183.718125 
L 147.710909 136.346499 
L 144.858466 136.346499 
z
" style="fill:#1f77b4;opacity:0.5;"/>
   </g>
   <g id="patch_37">
    <path clip-path="url(#pd1ed94c87a)" d="M 147.710909 183.718125 
L 150.563352 183.718125 
L 150.563352 127.226354 
L 147.710909 127.226354 
z
" style="fill:#1f77b4;opacity:0.5;"/>
   </g>
   <g id="patch_38">
    <path clip-path="url(#pd1ed94c87a)" d="M 150.563352 183.718125 
L 153.415795 183.718125 
L 153.415795 123.551733 
L 150.563352 123.551733 
z
" style="fill:#1f77b4;opacity:0.5;"/>
   </g>
   <g id="patch_39">
    <path clip-path="url(#pd1ed94c87a)" d="M 153.415795 183.718125 
L 156.268239 183.718125 
L 156.268239 115.981127 
L 153.415795 115.981127 
z
" style="fill:#1f77b4;opacity:0.5;"/>
   </g>
   <g id="patch_40">
    <path clip-path="url(#pd1ed94c87a)" d="M 156.268239 183.718125 
L 159.120682 183.718125 
L 159.120682 105.045808 
L 156.268239 105.045808 
z
" style="fill:#1f77b4;opacity:0.5;"/>
   </g>
   <g id="patch_41">
    <path clip-path="url(#pd1ed94c87a)" d="M 159.120682 183.718125 
L 161.973125 183.718125 
L 161.973125 100.618553 
L 159.120682 100.618553 
z
" style="fill:#1f77b4;opacity:0.5;"/>
   </g>
   <g id="patch_42">
    <path clip-path="url(#pd1ed94c87a)" d="M 161.973125 183.718125 
L 164.825568 183.718125 
L 164.825568 94.420396 
L 161.973125 94.420396 
z
" style="fill:#1f77b4;opacity:0.5;"/>
   </g>
   <g id="patch_43">
    <path clip-path="url(#pd1ed94c87a)" d="M 164.825568 183.718125 
L 167.678011 183.718125 
L 167.678011 84.326255 
L 164.825568 84.326255 
z
" style="fill:#1f77b4;opacity:0.5;"/>
   </g>
   <g id="patch_44">
    <path clip-path="url(#pd1ed94c87a)" d="M 167.678011 183.718125 
L 170.530455 183.718125 
L 170.530455 80.253181 
L 167.678011 80.253181 
z
" style="fill:#1f77b4;opacity:0.5;"/>
   </g>
   <g id="patch_45">
    <path clip-path="url(#pd1ed94c87a)" d="M 170.530455 183.718125 
L 173.382898 183.718125 
L 173.382898 67.015689 
L 170.530455 67.015689 
z
" style="fill:#1f77b4;opacity:0.5;"/>
   </g>
   <g id="patch_46">
    <path clip-path="url(#pd1ed94c87a)" d="M 173.382898 183.718125 
L 176.235341 183.718125 
L 176.235341 60.330534 
L 173.382898 60.330534 
z
" style="fill:#1f77b4;opacity:0.5;"/>
   </g>
   <g id="patch_47">
    <path clip-path="url(#pd1ed94c87a)" d="M 176.235341 183.718125 
L 179.087784 183.718125 
L 179.087784 59.666446 
L 176.235341 59.666446 
z
" style="fill:#1f77b4;opacity:0.5;"/>
   </g>
   <g id="patch_48">
    <path clip-path="url(#pd1ed94c87a)" d="M 179.087784 183.718125 
L 181.940227 183.718125 
L 181.940227 50.634847 
L 179.087784 50.634847 
z
" style="fill:#1f77b4;opacity:0.5;"/>
   </g>
   <g id="patch_49">
    <path clip-path="url(#pd1ed94c87a)" d="M 181.940227 183.718125 
L 184.79267 183.718125 
L 184.79267 44.038237 
L 181.940227 44.038237 
z
" style="fill:#1f77b4;opacity:0.5;"/>
   </g>
   <g id="patch_50">
    <path clip-path="url(#pd1ed94c87a)" d="M 184.79267 183.718125 
L 187.645114 183.718125 
L 187.645114 44.215327 
L 184.79267 44.215327 
z
" style="fill:#1f77b4;opacity:0.5;"/>
   </g>
   <g id="patch_51">
    <path clip-path="url(#pd1ed94c87a)" d="M 187.645114 183.718125 
L 190.497557 183.718125 
L 190.497557 35.360818 
L 187.645114 35.360818 
z
" style="fill:#1f77b4;opacity:0.5;"/>
   </g>
   <g id="patch_52">
    <path clip-path="url(#pd1ed94c87a)" d="M 190.497557 183.718125 
L 193.35 183.718125 
L 193.35 35.58218 
L 190.497557 35.58218 
z
" style="fill:#1f77b4;opacity:0.5;"/>
   </g>
   <g id="patch_53">
    <path clip-path="url(#pd1ed94c87a)" d="M 193.35 183.718125 
L 196.202443 183.718125 
L 196.202443 34.342549 
L 193.35 34.342549 
z
" style="fill:#1f77b4;opacity:0.5;"/>
   </g>
   <g id="patch_54">
    <path clip-path="url(#pd1ed94c87a)" d="M 196.202443 183.718125 
L 199.054886 183.718125 
L 199.054886 33.811278 
L 196.202443 33.811278 
z
" style="fill:#1f77b4;opacity:0.5;"/>
   </g>
   <g id="patch_55">
    <path clip-path="url(#pd1ed94c87a)" d="M 199.054886 183.718125 
L 201.90733 183.718125 
L 201.90733 30.003839 
L 199.054886 30.003839 
z
" style="fill:#1f77b4;opacity:0.5;"/>
   </g>
   <g id="patch_56">
    <path clip-path="url(#pd1ed94c87a)" d="M 201.90733 183.718125 
L 204.759773 183.718125 
L 204.759773 38.991166 
L 201.90733 38.991166 
z
" style="fill:#1f77b4;opacity:0.5;"/>
   </g>
   <g id="patch_57">
    <path clip-path="url(#pd1ed94c87a)" d="M 204.759773 183.718125 
L 207.612216 183.718125 
L 207.612216 39.876617 
L 204.759773 39.876617 
z
" style="fill:#1f77b4;opacity:0.5;"/>
   </g>
   <g id="patch_58">
    <path clip-path="url(#pd1ed94c87a)" d="M 207.612216 183.718125 
L 210.464659 183.718125 
L 210.464659 44.43669 
L 207.612216 44.43669 
z
" style="fill:#1f77b4;opacity:0.5;"/>
   </g>
   <g id="patch_59">
    <path clip-path="url(#pd1ed94c87a)" d="M 210.464659 183.718125 
L 213.317102 183.718125 
L 213.317102 48.199856 
L 210.464659 48.199856 
z
" style="fill:#1f77b4;opacity:0.5;"/>
   </g>
   <g id="patch_60">
    <path clip-path="url(#pd1ed94c87a)" d="M 213.317102 183.718125 
L 216.169545 183.718125 
L 216.169545 54.043833 
L 213.317102 54.043833 
z
" style="fill:#1f77b4;opacity:0.5;"/>
   </g>
   <g id="patch_61">
    <path clip-path="url(#pd1ed94c87a)" d="M 216.169545 183.718125 
L 219.021989 183.718125 
L 219.021989 64.137974 
L 216.169545 64.137974 
z
" style="fill:#1f77b4;opacity:0.5;"/>
   </g>
   <g id="patch_62">
    <path clip-path="url(#pd1ed94c87a)" d="M 219.021989 183.718125 
L 221.874432 183.718125 
L 221.874432 66.617236 
L 219.021989 66.617236 
z
" style="fill:#1f77b4;opacity:0.5;"/>
   </g>
   <g id="patch_63">
    <path clip-path="url(#pd1ed94c87a)" d="M 221.874432 183.718125 
L 224.726875 183.718125 
L 224.726875 69.80486 
L 221.874432 69.80486 
z
" style="fill:#1f77b4;opacity:0.5;"/>
   </g>
   <g id="patch_64">
    <path clip-path="url(#pd1ed94c87a)" d="M 224.726875 183.718125 
L 227.579318 183.718125 
L 227.579318 81.44854 
L 224.726875 81.44854 
z
" style="fill:#1f77b4;opacity:0.5;"/>
   </g>
   <g id="patch_65">
    <path clip-path="url(#pd1ed94c87a)" d="M 227.579318 183.718125 
L 230.431761 183.718125 
L 230.431761 88.133694 
L 227.579318 88.133694 
z
" style="fill:#1f77b4;opacity:0.5;"/>
   </g>
   <g id="patch_66">
    <path clip-path="url(#pd1ed94c87a)" d="M 230.431761 183.718125 
L 233.284205 183.718125 
L 233.284205 98.449198 
L 230.431761 98.449198 
z
" style="fill:#1f77b4;opacity:0.5;"/>
   </g>
   <g id="patch_67">
    <path clip-path="url(#pd1ed94c87a)" d="M 233.284205 183.718125 
L 236.136648 183.718125 
L 236.136648 104.381719 
L 233.284205 104.381719 
z
" style="fill:#1f77b4;opacity:0.5;"/>
   </g>
   <g id="patch_68">
    <path clip-path="url(#pd1ed94c87a)" d="M 236.136648 183.718125 
L 238.989091 183.718125 
L 238.989091 112.704958 
L 236.136648 112.704958 
z
" style="fill:#1f77b4;opacity:0.5;"/>
   </g>
   <g id="patch_69">
    <path clip-path="url(#pd1ed94c87a)" d="M 238.989091 183.718125 
L 241.841534 183.718125 
L 241.841534 117.397849 
L 238.989091 117.397849 
z
" style="fill:#1f77b4;opacity:0.5;"/>
   </g>
   <g id="patch_70">
    <path clip-path="url(#pd1ed94c87a)" d="M 241.841534 183.718125 
L 244.693977 183.718125 
L 244.693977 124.392911 
L 241.841534 124.392911 
z
" style="fill:#1f77b4;opacity:0.5;"/>
   </g>
   <g id="patch_71">
    <path clip-path="url(#pd1ed94c87a)" d="M 244.693977 183.718125 
L 247.54642 183.718125 
L 247.54642 129.794162 
L 244.693977 129.794162 
z
" style="fill:#1f77b4;opacity:0.5;"/>
   </g>
   <g id="patch_72">
    <path clip-path="url(#pd1ed94c87a)" d="M 247.54642 183.718125 
L 250.398864 183.718125 
L 250.398864 140.463846 
L 247.54642 140.463846 
z
" style="fill:#1f77b4;opacity:0.5;"/>
   </g>
   <g id="patch_73">
    <path clip-path="url(#pd1ed94c87a)" d="M 250.398864 183.718125 
L 253.251307 183.718125 
L 253.251307 145.599461 
L 250.398864 145.599461 
z
" style="fill:#1f77b4;opacity:0.5;"/>
   </g>
   <g id="patch_74">
    <path clip-path="url(#pd1ed94c87a)" d="M 253.251307 183.718125 
L 256.10375 183.718125 
L 256.10375 148.300087 
L 253.251307 148.300087 
z
" style="fill:#1f77b4;opacity:0.5;"/>
   </g>
   <g id="patch_75">
    <path clip-path="url(#pd1ed94c87a)" d="M 256.10375 183.718125 
L 258.956193 183.718125 
L 258.956193 153.657065 
L 256.10375 153.657065 
z
" style="fill:#1f77b4;opacity:0.5;"/>
   </g>
   <g id="patch_76">
    <path clip-path="url(#pd1ed94c87a)" d="M 258.956193 183.718125 
L 261.808636 183.718125 
L 261.808636 157.90723 
L 258.956193 157.90723 
z
" style="fill:#1f77b4;opacity:0.5;"/>
   </g>
   <g id="patch_77">
    <path clip-path="url(#pd1ed94c87a)" d="M 261.808636 183.718125 
L 264.66108 183.718125 
L 264.66108 162.60012 
L 261.808636 162.60012 
z
" style="fill:#1f77b4;opacity:0.5;"/>
   </g>
   <g id="patch_78">
    <path clip-path="url(#pd1ed94c87a)" d="M 264.66108 183.718125 
L 267.513523 183.718125 
L 267.513523 165.433563 
L 264.66108 165.433563 
z
" style="fill:#1f77b4;opacity:0.5;"/>
   </g>
   <g id="patch_79">
    <path clip-path="url(#pd1ed94c87a)" d="M 267.513523 183.718125 
L 270.365966 183.718125 
L 270.365966 169.196729 
L 267.513523 169.196729 
z
" style="fill:#1f77b4;opacity:0.5;"/>
   </g>
   <g id="patch_80">
    <path clip-path="url(#pd1ed94c87a)" d="M 270.365966 183.718125 
L 273.218409 183.718125 
L 273.218409 171.144721 
L 270.365966 171.144721 
z
" style="fill:#1f77b4;opacity:0.5;"/>
   </g>
   <g id="patch_81">
    <path clip-path="url(#pd1ed94c87a)" d="M 273.218409 183.718125 
L 276.070852 183.718125 
L 276.070852 173.314076 
L 273.218409 173.314076 
z
" style="fill:#1f77b4;opacity:0.5;"/>
   </g>
   <g id="patch_82">
    <path clip-path="url(#pd1ed94c87a)" d="M 276.070852 183.718125 
L 278.923295 183.718125 
L 278.923295 174.376617 
L 276.070852 174.376617 
z
" style="fill:#1f77b4;opacity:0.5;"/>
   </g>
   <g id="patch_83">
    <path clip-path="url(#pd1ed94c87a)" d="M 278.923295 183.718125 
L 281.775739 183.718125 
L 281.775739 177.298606 
L 278.923295 177.298606 
z
" style="fill:#1f77b4;opacity:0.5;"/>
   </g>
   <g id="patch_84">
    <path clip-path="url(#pd1ed94c87a)" d="M 281.775739 183.718125 
L 284.628182 183.718125 
L 284.628182 177.962694 
L 281.775739 177.962694 
z
" style="fill:#1f77b4;opacity:0.5;"/>
   </g>
   <g id="patch_85">
    <path clip-path="url(#pd1ed94c87a)" d="M 284.628182 183.718125 
L 287.480625 183.718125 
L 287.480625 179.46796 
L 284.628182 179.46796 
z
" style="fill:#1f77b4;opacity:0.5;"/>
   </g>
   <g id="patch_86">
    <path clip-path="url(#pd1ed94c87a)" d="M 287.480625 183.718125 
L 290.333068 183.718125 
L 290.333068 180.043504 
L 287.480625 180.043504 
z
" style="fill:#1f77b4;opacity:0.5;"/>
   </g>
   <g id="patch_87">
    <path clip-path="url(#pd1ed94c87a)" d="M 290.333068 183.718125 
L 293.185511 183.718125 
L 293.185511 180.973227 
L 290.333068 180.973227 
z
" style="fill:#1f77b4;opacity:0.5;"/>
   </g>
   <g id="patch_88">
    <path clip-path="url(#pd1ed94c87a)" d="M 293.185511 183.718125 
L 296.037955 183.718125 
L 296.037955 180.973227 
L 293.185511 180.973227 
z
" style="fill:#1f77b4;opacity:0.5;"/>
   </g>
   <g id="patch_89">
    <path clip-path="url(#pd1ed94c87a)" d="M 296.037955 183.718125 
L 298.890398 183.718125 
L 298.890398 181.72586 
L 296.037955 181.72586 
z
" style="fill:#1f77b4;opacity:0.5;"/>
   </g>
   <g id="patch_90">
    <path clip-path="url(#pd1ed94c87a)" d="M 298.890398 183.718125 
L 301.742841 183.718125 
L 301.742841 182.522766 
L 298.890398 182.522766 
z
" style="fill:#1f77b4;opacity:0.5;"/>
   </g>
   <g id="patch_91">
    <path clip-path="url(#pd1ed94c87a)" d="M 301.742841 183.718125 
L 304.595284 183.718125 
L 304.595284 182.788401 
L 301.742841 182.788401 
z
" style="fill:#1f77b4;opacity:0.5;"/>
   </g>
   <g id="patch_92">
    <path clip-path="url(#pd1ed94c87a)" d="M 304.595284 183.718125 
L 307.447727 183.718125 
L 307.447727 183.319672 
L 304.595284 183.319672 
z
" style="fill:#1f77b4;opacity:0.5;"/>
   </g>
   <g id="patch_93">
    <path clip-path="url(#pd1ed94c87a)" d="M 307.447727 183.718125 
L 310.30017 183.718125 
L 310.30017 183.098309 
L 307.447727 183.098309 
z
" style="fill:#1f77b4;opacity:0.5;"/>
   </g>
   <g id="patch_94">
    <path clip-path="url(#pd1ed94c87a)" d="M 310.30017 183.718125 
L 313.152614 183.718125 
L 313.152614 183.186854 
L 310.30017 183.186854 
z
" style="fill:#1f77b4;opacity:0.5;"/>
   </g>
   <g id="patch_95">
    <path clip-path="url(#pd1ed94c87a)" d="M 313.152614 183.718125 
L 316.005057 183.718125 
L 316.005057 183.363945 
L 313.152614 183.363945 
z
" style="fill:#1f77b4;opacity:0.5;"/>
   </g>
   <g id="patch_96">
    <path clip-path="url(#pd1ed94c87a)" d="M 316.005057 183.718125 
L 318.8575 183.718125 
L 318.8575 183.408217 
L 316.005057 183.408217 
z
" style="fill:#1f77b4;opacity:0.5;"/>
   </g>
   <g id="patch_97">
    <path clip-path="url(#pd1ed94c87a)" d="M 318.8575 183.718125 
L 321.709943 183.718125 
L 321.709943 183.408217 
L 318.8575 183.408217 
z
" style="fill:#1f77b4;opacity:0.5;"/>
   </g>
   <g id="patch_98">
    <path clip-path="url(#pd1ed94c87a)" d="M 321.709943 183.718125 
L 324.562386 183.718125 
L 324.562386 183.673852 
L 321.709943 183.673852 
z
" style="fill:#1f77b4;opacity:0.5;"/>
   </g>
   <g id="patch_99">
    <path clip-path="url(#pd1ed94c87a)" d="M 324.562386 183.718125 
L 327.41483 183.718125 
L 327.41483 183.62958 
L 324.562386 183.62958 
z
" style="fill:#1f77b4;opacity:0.5;"/>
   </g>
   <g id="patch_100">
    <path clip-path="url(#pd1ed94c87a)" d="M 327.41483 183.718125 
L 330.267273 183.718125 
L 330.267273 183.496762 
L 327.41483 183.496762 
z
" style="fill:#1f77b4;opacity:0.5;"/>
   </g>
   <g id="patch_101">
    <path clip-path="url(#pd1ed94c87a)" d="M 330.267273 183.718125 
L 333.119716 183.718125 
L 333.119716 183.718125 
L 330.267273 183.718125 
z
" style="fill:#1f77b4;opacity:0.5;"/>
   </g>
   <g id="patch_102">
    <path clip-path="url(#pd1ed94c87a)" d="M 333.119716 183.718125 
L 335.972159 183.718125 
L 335.972159 183.673852 
L 333.119716 183.673852 
z
" style="fill:#1f77b4;opacity:0.5;"/>
   </g>
   <g id="matplotlib.axis_1">
    <g id="xtick_1">
     <g id="line2d_1">
      <defs>
       <path d="M 0 0 
L 0 3.5 
" id="m2f9fb21c1c" style="stroke:#000000;stroke-width:0.8;"/>
      </defs>
      <g>
       <use style="stroke:#000000;stroke-width:0.8;" x="71.459353" xlink:href="#m2f9fb21c1c" y="183.718125"/>
      </g>
     </g>
     <g id="text_1">
      <!-- 0 -->
      <defs>
       <path d="M 31.78125 66.40625 
Q 24.171875 66.40625 20.328125 58.90625 
Q 16.5 51.421875 16.5 36.375 
Q 16.5 21.390625 20.328125 13.890625 
Q 24.171875 6.390625 31.78125 6.390625 
Q 39.453125 6.390625 43.28125 13.890625 
Q 47.125 21.390625 47.125 36.375 
Q 47.125 51.421875 43.28125 58.90625 
Q 39.453125 66.40625 31.78125 66.40625 
z
M 31.78125 74.21875 
Q 44.046875 74.21875 50.515625 64.515625 
Q 56.984375 54.828125 56.984375 36.375 
Q 56.984375 17.96875 50.515625 8.265625 
Q 44.046875 -1.421875 31.78125 -1.421875 
Q 19.53125 -1.421875 13.0625 8.265625 
Q 6.59375 17.96875 6.59375 36.375 
Q 6.59375 54.828125 13.0625 64.515625 
Q 19.53125 74.21875 31.78125 74.21875 
z
" id="DejaVuSans-48"/>
      </defs>
      <g transform="translate(68.278103 198.316562)scale(0.1 -0.1)">
       <use xlink:href="#DejaVuSans-48"/>
      </g>
     </g>
    </g>
    <g id="xtick_2">
     <g id="line2d_2">
      <g>
       <use style="stroke:#000000;stroke-width:0.8;" x="118.702047" xlink:href="#m2f9fb21c1c" y="183.718125"/>
      </g>
     </g>
     <g id="text_2">
      <!-- 5 -->
      <defs>
       <path d="M 10.796875 72.90625 
L 49.515625 72.90625 
L 49.515625 64.59375 
L 19.828125 64.59375 
L 19.828125 46.734375 
Q 21.96875 47.46875 24.109375 47.828125 
Q 26.265625 48.1875 28.421875 48.1875 
Q 40.625 48.1875 47.75 41.5 
Q 54.890625 34.8125 54.890625 23.390625 
Q 54.890625 11.625 47.5625 5.09375 
Q 40.234375 -1.421875 26.90625 -1.421875 
Q 22.3125 -1.421875 17.546875 -0.640625 
Q 12.796875 0.140625 7.71875 1.703125 
L 7.71875 11.625 
Q 12.109375 9.234375 16.796875 8.0625 
Q 21.484375 6.890625 26.703125 6.890625 
Q 35.15625 6.890625 40.078125 11.328125 
Q 45.015625 15.765625 45.015625 23.390625 
Q 45.015625 31 40.078125 35.4375 
Q 35.15625 39.890625 26.703125 39.890625 
Q 22.75 39.890625 18.8125 39.015625 
Q 14.890625 38.140625 10.796875 36.28125 
z
" id="DejaVuSans-53"/>
      </defs>
      <g transform="translate(115.520797 198.316562)scale(0.1 -0.1)">
       <use xlink:href="#DejaVuSans-53"/>
      </g>
     </g>
    </g>
    <g id="xtick_3">
     <g id="line2d_3">
      <g>
       <use style="stroke:#000000;stroke-width:0.8;" x="165.944741" xlink:href="#m2f9fb21c1c" y="183.718125"/>
      </g>
     </g>
     <g id="text_3">
      <!-- 10 -->
      <defs>
       <path d="M 12.40625 8.296875 
L 28.515625 8.296875 
L 28.515625 63.921875 
L 10.984375 60.40625 
L 10.984375 69.390625 
L 28.421875 72.90625 
L 38.28125 72.90625 
L 38.28125 8.296875 
L 54.390625 8.296875 
L 54.390625 0 
L 12.40625 0 
z
" id="DejaVuSans-49"/>
      </defs>
      <g transform="translate(159.582241 198.316562)scale(0.1 -0.1)">
       <use xlink:href="#DejaVuSans-49"/>
       <use x="63.623047" xlink:href="#DejaVuSans-48"/>
      </g>
     </g>
    </g>
    <g id="xtick_4">
     <g id="line2d_4">
      <g>
       <use style="stroke:#000000;stroke-width:0.8;" x="213.187435" xlink:href="#m2f9fb21c1c" y="183.718125"/>
      </g>
     </g>
     <g id="text_4">
      <!-- 15 -->
      <g transform="translate(206.824935 198.316562)scale(0.1 -0.1)">
       <use xlink:href="#DejaVuSans-49"/>
       <use x="63.623047" xlink:href="#DejaVuSans-53"/>
      </g>
     </g>
    </g>
    <g id="xtick_5">
     <g id="line2d_5">
      <g>
       <use style="stroke:#000000;stroke-width:0.8;" x="260.430129" xlink:href="#m2f9fb21c1c" y="183.718125"/>
      </g>
     </g>
     <g id="text_5">
      <!-- 20 -->
      <defs>
       <path d="M 19.1875 8.296875 
L 53.609375 8.296875 
L 53.609375 0 
L 7.328125 0 
L 7.328125 8.296875 
Q 12.9375 14.109375 22.625 23.890625 
Q 32.328125 33.6875 34.8125 36.53125 
Q 39.546875 41.84375 41.421875 45.53125 
Q 43.3125 49.21875 43.3125 52.78125 
Q 43.3125 58.59375 39.234375 62.25 
Q 35.15625 65.921875 28.609375 65.921875 
Q 23.96875 65.921875 18.8125 64.3125 
Q 13.671875 62.703125 7.8125 59.421875 
L 7.8125 69.390625 
Q 13.765625 71.78125 18.9375 73 
Q 24.125 74.21875 28.421875 74.21875 
Q 39.75 74.21875 46.484375 68.546875 
Q 53.21875 62.890625 53.21875 53.421875 
Q 53.21875 48.921875 51.53125 44.890625 
Q 49.859375 40.875 45.40625 35.40625 
Q 44.1875 33.984375 37.640625 27.21875 
Q 31.109375 20.453125 19.1875 8.296875 
z
" id="DejaVuSans-50"/>
      </defs>
      <g transform="translate(254.067629 198.316562)scale(0.1 -0.1)">
       <use xlink:href="#DejaVuSans-50"/>
       <use x="63.623047" xlink:href="#DejaVuSans-48"/>
      </g>
     </g>
    </g>
    <g id="xtick_6">
     <g id="line2d_6">
      <g>
       <use style="stroke:#000000;stroke-width:0.8;" x="307.672823" xlink:href="#m2f9fb21c1c" y="183.718125"/>
      </g>
     </g>
     <g id="text_6">
      <!-- 25 -->
      <g transform="translate(301.310323 198.316562)scale(0.1 -0.1)">
       <use xlink:href="#DejaVuSans-50"/>
       <use x="63.623047" xlink:href="#DejaVuSans-53"/>
      </g>
     </g>
    </g>
   </g>
   <g id="matplotlib.axis_2">
    <g id="ytick_1">
     <g id="line2d_7">
      <defs>
       <path d="M 0 0 
L -3.5 0 
" id="m4964b3fa58" style="stroke:#000000;stroke-width:0.8;"/>
      </defs>
      <g>
       <use style="stroke:#000000;stroke-width:0.8;" x="36.465625" xlink:href="#m4964b3fa58" y="183.718125"/>
      </g>
     </g>
     <g id="text_7">
      <!-- 0.00 -->
      <defs>
       <path d="M 10.6875 12.40625 
L 21 12.40625 
L 21 0 
L 10.6875 0 
z
" id="DejaVuSans-46"/>
      </defs>
      <g transform="translate(7.2 187.517344)scale(0.1 -0.1)">
       <use xlink:href="#DejaVuSans-48"/>
       <use x="63.623047" xlink:href="#DejaVuSans-46"/>
       <use x="95.410156" xlink:href="#DejaVuSans-48"/>
       <use x="159.033203" xlink:href="#DejaVuSans-48"/>
      </g>
     </g>
    </g>
    <g id="ytick_2">
     <g id="line2d_8">
      <g>
       <use style="stroke:#000000;stroke-width:0.8;" x="36.465625" xlink:href="#m4964b3fa58" y="156.987023"/>
      </g>
     </g>
     <g id="text_8">
      <!-- 0.02 -->
      <g transform="translate(7.2 160.786242)scale(0.1 -0.1)">
       <use xlink:href="#DejaVuSans-48"/>
       <use x="63.623047" xlink:href="#DejaVuSans-46"/>
       <use x="95.410156" xlink:href="#DejaVuSans-48"/>
       <use x="159.033203" xlink:href="#DejaVuSans-50"/>
      </g>
     </g>
    </g>
    <g id="ytick_3">
     <g id="line2d_9">
      <g>
       <use style="stroke:#000000;stroke-width:0.8;" x="36.465625" xlink:href="#m4964b3fa58" y="130.255921"/>
      </g>
     </g>
     <g id="text_9">
      <!-- 0.04 -->
      <defs>
       <path d="M 37.796875 64.3125 
L 12.890625 25.390625 
L 37.796875 25.390625 
z
M 35.203125 72.90625 
L 47.609375 72.90625 
L 47.609375 25.390625 
L 58.015625 25.390625 
L 58.015625 17.1875 
L 47.609375 17.1875 
L 47.609375 0 
L 37.796875 0 
L 37.796875 17.1875 
L 4.890625 17.1875 
L 4.890625 26.703125 
z
" id="DejaVuSans-52"/>
      </defs>
      <g transform="translate(7.2 134.05514)scale(0.1 -0.1)">
       <use xlink:href="#DejaVuSans-48"/>
       <use x="63.623047" xlink:href="#DejaVuSans-46"/>
       <use x="95.410156" xlink:href="#DejaVuSans-48"/>
       <use x="159.033203" xlink:href="#DejaVuSans-52"/>
      </g>
     </g>
    </g>
    <g id="ytick_4">
     <g id="line2d_10">
      <g>
       <use style="stroke:#000000;stroke-width:0.8;" x="36.465625" xlink:href="#m4964b3fa58" y="103.524819"/>
      </g>
     </g>
     <g id="text_10">
      <!-- 0.06 -->
      <defs>
       <path d="M 33.015625 40.375 
Q 26.375 40.375 22.484375 35.828125 
Q 18.609375 31.296875 18.609375 23.390625 
Q 18.609375 15.53125 22.484375 10.953125 
Q 26.375 6.390625 33.015625 6.390625 
Q 39.65625 6.390625 43.53125 10.953125 
Q 47.40625 15.53125 47.40625 23.390625 
Q 47.40625 31.296875 43.53125 35.828125 
Q 39.65625 40.375 33.015625 40.375 
z
M 52.59375 71.296875 
L 52.59375 62.3125 
Q 48.875 64.0625 45.09375 64.984375 
Q 41.3125 65.921875 37.59375 65.921875 
Q 27.828125 65.921875 22.671875 59.328125 
Q 17.53125 52.734375 16.796875 39.40625 
Q 19.671875 43.65625 24.015625 45.921875 
Q 28.375 48.1875 33.59375 48.1875 
Q 44.578125 48.1875 50.953125 41.515625 
Q 57.328125 34.859375 57.328125 23.390625 
Q 57.328125 12.15625 50.6875 5.359375 
Q 44.046875 -1.421875 33.015625 -1.421875 
Q 20.359375 -1.421875 13.671875 8.265625 
Q 6.984375 17.96875 6.984375 36.375 
Q 6.984375 53.65625 15.1875 63.9375 
Q 23.390625 74.21875 37.203125 74.21875 
Q 40.921875 74.21875 44.703125 73.484375 
Q 48.484375 72.75 52.59375 71.296875 
z
" id="DejaVuSans-54"/>
      </defs>
      <g transform="translate(7.2 107.324038)scale(0.1 -0.1)">
       <use xlink:href="#DejaVuSans-48"/>
       <use x="63.623047" xlink:href="#DejaVuSans-46"/>
       <use x="95.410156" xlink:href="#DejaVuSans-48"/>
       <use x="159.033203" xlink:href="#DejaVuSans-54"/>
      </g>
     </g>
    </g>
    <g id="ytick_5">
     <g id="line2d_11">
      <g>
       <use style="stroke:#000000;stroke-width:0.8;" x="36.465625" xlink:href="#m4964b3fa58" y="76.793717"/>
      </g>
     </g>
     <g id="text_11">
      <!-- 0.08 -->
      <defs>
       <path d="M 31.78125 34.625 
Q 24.75 34.625 20.71875 30.859375 
Q 16.703125 27.09375 16.703125 20.515625 
Q 16.703125 13.921875 20.71875 10.15625 
Q 24.75 6.390625 31.78125 6.390625 
Q 38.8125 6.390625 42.859375 10.171875 
Q 46.921875 13.96875 46.921875 20.515625 
Q 46.921875 27.09375 42.890625 30.859375 
Q 38.875 34.625 31.78125 34.625 
z
M 21.921875 38.8125 
Q 15.578125 40.375 12.03125 44.71875 
Q 8.5 49.078125 8.5 55.328125 
Q 8.5 64.0625 14.71875 69.140625 
Q 20.953125 74.21875 31.78125 74.21875 
Q 42.671875 74.21875 48.875 69.140625 
Q 55.078125 64.0625 55.078125 55.328125 
Q 55.078125 49.078125 51.53125 44.71875 
Q 48 40.375 41.703125 38.8125 
Q 48.828125 37.15625 52.796875 32.3125 
Q 56.78125 27.484375 56.78125 20.515625 
Q 56.78125 9.90625 50.3125 4.234375 
Q 43.84375 -1.421875 31.78125 -1.421875 
Q 19.734375 -1.421875 13.25 4.234375 
Q 6.78125 9.90625 6.78125 20.515625 
Q 6.78125 27.484375 10.78125 32.3125 
Q 14.796875 37.15625 21.921875 38.8125 
z
M 18.3125 54.390625 
Q 18.3125 48.734375 21.84375 45.5625 
Q 25.390625 42.390625 31.78125 42.390625 
Q 38.140625 42.390625 41.71875 45.5625 
Q 45.3125 48.734375 45.3125 54.390625 
Q 45.3125 60.0625 41.71875 63.234375 
Q 38.140625 66.40625 31.78125 66.40625 
Q 25.390625 66.40625 21.84375 63.234375 
Q 18.3125 60.0625 18.3125 54.390625 
z
" id="DejaVuSans-56"/>
      </defs>
      <g transform="translate(7.2 80.592936)scale(0.1 -0.1)">
       <use xlink:href="#DejaVuSans-48"/>
       <use x="63.623047" xlink:href="#DejaVuSans-46"/>
       <use x="95.410156" xlink:href="#DejaVuSans-48"/>
       <use x="159.033203" xlink:href="#DejaVuSans-56"/>
      </g>
     </g>
    </g>
    <g id="ytick_6">
     <g id="line2d_12">
      <g>
       <use style="stroke:#000000;stroke-width:0.8;" x="36.465625" xlink:href="#m4964b3fa58" y="50.062615"/>
      </g>
     </g>
     <g id="text_12">
      <!-- 0.10 -->
      <g transform="translate(7.2 53.861834)scale(0.1 -0.1)">
       <use xlink:href="#DejaVuSans-48"/>
       <use x="63.623047" xlink:href="#DejaVuSans-46"/>
       <use x="95.410156" xlink:href="#DejaVuSans-49"/>
       <use x="159.033203" xlink:href="#DejaVuSans-48"/>
      </g>
     </g>
    </g>
    <g id="ytick_7">
     <g id="line2d_13">
      <g>
       <use style="stroke:#000000;stroke-width:0.8;" x="36.465625" xlink:href="#m4964b3fa58" y="23.331513"/>
      </g>
     </g>
     <g id="text_13">
      <!-- 0.12 -->
      <g transform="translate(7.2 27.130732)scale(0.1 -0.1)">
       <use xlink:href="#DejaVuSans-48"/>
       <use x="63.623047" xlink:href="#DejaVuSans-46"/>
       <use x="95.410156" xlink:href="#DejaVuSans-49"/>
       <use x="159.033203" xlink:href="#DejaVuSans-50"/>
      </g>
     </g>
    </g>
   </g>
   <g id="LineCollection_1">
    <path clip-path="url(#pd1ed94c87a)" d="M 165.944741 183.718125 
L 165.944741 34.083426 
" style="fill:none;stroke:#ff7f0e;stroke-width:1.5;"/>
   </g>
   <g id="line2d_14">
    <path clip-path="url(#pd1ed94c87a)" d="M 50.727841 183.706239 
L 53.609097 183.700948 
L 56.490352 183.693484 
L 59.371608 183.683034 
L 62.252864 183.668516 
L 65.13412 183.648504 
L 68.015375 183.621132 
L 70.896631 183.583984 
L 73.777887 183.533963 
L 76.659143 183.467134 
L 79.540398 183.37855 
L 82.421654 183.262054 
L 85.30291 183.110061 
L 88.184166 182.913329 
L 91.065421 182.660719 
L 93.946677 182.338956 
L 96.827933 181.932408 
L 99.709188 181.42289 
L 102.590444 180.789517 
L 105.4717 180.008628 
L 108.352956 179.053806 
L 111.234211 177.896006 
L 114.115467 176.503838 
L 116.996723 174.844006 
L 119.877979 172.881933 
L 122.759234 170.582593 
L 125.64049 167.911535 
L 128.521746 164.836115 
L 131.403002 161.326901 
L 134.284257 157.359243 
L 137.165513 152.914937 
L 140.046769 147.983938 
L 142.928025 142.566056 
L 145.80928 136.672526 
L 148.690536 130.327394 
L 151.571792 123.56859 
L 154.453048 116.44862 
L 157.334303 109.034786 
L 160.215559 101.408851 
L 163.096815 93.666127 
L 165.97807 85.91393 
L 168.859326 78.269443 
L 171.740582 70.857 
L 174.621838 63.804885 
L 177.503093 57.24174 
L 180.384349 51.292725 
L 183.265605 46.075583 
L 186.146861 41.696779 
L 189.028116 38.247902 
L 191.909372 35.802473 
L 194.790628 34.413349 
L 197.671884 34.110815 
L 200.553139 34.901493 
L 203.434395 36.768096 
L 206.315651 39.670063 
L 209.196907 43.545014 
L 212.078162 48.310991 
L 214.959418 53.86933 
L 217.840674 60.108057 
L 220.72193 66.905627 
L 223.603185 74.134839 
L 226.484441 81.666747 
L 229.365697 89.37441 
L 232.246952 97.136324 
L 235.128208 104.839415 
L 238.009464 112.381504 
L 240.89072 119.673187 
L 243.771975 126.63909 
L 246.653231 133.218519 
L 249.534487 139.365544 
L 252.415743 145.048555 
L 255.296998 150.249387 
L 258.178254 154.962098 
L 261.05951 159.191491 
L 263.940766 162.951468 
L 266.822021 166.26333 
L 269.703277 169.154065 
L 272.584533 171.654725 
L 275.465789 173.798928 
L 278.347044 175.621521 
L 281.2283 177.157446 
L 284.109556 178.440796 
L 286.990812 179.50408 
L 289.872067 180.377685 
L 292.753323 181.089505 
L 295.634579 181.664735 
L 298.515834 182.12579 
L 301.39709 182.492332 
L 304.278346 182.781384 
L 307.159602 183.007499 
L 310.040857 183.182966 
L 312.922113 183.318048 
L 315.803369 183.421216 
L 318.684625 183.499387 
L 321.56588 183.558153 
L 324.447136 183.601985 
L 327.328392 183.634422 
L 330.209648 183.65824 
L 333.090903 183.675593 
L 335.972159 183.688138 
" style="fill:none;stroke:#1f77b4;stroke-linecap:square;stroke-width:1.5;"/>
   </g>
   <g id="patch_103">
    <path d="M 36.465625 183.718125 
L 36.465625 22.318125 
" style="fill:none;stroke:#000000;stroke-linecap:square;stroke-linejoin:miter;stroke-width:0.8;"/>
   </g>
   <g id="patch_104">
    <path d="M 350.234375 183.718125 
L 350.234375 22.318125 
" style="fill:none;stroke:#000000;stroke-linecap:square;stroke-linejoin:miter;stroke-width:0.8;"/>
   </g>
   <g id="patch_105">
    <path d="M 36.465625 183.718125 
L 350.234375 183.718125 
" style="fill:none;stroke:#000000;stroke-linecap:square;stroke-linejoin:miter;stroke-width:0.8;"/>
   </g>
   <g id="patch_106">
    <path d="M 36.465625 22.318125 
L 350.234375 22.318125 
" style="fill:none;stroke:#000000;stroke-linecap:square;stroke-linejoin:miter;stroke-width:0.8;"/>
   </g>
   <g id="text_14">
    <!-- S: 10.0 -->
    <defs>
     <path d="M 53.515625 70.515625 
L 53.515625 60.890625 
Q 47.90625 63.578125 42.921875 64.890625 
Q 37.9375 66.21875 33.296875 66.21875 
Q 25.25 66.21875 20.875 63.09375 
Q 16.5 59.96875 16.5 54.203125 
Q 16.5 49.359375 19.40625 46.890625 
Q 22.3125 44.4375 30.421875 42.921875 
L 36.375 41.703125 
Q 47.40625 39.59375 52.65625 34.296875 
Q 57.90625 29 57.90625 20.125 
Q 57.90625 9.515625 50.796875 4.046875 
Q 43.703125 -1.421875 29.984375 -1.421875 
Q 24.8125 -1.421875 18.96875 -0.25 
Q 13.140625 0.921875 6.890625 3.21875 
L 6.890625 13.375 
Q 12.890625 10.015625 18.65625 8.296875 
Q 24.421875 6.59375 29.984375 6.59375 
Q 38.421875 6.59375 43.015625 9.90625 
Q 47.609375 13.234375 47.609375 19.390625 
Q 47.609375 24.75 44.3125 27.78125 
Q 41.015625 30.8125 33.5 32.328125 
L 27.484375 33.5 
Q 16.453125 35.6875 11.515625 40.375 
Q 6.59375 45.0625 6.59375 53.421875 
Q 6.59375 63.09375 13.40625 68.65625 
Q 20.21875 74.21875 32.171875 74.21875 
Q 37.3125 74.21875 42.625 73.28125 
Q 47.953125 72.359375 53.515625 70.515625 
z
" id="DejaVuSans-83"/>
     <path d="M 11.71875 12.40625 
L 22.015625 12.40625 
L 22.015625 0 
L 11.71875 0 
z
M 11.71875 51.703125 
L 22.015625 51.703125 
L 22.015625 39.3125 
L 11.71875 39.3125 
z
" id="DejaVuSans-58"/>
     <path id="DejaVuSans-32"/>
    </defs>
    <g transform="translate(172.253437 16.318125)scale(0.12 -0.12)">
     <use xlink:href="#DejaVuSans-83"/>
     <use x="63.476562" xlink:href="#DejaVuSans-58"/>
     <use x="97.167969" xlink:href="#DejaVuSans-32"/>
     <use x="128.955078" xlink:href="#DejaVuSans-49"/>
     <use x="192.578125" xlink:href="#DejaVuSans-48"/>
     <use x="256.201172" xlink:href="#DejaVuSans-46"/>
     <use x="287.988281" xlink:href="#DejaVuSans-48"/>
    </g>
   </g>
   <g id="legend_1">
    <g id="patch_107">
     <path d="M 304.285937 59.674375 
L 343.234375 59.674375 
Q 345.234375 59.674375 345.234375 57.674375 
L 345.234375 29.318125 
Q 345.234375 27.318125 343.234375 27.318125 
L 304.285937 27.318125 
Q 302.285937 27.318125 302.285937 29.318125 
L 302.285937 57.674375 
Q 302.285937 59.674375 304.285937 59.674375 
z
" style="fill:#ffffff;opacity:0.8;stroke:#cccccc;stroke-linejoin:miter;"/>
    </g>
    <g id="patch_108">
     <path d="M 306.285937 38.916562 
L 326.285937 38.916562 
L 326.285937 31.916562 
L 306.285937 31.916562 
z
" style="fill:#1f77b4;opacity:0.5;"/>
    </g>
    <g id="text_15">
     <!-- R -->
     <defs>
      <path d="M 44.390625 34.1875 
Q 47.5625 33.109375 50.5625 29.59375 
Q 53.5625 26.078125 56.59375 19.921875 
L 66.609375 0 
L 56 0 
L 46.6875 18.703125 
Q 43.0625 26.03125 39.671875 28.421875 
Q 36.28125 30.8125 30.421875 30.8125 
L 19.671875 30.8125 
L 19.671875 0 
L 9.8125 0 
L 9.8125 72.90625 
L 32.078125 72.90625 
Q 44.578125 72.90625 50.734375 67.671875 
Q 56.890625 62.453125 56.890625 51.90625 
Q 56.890625 45.015625 53.6875 40.46875 
Q 50.484375 35.9375 44.390625 34.1875 
z
M 19.671875 64.796875 
L 19.671875 38.921875 
L 32.078125 38.921875 
Q 39.203125 38.921875 42.84375 42.21875 
Q 46.484375 45.515625 46.484375 51.90625 
Q 46.484375 58.296875 42.84375 61.546875 
Q 39.203125 64.796875 32.078125 64.796875 
z
" id="DejaVuSans-82"/>
     </defs>
     <g transform="translate(334.285937 38.916562)scale(0.1 -0.1)">
      <use xlink:href="#DejaVuSans-82"/>
     </g>
    </g>
    <g id="line2d_15">
     <path d="M 306.285937 50.094687 
L 326.285937 50.094687 
" style="fill:none;stroke:#ff7f0e;stroke-width:1.5;"/>
    </g>
    <g id="text_16">
     <!-- S -->
     <g transform="translate(334.285937 53.594687)scale(0.1 -0.1)">
      <use xlink:href="#DejaVuSans-83"/>
     </g>
    </g>
   </g>
  </g>
  <g id="axes_2">
   <g id="patch_109">
    <path d="M 383.909375 183.718125 
L 697.678125 183.718125 
L 697.678125 22.318125 
L 383.909375 22.318125 
z
" style="fill:#ffffff;"/>
   </g>
   <g id="patch_110">
    <path clip-path="url(#p77151b2027)" d="M 398.171591 183.718125 
L 401.024034 183.718125 
L 401.024034 183.673852 
L 398.171591 183.673852 
z
" style="fill:#2ca02c;opacity:0.5;"/>
   </g>
   <g id="patch_111">
    <path clip-path="url(#p77151b2027)" d="M 401.024034 183.718125 
L 403.876477 183.718125 
L 403.876477 183.718125 
L 401.024034 183.718125 
z
" style="fill:#2ca02c;opacity:0.5;"/>
   </g>
   <g id="patch_112">
    <path clip-path="url(#p77151b2027)" d="M 403.876477 183.718125 
L 406.72892 183.718125 
L 406.72892 183.718125 
L 403.876477 183.718125 
z
" style="fill:#2ca02c;opacity:0.5;"/>
   </g>
   <g id="patch_113">
    <path clip-path="url(#p77151b2027)" d="M 406.72892 183.718125 
L 409.581364 183.718125 
L 409.581364 183.718125 
L 406.72892 183.718125 
z
" style="fill:#2ca02c;opacity:0.5;"/>
   </g>
   <g id="patch_114">
    <path clip-path="url(#p77151b2027)" d="M 409.581364 183.718125 
L 412.433807 183.718125 
L 412.433807 183.673852 
L 409.581364 183.673852 
z
" style="fill:#2ca02c;opacity:0.5;"/>
   </g>
   <g id="patch_115">
    <path clip-path="url(#p77151b2027)" d="M 412.433807 183.718125 
L 415.28625 183.718125 
L 415.28625 183.718125 
L 412.433807 183.718125 
z
" style="fill:#2ca02c;opacity:0.5;"/>
   </g>
   <g id="patch_116">
    <path clip-path="url(#p77151b2027)" d="M 415.28625 183.718125 
L 418.138693 183.718125 
L 418.138693 183.496762 
L 415.28625 183.496762 
z
" style="fill:#2ca02c;opacity:0.5;"/>
   </g>
   <g id="patch_117">
    <path clip-path="url(#p77151b2027)" d="M 418.138693 183.718125 
L 420.991136 183.718125 
L 420.991136 183.45249 
L 418.138693 183.45249 
z
" style="fill:#2ca02c;opacity:0.5;"/>
   </g>
   <g id="patch_118">
    <path clip-path="url(#p77151b2027)" d="M 420.991136 183.718125 
L 423.84358 183.718125 
L 423.84358 183.45249 
L 420.991136 183.45249 
z
" style="fill:#2ca02c;opacity:0.5;"/>
   </g>
   <g id="patch_119">
    <path clip-path="url(#p77151b2027)" d="M 423.84358 183.718125 
L 426.696023 183.718125 
L 426.696023 183.541035 
L 423.84358 183.541035 
z
" style="fill:#2ca02c;opacity:0.5;"/>
   </g>
   <g id="patch_120">
    <path clip-path="url(#p77151b2027)" d="M 426.696023 183.718125 
L 429.548466 183.718125 
L 429.548466 183.408217 
L 426.696023 183.408217 
z
" style="fill:#2ca02c;opacity:0.5;"/>
   </g>
   <g id="patch_121">
    <path clip-path="url(#p77151b2027)" d="M 429.548466 183.718125 
L 432.400909 183.718125 
L 432.400909 183.142582 
L 429.548466 183.142582 
z
" style="fill:#2ca02c;opacity:0.5;"/>
   </g>
   <g id="patch_122">
    <path clip-path="url(#p77151b2027)" d="M 432.400909 183.718125 
L 435.253352 183.718125 
L 435.253352 183.098309 
L 432.400909 183.098309 
z
" style="fill:#2ca02c;opacity:0.5;"/>
   </g>
   <g id="patch_123">
    <path clip-path="url(#p77151b2027)" d="M 435.253352 183.718125 
L 438.105795 183.718125 
L 438.105795 182.788401 
L 435.253352 182.788401 
z
" style="fill:#2ca02c;opacity:0.5;"/>
   </g>
   <g id="patch_124">
    <path clip-path="url(#p77151b2027)" d="M 438.105795 183.718125 
L 440.958239 183.718125 
L 440.958239 182.345676 
L 438.105795 182.345676 
z
" style="fill:#2ca02c;opacity:0.5;"/>
   </g>
   <g id="patch_125">
    <path clip-path="url(#p77151b2027)" d="M 440.958239 183.718125 
L 443.810682 183.718125 
L 443.810682 181.991496 
L 440.958239 181.991496 
z
" style="fill:#2ca02c;opacity:0.5;"/>
   </g>
   <g id="patch_126">
    <path clip-path="url(#p77151b2027)" d="M 443.810682 183.718125 
L 446.663125 183.718125 
L 446.663125 181.504498 
L 443.810682 181.504498 
z
" style="fill:#2ca02c;opacity:0.5;"/>
   </g>
   <g id="patch_127">
    <path clip-path="url(#p77151b2027)" d="M 446.663125 183.718125 
L 449.515568 183.718125 
L 449.515568 181.283135 
L 446.663125 181.283135 
z
" style="fill:#2ca02c;opacity:0.5;"/>
   </g>
   <g id="patch_128">
    <path clip-path="url(#p77151b2027)" d="M 449.515568 183.718125 
L 452.368011 183.718125 
L 452.368011 180.619047 
L 449.515568 180.619047 
z
" style="fill:#2ca02c;opacity:0.5;"/>
   </g>
   <g id="patch_129">
    <path clip-path="url(#p77151b2027)" d="M 452.368011 183.718125 
L 455.220455 183.718125 
L 455.220455 179.46796 
L 452.368011 179.46796 
z
" style="fill:#2ca02c;opacity:0.5;"/>
   </g>
   <g id="patch_130">
    <path clip-path="url(#p77151b2027)" d="M 455.220455 183.718125 
L 458.072898 183.718125 
L 458.072898 178.405419 
L 455.220455 178.405419 
z
" style="fill:#2ca02c;opacity:0.5;"/>
   </g>
   <g id="patch_131">
    <path clip-path="url(#p77151b2027)" d="M 458.072898 183.718125 
L 460.925341 183.718125 
L 460.925341 178.228329 
L 458.072898 178.228329 
z
" style="fill:#2ca02c;opacity:0.5;"/>
   </g>
   <g id="patch_132">
    <path clip-path="url(#p77151b2027)" d="M 460.925341 183.718125 
L 463.777784 183.718125 
L 463.777784 175.040706 
L 460.925341 175.040706 
z
" style="fill:#2ca02c;opacity:0.5;"/>
   </g>
   <g id="patch_133">
    <path clip-path="url(#p77151b2027)" d="M 463.777784 183.718125 
L 466.630227 183.718125 
L 466.630227 173.446894 
L 463.777784 173.446894 
z
" style="fill:#2ca02c;opacity:0.5;"/>
   </g>
   <g id="patch_134">
    <path clip-path="url(#p77151b2027)" d="M 466.630227 183.718125 
L 469.48267 183.718125 
L 469.48267 171.277539 
L 466.630227 171.277539 
z
" style="fill:#2ca02c;opacity:0.5;"/>
   </g>
   <g id="patch_135">
    <path clip-path="url(#p77151b2027)" d="M 469.48267 183.718125 
L 472.335114 183.718125 
L 472.335114 169.949363 
L 469.48267 169.949363 
z
" style="fill:#2ca02c;opacity:0.5;"/>
   </g>
   <g id="patch_136">
    <path clip-path="url(#p77151b2027)" d="M 472.335114 183.718125 
L 475.187557 183.718125 
L 475.187557 169.462365 
L 472.335114 169.462365 
z
" style="fill:#2ca02c;opacity:0.5;"/>
   </g>
   <g id="patch_137">
    <path clip-path="url(#p77151b2027)" d="M 475.187557 183.718125 
L 478.04 183.718125 
L 478.04 164.85802 
L 475.187557 164.85802 
z
" style="fill:#2ca02c;opacity:0.5;"/>
   </g>
   <g id="patch_138">
    <path clip-path="url(#p77151b2027)" d="M 478.04 183.718125 
L 480.892443 183.718125 
L 480.892443 159.678132 
L 478.04 159.678132 
z
" style="fill:#2ca02c;opacity:0.5;"/>
   </g>
   <g id="patch_139">
    <path clip-path="url(#p77151b2027)" d="M 480.892443 183.718125 
L 483.744886 183.718125 
L 483.744886 156.579053 
L 480.892443 156.579053 
z
" style="fill:#2ca02c;opacity:0.5;"/>
   </g>
   <g id="patch_140">
    <path clip-path="url(#p77151b2027)" d="M 483.744886 183.718125 
L 486.59733 183.718125 
L 486.59733 153.125795 
L 483.744886 153.125795 
z
" style="fill:#2ca02c;opacity:0.5;"/>
   </g>
   <g id="patch_141">
    <path clip-path="url(#p77151b2027)" d="M 486.59733 183.718125 
L 489.449773 183.718125 
L 489.449773 146.175005 
L 486.59733 146.175005 
z
" style="fill:#2ca02c;opacity:0.5;"/>
   </g>
   <g id="patch_142">
    <path clip-path="url(#p77151b2027)" d="M 489.449773 183.718125 
L 492.302216 183.718125 
L 492.302216 143.208744 
L 489.449773 143.208744 
z
" style="fill:#2ca02c;opacity:0.5;"/>
   </g>
   <g id="patch_143">
    <path clip-path="url(#p77151b2027)" d="M 492.302216 183.718125 
L 495.154659 183.718125 
L 495.154659 136.346499 
L 492.302216 136.346499 
z
" style="fill:#2ca02c;opacity:0.5;"/>
   </g>
   <g id="patch_144">
    <path clip-path="url(#p77151b2027)" d="M 495.154659 183.718125 
L 498.007102 183.718125 
L 498.007102 127.226354 
L 495.154659 127.226354 
z
" style="fill:#2ca02c;opacity:0.5;"/>
   </g>
   <g id="patch_145">
    <path clip-path="url(#p77151b2027)" d="M 498.007102 183.718125 
L 500.859545 183.718125 
L 500.859545 123.551733 
L 498.007102 123.551733 
z
" style="fill:#2ca02c;opacity:0.5;"/>
   </g>
   <g id="patch_146">
    <path clip-path="url(#p77151b2027)" d="M 500.859545 183.718125 
L 503.711989 183.718125 
L 503.711989 115.981127 
L 500.859545 115.981127 
z
" style="fill:#2ca02c;opacity:0.5;"/>
   </g>
   <g id="patch_147">
    <path clip-path="url(#p77151b2027)" d="M 503.711989 183.718125 
L 506.564432 183.718125 
L 506.564432 105.045808 
L 503.711989 105.045808 
z
" style="fill:#2ca02c;opacity:0.5;"/>
   </g>
   <g id="patch_148">
    <path clip-path="url(#p77151b2027)" d="M 506.564432 183.718125 
L 509.416875 183.718125 
L 509.416875 100.618553 
L 506.564432 100.618553 
z
" style="fill:#2ca02c;opacity:0.5;"/>
   </g>
   <g id="patch_149">
    <path clip-path="url(#p77151b2027)" d="M 509.416875 183.718125 
L 512.269318 183.718125 
L 512.269318 94.420396 
L 509.416875 94.420396 
z
" style="fill:#2ca02c;opacity:0.5;"/>
   </g>
   <g id="patch_150">
    <path clip-path="url(#p77151b2027)" d="M 512.269318 183.718125 
L 515.121761 183.718125 
L 515.121761 84.326255 
L 512.269318 84.326255 
z
" style="fill:#2ca02c;opacity:0.5;"/>
   </g>
   <g id="patch_151">
    <path clip-path="url(#p77151b2027)" d="M 515.121761 183.718125 
L 517.974205 183.718125 
L 517.974205 80.253181 
L 515.121761 80.253181 
z
" style="fill:#2ca02c;opacity:0.5;"/>
   </g>
   <g id="patch_152">
    <path clip-path="url(#p77151b2027)" d="M 517.974205 183.718125 
L 520.826648 183.718125 
L 520.826648 67.015689 
L 517.974205 67.015689 
z
" style="fill:#2ca02c;opacity:0.5;"/>
   </g>
   <g id="patch_153">
    <path clip-path="url(#p77151b2027)" d="M 520.826648 183.718125 
L 523.679091 183.718125 
L 523.679091 60.330534 
L 520.826648 60.330534 
z
" style="fill:#2ca02c;opacity:0.5;"/>
   </g>
   <g id="patch_154">
    <path clip-path="url(#p77151b2027)" d="M 523.679091 183.718125 
L 526.531534 183.718125 
L 526.531534 59.666446 
L 523.679091 59.666446 
z
" style="fill:#2ca02c;opacity:0.5;"/>
   </g>
   <g id="patch_155">
    <path clip-path="url(#p77151b2027)" d="M 526.531534 183.718125 
L 529.383977 183.718125 
L 529.383977 50.634847 
L 526.531534 50.634847 
z
" style="fill:#2ca02c;opacity:0.5;"/>
   </g>
   <g id="patch_156">
    <path clip-path="url(#p77151b2027)" d="M 529.383977 183.718125 
L 532.23642 183.718125 
L 532.23642 44.038237 
L 529.383977 44.038237 
z
" style="fill:#2ca02c;opacity:0.5;"/>
   </g>
   <g id="patch_157">
    <path clip-path="url(#p77151b2027)" d="M 532.23642 183.718125 
L 535.088864 183.718125 
L 535.088864 44.215327 
L 532.23642 44.215327 
z
" style="fill:#2ca02c;opacity:0.5;"/>
   </g>
   <g id="patch_158">
    <path clip-path="url(#p77151b2027)" d="M 535.088864 183.718125 
L 537.941307 183.718125 
L 537.941307 35.360818 
L 535.088864 35.360818 
z
" style="fill:#2ca02c;opacity:0.5;"/>
   </g>
   <g id="patch_159">
    <path clip-path="url(#p77151b2027)" d="M 537.941307 183.718125 
L 540.79375 183.718125 
L 540.79375 35.58218 
L 537.941307 35.58218 
z
" style="fill:#2ca02c;opacity:0.5;"/>
   </g>
   <g id="patch_160">
    <path clip-path="url(#p77151b2027)" d="M 540.79375 183.718125 
L 543.646193 183.718125 
L 543.646193 34.342549 
L 540.79375 34.342549 
z
" style="fill:#2ca02c;opacity:0.5;"/>
   </g>
   <g id="patch_161">
    <path clip-path="url(#p77151b2027)" d="M 543.646193 183.718125 
L 546.498636 183.718125 
L 546.498636 33.811278 
L 543.646193 33.811278 
z
" style="fill:#2ca02c;opacity:0.5;"/>
   </g>
   <g id="patch_162">
    <path clip-path="url(#p77151b2027)" d="M 546.498636 183.718125 
L 549.35108 183.718125 
L 549.35108 30.003839 
L 546.498636 30.003839 
z
" style="fill:#2ca02c;opacity:0.5;"/>
   </g>
   <g id="patch_163">
    <path clip-path="url(#p77151b2027)" d="M 549.35108 183.718125 
L 552.203523 183.718125 
L 552.203523 38.991166 
L 549.35108 38.991166 
z
" style="fill:#2ca02c;opacity:0.5;"/>
   </g>
   <g id="patch_164">
    <path clip-path="url(#p77151b2027)" d="M 552.203523 183.718125 
L 555.055966 183.718125 
L 555.055966 39.876617 
L 552.203523 39.876617 
z
" style="fill:#2ca02c;opacity:0.5;"/>
   </g>
   <g id="patch_165">
    <path clip-path="url(#p77151b2027)" d="M 555.055966 183.718125 
L 557.908409 183.718125 
L 557.908409 44.43669 
L 555.055966 44.43669 
z
" style="fill:#2ca02c;opacity:0.5;"/>
   </g>
   <g id="patch_166">
    <path clip-path="url(#p77151b2027)" d="M 557.908409 183.718125 
L 560.760852 183.718125 
L 560.760852 48.199856 
L 557.908409 48.199856 
z
" style="fill:#2ca02c;opacity:0.5;"/>
   </g>
   <g id="patch_167">
    <path clip-path="url(#p77151b2027)" d="M 560.760852 183.718125 
L 563.613295 183.718125 
L 563.613295 54.043833 
L 560.760852 54.043833 
z
" style="fill:#2ca02c;opacity:0.5;"/>
   </g>
   <g id="patch_168">
    <path clip-path="url(#p77151b2027)" d="M 563.613295 183.718125 
L 566.465739 183.718125 
L 566.465739 64.137974 
L 563.613295 64.137974 
z
" style="fill:#2ca02c;opacity:0.5;"/>
   </g>
   <g id="patch_169">
    <path clip-path="url(#p77151b2027)" d="M 566.465739 183.718125 
L 569.318182 183.718125 
L 569.318182 66.617236 
L 566.465739 66.617236 
z
" style="fill:#2ca02c;opacity:0.5;"/>
   </g>
   <g id="patch_170">
    <path clip-path="url(#p77151b2027)" d="M 569.318182 183.718125 
L 572.170625 183.718125 
L 572.170625 69.80486 
L 569.318182 69.80486 
z
" style="fill:#2ca02c;opacity:0.5;"/>
   </g>
   <g id="patch_171">
    <path clip-path="url(#p77151b2027)" d="M 572.170625 183.718125 
L 575.023068 183.718125 
L 575.023068 81.44854 
L 572.170625 81.44854 
z
" style="fill:#2ca02c;opacity:0.5;"/>
   </g>
   <g id="patch_172">
    <path clip-path="url(#p77151b2027)" d="M 575.023068 183.718125 
L 577.875511 183.718125 
L 577.875511 88.133694 
L 575.023068 88.133694 
z
" style="fill:#2ca02c;opacity:0.5;"/>
   </g>
   <g id="patch_173">
    <path clip-path="url(#p77151b2027)" d="M 577.875511 183.718125 
L 580.727955 183.718125 
L 580.727955 98.449198 
L 577.875511 98.449198 
z
" style="fill:#2ca02c;opacity:0.5;"/>
   </g>
   <g id="patch_174">
    <path clip-path="url(#p77151b2027)" d="M 580.727955 183.718125 
L 583.580398 183.718125 
L 583.580398 104.381719 
L 580.727955 104.381719 
z
" style="fill:#2ca02c;opacity:0.5;"/>
   </g>
   <g id="patch_175">
    <path clip-path="url(#p77151b2027)" d="M 583.580398 183.718125 
L 586.432841 183.718125 
L 586.432841 112.704958 
L 583.580398 112.704958 
z
" style="fill:#2ca02c;opacity:0.5;"/>
   </g>
   <g id="patch_176">
    <path clip-path="url(#p77151b2027)" d="M 586.432841 183.718125 
L 589.285284 183.718125 
L 589.285284 117.397849 
L 586.432841 117.397849 
z
" style="fill:#2ca02c;opacity:0.5;"/>
   </g>
   <g id="patch_177">
    <path clip-path="url(#p77151b2027)" d="M 589.285284 183.718125 
L 592.137727 183.718125 
L 592.137727 124.392911 
L 589.285284 124.392911 
z
" style="fill:#2ca02c;opacity:0.5;"/>
   </g>
   <g id="patch_178">
    <path clip-path="url(#p77151b2027)" d="M 592.137727 183.718125 
L 594.99017 183.718125 
L 594.99017 129.794162 
L 592.137727 129.794162 
z
" style="fill:#2ca02c;opacity:0.5;"/>
   </g>
   <g id="patch_179">
    <path clip-path="url(#p77151b2027)" d="M 594.99017 183.718125 
L 597.842614 183.718125 
L 597.842614 140.463846 
L 594.99017 140.463846 
z
" style="fill:#2ca02c;opacity:0.5;"/>
   </g>
   <g id="patch_180">
    <path clip-path="url(#p77151b2027)" d="M 597.842614 183.718125 
L 600.695057 183.718125 
L 600.695057 145.599461 
L 597.842614 145.599461 
z
" style="fill:#2ca02c;opacity:0.5;"/>
   </g>
   <g id="patch_181">
    <path clip-path="url(#p77151b2027)" d="M 600.695057 183.718125 
L 603.5475 183.718125 
L 603.5475 148.300087 
L 600.695057 148.300087 
z
" style="fill:#2ca02c;opacity:0.5;"/>
   </g>
   <g id="patch_182">
    <path clip-path="url(#p77151b2027)" d="M 603.5475 183.718125 
L 606.399943 183.718125 
L 606.399943 153.657065 
L 603.5475 153.657065 
z
" style="fill:#2ca02c;opacity:0.5;"/>
   </g>
   <g id="patch_183">
    <path clip-path="url(#p77151b2027)" d="M 606.399943 183.718125 
L 609.252386 183.718125 
L 609.252386 157.90723 
L 606.399943 157.90723 
z
" style="fill:#2ca02c;opacity:0.5;"/>
   </g>
   <g id="patch_184">
    <path clip-path="url(#p77151b2027)" d="M 609.252386 183.718125 
L 612.10483 183.718125 
L 612.10483 162.60012 
L 609.252386 162.60012 
z
" style="fill:#2ca02c;opacity:0.5;"/>
   </g>
   <g id="patch_185">
    <path clip-path="url(#p77151b2027)" d="M 612.10483 183.718125 
L 614.957273 183.718125 
L 614.957273 165.433563 
L 612.10483 165.433563 
z
" style="fill:#2ca02c;opacity:0.5;"/>
   </g>
   <g id="patch_186">
    <path clip-path="url(#p77151b2027)" d="M 614.957273 183.718125 
L 617.809716 183.718125 
L 617.809716 169.196729 
L 614.957273 169.196729 
z
" style="fill:#2ca02c;opacity:0.5;"/>
   </g>
   <g id="patch_187">
    <path clip-path="url(#p77151b2027)" d="M 617.809716 183.718125 
L 620.662159 183.718125 
L 620.662159 171.144721 
L 617.809716 171.144721 
z
" style="fill:#2ca02c;opacity:0.5;"/>
   </g>
   <g id="patch_188">
    <path clip-path="url(#p77151b2027)" d="M 620.662159 183.718125 
L 623.514602 183.718125 
L 623.514602 173.314076 
L 620.662159 173.314076 
z
" style="fill:#2ca02c;opacity:0.5;"/>
   </g>
   <g id="patch_189">
    <path clip-path="url(#p77151b2027)" d="M 623.514602 183.718125 
L 626.367045 183.718125 
L 626.367045 174.376617 
L 623.514602 174.376617 
z
" style="fill:#2ca02c;opacity:0.5;"/>
   </g>
   <g id="patch_190">
    <path clip-path="url(#p77151b2027)" d="M 626.367045 183.718125 
L 629.219489 183.718125 
L 629.219489 177.298606 
L 626.367045 177.298606 
z
" style="fill:#2ca02c;opacity:0.5;"/>
   </g>
   <g id="patch_191">
    <path clip-path="url(#p77151b2027)" d="M 629.219489 183.718125 
L 632.071932 183.718125 
L 632.071932 177.962694 
L 629.219489 177.962694 
z
" style="fill:#2ca02c;opacity:0.5;"/>
   </g>
   <g id="patch_192">
    <path clip-path="url(#p77151b2027)" d="M 632.071932 183.718125 
L 634.924375 183.718125 
L 634.924375 179.46796 
L 632.071932 179.46796 
z
" style="fill:#2ca02c;opacity:0.5;"/>
   </g>
   <g id="patch_193">
    <path clip-path="url(#p77151b2027)" d="M 634.924375 183.718125 
L 637.776818 183.718125 
L 637.776818 180.043504 
L 634.924375 180.043504 
z
" style="fill:#2ca02c;opacity:0.5;"/>
   </g>
   <g id="patch_194">
    <path clip-path="url(#p77151b2027)" d="M 637.776818 183.718125 
L 640.629261 183.718125 
L 640.629261 180.973227 
L 637.776818 180.973227 
z
" style="fill:#2ca02c;opacity:0.5;"/>
   </g>
   <g id="patch_195">
    <path clip-path="url(#p77151b2027)" d="M 640.629261 183.718125 
L 643.481705 183.718125 
L 643.481705 180.973227 
L 640.629261 180.973227 
z
" style="fill:#2ca02c;opacity:0.5;"/>
   </g>
   <g id="patch_196">
    <path clip-path="url(#p77151b2027)" d="M 643.481705 183.718125 
L 646.334148 183.718125 
L 646.334148 181.72586 
L 643.481705 181.72586 
z
" style="fill:#2ca02c;opacity:0.5;"/>
   </g>
   <g id="patch_197">
    <path clip-path="url(#p77151b2027)" d="M 646.334148 183.718125 
L 649.186591 183.718125 
L 649.186591 182.522766 
L 646.334148 182.522766 
z
" style="fill:#2ca02c;opacity:0.5;"/>
   </g>
   <g id="patch_198">
    <path clip-path="url(#p77151b2027)" d="M 649.186591 183.718125 
L 652.039034 183.718125 
L 652.039034 182.788401 
L 649.186591 182.788401 
z
" style="fill:#2ca02c;opacity:0.5;"/>
   </g>
   <g id="patch_199">
    <path clip-path="url(#p77151b2027)" d="M 652.039034 183.718125 
L 654.891477 183.718125 
L 654.891477 183.319672 
L 652.039034 183.319672 
z
" style="fill:#2ca02c;opacity:0.5;"/>
   </g>
   <g id="patch_200">
    <path clip-path="url(#p77151b2027)" d="M 654.891477 183.718125 
L 657.74392 183.718125 
L 657.74392 183.098309 
L 654.891477 183.098309 
z
" style="fill:#2ca02c;opacity:0.5;"/>
   </g>
   <g id="patch_201">
    <path clip-path="url(#p77151b2027)" d="M 657.74392 183.718125 
L 660.596364 183.718125 
L 660.596364 183.186854 
L 657.74392 183.186854 
z
" style="fill:#2ca02c;opacity:0.5;"/>
   </g>
   <g id="patch_202">
    <path clip-path="url(#p77151b2027)" d="M 660.596364 183.718125 
L 663.448807 183.718125 
L 663.448807 183.363945 
L 660.596364 183.363945 
z
" style="fill:#2ca02c;opacity:0.5;"/>
   </g>
   <g id="patch_203">
    <path clip-path="url(#p77151b2027)" d="M 663.448807 183.718125 
L 666.30125 183.718125 
L 666.30125 183.408217 
L 663.448807 183.408217 
z
" style="fill:#2ca02c;opacity:0.5;"/>
   </g>
   <g id="patch_204">
    <path clip-path="url(#p77151b2027)" d="M 666.30125 183.718125 
L 669.153693 183.718125 
L 669.153693 183.408217 
L 666.30125 183.408217 
z
" style="fill:#2ca02c;opacity:0.5;"/>
   </g>
   <g id="patch_205">
    <path clip-path="url(#p77151b2027)" d="M 669.153693 183.718125 
L 672.006136 183.718125 
L 672.006136 183.673852 
L 669.153693 183.673852 
z
" style="fill:#2ca02c;opacity:0.5;"/>
   </g>
   <g id="patch_206">
    <path clip-path="url(#p77151b2027)" d="M 672.006136 183.718125 
L 674.85858 183.718125 
L 674.85858 183.62958 
L 672.006136 183.62958 
z
" style="fill:#2ca02c;opacity:0.5;"/>
   </g>
   <g id="patch_207">
    <path clip-path="url(#p77151b2027)" d="M 674.85858 183.718125 
L 677.711023 183.718125 
L 677.711023 183.496762 
L 674.85858 183.496762 
z
" style="fill:#2ca02c;opacity:0.5;"/>
   </g>
   <g id="patch_208">
    <path clip-path="url(#p77151b2027)" d="M 677.711023 183.718125 
L 680.563466 183.718125 
L 680.563466 183.718125 
L 677.711023 183.718125 
z
" style="fill:#2ca02c;opacity:0.5;"/>
   </g>
   <g id="patch_209">
    <path clip-path="url(#p77151b2027)" d="M 680.563466 183.718125 
L 683.415909 183.718125 
L 683.415909 183.673852 
L 680.563466 183.673852 
z
" style="fill:#2ca02c;opacity:0.5;"/>
   </g>
   <g id="matplotlib.axis_3">
    <g id="xtick_7">
     <g id="line2d_16">
      <g>
       <use style="stroke:#000000;stroke-width:0.8;" x="418.903103" xlink:href="#m2f9fb21c1c" y="183.718125"/>
      </g>
     </g>
     <g id="text_17">
      <!-- 10 -->
      <defs>
       <path d="M 10.59375 35.5 
L 73.1875 35.5 
L 73.1875 27.203125 
L 10.59375 27.203125 
z
" id="DejaVuSans-8722"/>
      </defs>
      <g transform="translate(408.350759 198.316562)scale(0.1 -0.1)">
       <use xlink:href="#DejaVuSans-8722"/>
       <use x="83.789062" xlink:href="#DejaVuSans-49"/>
       <use x="147.412109" xlink:href="#DejaVuSans-48"/>
      </g>
     </g>
    </g>
    <g id="xtick_8">
     <g id="line2d_17">
      <g>
       <use style="stroke:#000000;stroke-width:0.8;" x="466.145797" xlink:href="#m2f9fb21c1c" y="183.718125"/>
      </g>
     </g>
     <g id="text_18">
      <!-- 5 -->
      <g transform="translate(458.774703 198.316562)scale(0.1 -0.1)">
       <use xlink:href="#DejaVuSans-8722"/>
       <use x="83.789062" xlink:href="#DejaVuSans-53"/>
      </g>
     </g>
    </g>
    <g id="xtick_9">
     <g id="line2d_18">
      <g>
       <use style="stroke:#000000;stroke-width:0.8;" x="513.388491" xlink:href="#m2f9fb21c1c" y="183.718125"/>
      </g>
     </g>
     <g id="text_19">
      <!-- 0 -->
      <g transform="translate(510.207241 198.316562)scale(0.1 -0.1)">
       <use xlink:href="#DejaVuSans-48"/>
      </g>
     </g>
    </g>
    <g id="xtick_10">
     <g id="line2d_19">
      <g>
       <use style="stroke:#000000;stroke-width:0.8;" x="560.631185" xlink:href="#m2f9fb21c1c" y="183.718125"/>
      </g>
     </g>
     <g id="text_20">
      <!-- 5 -->
      <g transform="translate(557.449935 198.316562)scale(0.1 -0.1)">
       <use xlink:href="#DejaVuSans-53"/>
      </g>
     </g>
    </g>
    <g id="xtick_11">
     <g id="line2d_20">
      <g>
       <use style="stroke:#000000;stroke-width:0.8;" x="607.873879" xlink:href="#m2f9fb21c1c" y="183.718125"/>
      </g>
     </g>
     <g id="text_21">
      <!-- 10 -->
      <g transform="translate(601.511379 198.316562)scale(0.1 -0.1)">
       <use xlink:href="#DejaVuSans-49"/>
       <use x="63.623047" xlink:href="#DejaVuSans-48"/>
      </g>
     </g>
    </g>
    <g id="xtick_12">
     <g id="line2d_21">
      <g>
       <use style="stroke:#000000;stroke-width:0.8;" x="655.116573" xlink:href="#m2f9fb21c1c" y="183.718125"/>
      </g>
     </g>
     <g id="text_22">
      <!-- 15 -->
      <g transform="translate(648.754073 198.316562)scale(0.1 -0.1)">
       <use xlink:href="#DejaVuSans-49"/>
       <use x="63.623047" xlink:href="#DejaVuSans-53"/>
      </g>
     </g>
    </g>
   </g>
   <g id="matplotlib.axis_4">
    <g id="ytick_8">
     <g id="line2d_22">
      <g>
       <use style="stroke:#000000;stroke-width:0.8;" x="383.909375" xlink:href="#m4964b3fa58" y="183.718125"/>
      </g>
     </g>
     <g id="text_23">
      <!-- 0.00 -->
      <g transform="translate(354.64375 187.517344)scale(0.1 -0.1)">
       <use xlink:href="#DejaVuSans-48"/>
       <use x="63.623047" xlink:href="#DejaVuSans-46"/>
       <use x="95.410156" xlink:href="#DejaVuSans-48"/>
       <use x="159.033203" xlink:href="#DejaVuSans-48"/>
      </g>
     </g>
    </g>
    <g id="ytick_9">
     <g id="line2d_23">
      <g>
       <use style="stroke:#000000;stroke-width:0.8;" x="383.909375" xlink:href="#m4964b3fa58" y="156.987023"/>
      </g>
     </g>
     <g id="text_24">
      <!-- 0.02 -->
      <g transform="translate(354.64375 160.786242)scale(0.1 -0.1)">
       <use xlink:href="#DejaVuSans-48"/>
       <use x="63.623047" xlink:href="#DejaVuSans-46"/>
       <use x="95.410156" xlink:href="#DejaVuSans-48"/>
       <use x="159.033203" xlink:href="#DejaVuSans-50"/>
      </g>
     </g>
    </g>
    <g id="ytick_10">
     <g id="line2d_24">
      <g>
       <use style="stroke:#000000;stroke-width:0.8;" x="383.909375" xlink:href="#m4964b3fa58" y="130.255921"/>
      </g>
     </g>
     <g id="text_25">
      <!-- 0.04 -->
      <g transform="translate(354.64375 134.05514)scale(0.1 -0.1)">
       <use xlink:href="#DejaVuSans-48"/>
       <use x="63.623047" xlink:href="#DejaVuSans-46"/>
       <use x="95.410156" xlink:href="#DejaVuSans-48"/>
       <use x="159.033203" xlink:href="#DejaVuSans-52"/>
      </g>
     </g>
    </g>
    <g id="ytick_11">
     <g id="line2d_25">
      <g>
       <use style="stroke:#000000;stroke-width:0.8;" x="383.909375" xlink:href="#m4964b3fa58" y="103.524819"/>
      </g>
     </g>
     <g id="text_26">
      <!-- 0.06 -->
      <g transform="translate(354.64375 107.324038)scale(0.1 -0.1)">
       <use xlink:href="#DejaVuSans-48"/>
       <use x="63.623047" xlink:href="#DejaVuSans-46"/>
       <use x="95.410156" xlink:href="#DejaVuSans-48"/>
       <use x="159.033203" xlink:href="#DejaVuSans-54"/>
      </g>
     </g>
    </g>
    <g id="ytick_12">
     <g id="line2d_26">
      <g>
       <use style="stroke:#000000;stroke-width:0.8;" x="383.909375" xlink:href="#m4964b3fa58" y="76.793717"/>
      </g>
     </g>
     <g id="text_27">
      <!-- 0.08 -->
      <g transform="translate(354.64375 80.592936)scale(0.1 -0.1)">
       <use xlink:href="#DejaVuSans-48"/>
       <use x="63.623047" xlink:href="#DejaVuSans-46"/>
       <use x="95.410156" xlink:href="#DejaVuSans-48"/>
       <use x="159.033203" xlink:href="#DejaVuSans-56"/>
      </g>
     </g>
    </g>
    <g id="ytick_13">
     <g id="line2d_27">
      <g>
       <use style="stroke:#000000;stroke-width:0.8;" x="383.909375" xlink:href="#m4964b3fa58" y="50.062615"/>
      </g>
     </g>
     <g id="text_28">
      <!-- 0.10 -->
      <g transform="translate(354.64375 53.861834)scale(0.1 -0.1)">
       <use xlink:href="#DejaVuSans-48"/>
       <use x="63.623047" xlink:href="#DejaVuSans-46"/>
       <use x="95.410156" xlink:href="#DejaVuSans-49"/>
       <use x="159.033203" xlink:href="#DejaVuSans-48"/>
      </g>
     </g>
    </g>
    <g id="ytick_14">
     <g id="line2d_28">
      <g>
       <use style="stroke:#000000;stroke-width:0.8;" x="383.909375" xlink:href="#m4964b3fa58" y="23.331513"/>
      </g>
     </g>
     <g id="text_29">
      <!-- 0.12 -->
      <g transform="translate(354.64375 27.130732)scale(0.1 -0.1)">
       <use xlink:href="#DejaVuSans-48"/>
       <use x="63.623047" xlink:href="#DejaVuSans-46"/>
       <use x="95.410156" xlink:href="#DejaVuSans-49"/>
       <use x="159.033203" xlink:href="#DejaVuSans-50"/>
      </g>
     </g>
    </g>
   </g>
   <g id="LineCollection_2">
    <path clip-path="url(#p77151b2027)" d="M 513.388491 183.718125 
L 513.388491 86.545853 
" style="fill:none;stroke:#000000;stroke-dasharray:5.55,2.4;stroke-dashoffset:0;stroke-opacity:0.5;stroke-width:1.5;"/>
   </g>
   <g id="LineCollection_3">
    <path clip-path="url(#p77151b2027)" d="M 544.388873 183.718125 
L 544.388873 33.966278 
" style="fill:none;stroke:#000000;stroke-dasharray:5.55,2.4;stroke-dashoffset:0;stroke-opacity:0.5;stroke-width:1.5;"/>
   </g>
   <g id="line2d_29">
    <path clip-path="url(#p77151b2027)" d="M 398.171591 183.703155 
L 401.052847 183.707637 
L 403.934102 183.71347 
L 406.815358 183.710744 
L 409.696614 183.693639 
L 412.57787 183.651918 
L 415.459125 183.581589 
L 418.340381 183.516885 
L 421.221637 183.486281 
L 424.102893 183.461312 
L 426.984148 183.391354 
L 429.865404 183.257687 
L 432.74666 183.077779 
L 435.627916 182.836578 
L 438.509171 182.51183 
L 441.390427 182.104679 
L 444.271683 181.659591 
L 447.152938 181.206712 
L 450.034194 180.645555 
L 452.91545 179.868241 
L 455.796706 178.866688 
L 458.677961 177.572142 
L 461.559217 175.876962 
L 464.440473 173.979813 
L 467.321729 172.142496 
L 470.202984 170.357224 
L 473.08424 168.246377 
L 475.965496 165.245404 
L 478.846752 161.354902 
L 481.728007 157.121319 
L 484.609263 152.751989 
L 487.490519 148.012333 
L 490.371775 142.72344 
L 493.25303 136.594282 
L 496.134286 129.891297 
L 499.015542 123.091079 
L 501.896798 115.872301 
L 504.778053 108.418897 
L 507.659309 101.243052 
L 510.540565 94.030519 
L 513.42182 86.456145 
L 516.303076 78.481097 
L 519.184332 70.263255 
L 522.065588 62.915978 
L 524.946843 56.788579 
L 527.828099 51.212302 
L 530.709355 46.436079 
L 533.590611 42.298831 
L 536.471866 38.398021 
L 539.353122 35.682539 
L 542.234378 34.35218 
L 545.115634 33.973855 
L 547.996889 34.906665 
L 550.878145 37.319408 
L 553.759401 40.767063 
L 556.640657 44.877457 
L 559.521912 49.831122 
L 562.403168 55.703724 
L 565.284424 61.687455 
L 568.16568 67.390609 
L 571.046935 73.922943 
L 573.928191 81.692462 
L 576.809447 89.891746 
L 579.690702 97.939452 
L 582.571958 105.4151 
L 585.453214 112.399373 
L 588.33447 119.146738 
L 591.215725 125.848241 
L 594.096981 132.874816 
L 596.978237 139.711803 
L 599.859493 145.243981 
L 602.740748 149.923977 
L 605.622004 154.527193 
L 608.50326 158.81898 
L 611.384516 162.697765 
L 614.265771 166.207695 
L 617.147027 169.177186 
L 620.028283 171.541468 
L 622.909539 173.535782 
L 625.790794 175.426064 
L 628.67205 177.114768 
L 631.553306 178.420932 
L 634.434562 179.450787 
L 637.315817 180.268781 
L 640.197073 180.883544 
L 643.078329 181.426673 
L 645.959584 181.987687 
L 648.84084 182.499192 
L 651.722096 182.879105 
L 654.603352 183.100091 
L 657.484607 183.20233 
L 660.365863 183.274521 
L 663.247119 183.357063 
L 666.128375 183.440769 
L 669.00963 183.524593 
L 671.890886 183.579275 
L 674.772142 183.595072 
L 677.653398 183.625226 
L 680.534653 183.670236 
L 683.415909 183.69511 
" style="fill:none;stroke:#2ca02c;stroke-linecap:square;stroke-width:1.5;"/>
   </g>
   <g id="patch_210">
    <path d="M 383.909375 183.718125 
L 383.909375 22.318125 
" style="fill:none;stroke:#000000;stroke-linecap:square;stroke-linejoin:miter;stroke-width:0.8;"/>
   </g>
   <g id="patch_211">
    <path d="M 697.678125 183.718125 
L 697.678125 22.318125 
" style="fill:none;stroke:#000000;stroke-linecap:square;stroke-linejoin:miter;stroke-width:0.8;"/>
   </g>
   <g id="patch_212">
    <path d="M 383.909375 183.718125 
L 697.678125 183.718125 
" style="fill:none;stroke:#000000;stroke-linecap:square;stroke-linejoin:miter;stroke-width:0.8;"/>
   </g>
   <g id="patch_213">
    <path d="M 383.909375 22.318125 
L 697.678125 22.318125 
" style="fill:none;stroke:#000000;stroke-linecap:square;stroke-linejoin:miter;stroke-width:0.8;"/>
   </g>
   <g id="text_30">
    <!-- Limit-state P(g&lt;0)=0.17795324587799488 -->
    <defs>
     <path d="M 9.8125 72.90625 
L 19.671875 72.90625 
L 19.671875 8.296875 
L 55.171875 8.296875 
L 55.171875 0 
L 9.8125 0 
z
" id="DejaVuSans-76"/>
     <path d="M 9.421875 54.6875 
L 18.40625 54.6875 
L 18.40625 0 
L 9.421875 0 
z
M 9.421875 75.984375 
L 18.40625 75.984375 
L 18.40625 64.59375 
L 9.421875 64.59375 
z
" id="DejaVuSans-105"/>
     <path d="M 52 44.1875 
Q 55.375 50.25 60.0625 53.125 
Q 64.75 56 71.09375 56 
Q 79.640625 56 84.28125 50.015625 
Q 88.921875 44.046875 88.921875 33.015625 
L 88.921875 0 
L 79.890625 0 
L 79.890625 32.71875 
Q 79.890625 40.578125 77.09375 44.375 
Q 74.3125 48.1875 68.609375 48.1875 
Q 61.625 48.1875 57.5625 43.546875 
Q 53.515625 38.921875 53.515625 30.90625 
L 53.515625 0 
L 44.484375 0 
L 44.484375 32.71875 
Q 44.484375 40.625 41.703125 44.40625 
Q 38.921875 48.1875 33.109375 48.1875 
Q 26.21875 48.1875 22.15625 43.53125 
Q 18.109375 38.875 18.109375 30.90625 
L 18.109375 0 
L 9.078125 0 
L 9.078125 54.6875 
L 18.109375 54.6875 
L 18.109375 46.1875 
Q 21.1875 51.21875 25.484375 53.609375 
Q 29.78125 56 35.6875 56 
Q 41.65625 56 45.828125 52.96875 
Q 50 49.953125 52 44.1875 
z
" id="DejaVuSans-109"/>
     <path d="M 18.3125 70.21875 
L 18.3125 54.6875 
L 36.8125 54.6875 
L 36.8125 47.703125 
L 18.3125 47.703125 
L 18.3125 18.015625 
Q 18.3125 11.328125 20.140625 9.421875 
Q 21.96875 7.515625 27.59375 7.515625 
L 36.8125 7.515625 
L 36.8125 0 
L 27.59375 0 
Q 17.1875 0 13.234375 3.875 
Q 9.28125 7.765625 9.28125 18.015625 
L 9.28125 47.703125 
L 2.6875 47.703125 
L 2.6875 54.6875 
L 9.28125 54.6875 
L 9.28125 70.21875 
z
" id="DejaVuSans-116"/>
     <path d="M 4.890625 31.390625 
L 31.203125 31.390625 
L 31.203125 23.390625 
L 4.890625 23.390625 
z
" id="DejaVuSans-45"/>
     <path d="M 44.28125 53.078125 
L 44.28125 44.578125 
Q 40.484375 46.53125 36.375 47.5 
Q 32.28125 48.484375 27.875 48.484375 
Q 21.1875 48.484375 17.84375 46.4375 
Q 14.5 44.390625 14.5 40.28125 
Q 14.5 37.15625 16.890625 35.375 
Q 19.28125 33.59375 26.515625 31.984375 
L 29.59375 31.296875 
Q 39.15625 29.25 43.1875 25.515625 
Q 47.21875 21.78125 47.21875 15.09375 
Q 47.21875 7.46875 41.1875 3.015625 
Q 35.15625 -1.421875 24.609375 -1.421875 
Q 20.21875 -1.421875 15.453125 -0.5625 
Q 10.6875 0.296875 5.421875 2 
L 5.421875 11.28125 
Q 10.40625 8.6875 15.234375 7.390625 
Q 20.0625 6.109375 24.8125 6.109375 
Q 31.15625 6.109375 34.5625 8.28125 
Q 37.984375 10.453125 37.984375 14.40625 
Q 37.984375 18.0625 35.515625 20.015625 
Q 33.0625 21.96875 24.703125 23.78125 
L 21.578125 24.515625 
Q 13.234375 26.265625 9.515625 29.90625 
Q 5.8125 33.546875 5.8125 39.890625 
Q 5.8125 47.609375 11.28125 51.796875 
Q 16.75 56 26.8125 56 
Q 31.78125 56 36.171875 55.265625 
Q 40.578125 54.546875 44.28125 53.078125 
z
" id="DejaVuSans-115"/>
     <path d="M 34.28125 27.484375 
Q 23.390625 27.484375 19.1875 25 
Q 14.984375 22.515625 14.984375 16.5 
Q 14.984375 11.71875 18.140625 8.90625 
Q 21.296875 6.109375 26.703125 6.109375 
Q 34.1875 6.109375 38.703125 11.40625 
Q 43.21875 16.703125 43.21875 25.484375 
L 43.21875 27.484375 
z
M 52.203125 31.203125 
L 52.203125 0 
L 43.21875 0 
L 43.21875 8.296875 
Q 40.140625 3.328125 35.546875 0.953125 
Q 30.953125 -1.421875 24.3125 -1.421875 
Q 15.921875 -1.421875 10.953125 3.296875 
Q 6 8.015625 6 15.921875 
Q 6 25.140625 12.171875 29.828125 
Q 18.359375 34.515625 30.609375 34.515625 
L 43.21875 34.515625 
L 43.21875 35.40625 
Q 43.21875 41.609375 39.140625 45 
Q 35.0625 48.390625 27.6875 48.390625 
Q 23 48.390625 18.546875 47.265625 
Q 14.109375 46.140625 10.015625 43.890625 
L 10.015625 52.203125 
Q 14.9375 54.109375 19.578125 55.046875 
Q 24.21875 56 28.609375 56 
Q 40.484375 56 46.34375 49.84375 
Q 52.203125 43.703125 52.203125 31.203125 
z
" id="DejaVuSans-97"/>
     <path d="M 56.203125 29.59375 
L 56.203125 25.203125 
L 14.890625 25.203125 
Q 15.484375 15.921875 20.484375 11.0625 
Q 25.484375 6.203125 34.421875 6.203125 
Q 39.59375 6.203125 44.453125 7.46875 
Q 49.3125 8.734375 54.109375 11.28125 
L 54.109375 2.78125 
Q 49.265625 0.734375 44.1875 -0.34375 
Q 39.109375 -1.421875 33.890625 -1.421875 
Q 20.796875 -1.421875 13.15625 6.1875 
Q 5.515625 13.8125 5.515625 26.8125 
Q 5.515625 40.234375 12.765625 48.109375 
Q 20.015625 56 32.328125 56 
Q 43.359375 56 49.78125 48.890625 
Q 56.203125 41.796875 56.203125 29.59375 
z
M 47.21875 32.234375 
Q 47.125 39.59375 43.09375 43.984375 
Q 39.0625 48.390625 32.421875 48.390625 
Q 24.90625 48.390625 20.390625 44.140625 
Q 15.875 39.890625 15.1875 32.171875 
z
" id="DejaVuSans-101"/>
     <path d="M 19.671875 64.796875 
L 19.671875 37.40625 
L 32.078125 37.40625 
Q 38.96875 37.40625 42.71875 40.96875 
Q 46.484375 44.53125 46.484375 51.125 
Q 46.484375 57.671875 42.71875 61.234375 
Q 38.96875 64.796875 32.078125 64.796875 
z
M 9.8125 72.90625 
L 32.078125 72.90625 
Q 44.34375 72.90625 50.609375 67.359375 
Q 56.890625 61.8125 56.890625 51.125 
Q 56.890625 40.328125 50.609375 34.8125 
Q 44.34375 29.296875 32.078125 29.296875 
L 19.671875 29.296875 
L 19.671875 0 
L 9.8125 0 
z
" id="DejaVuSans-80"/>
     <path d="M 31 75.875 
Q 24.46875 64.65625 21.28125 53.65625 
Q 18.109375 42.671875 18.109375 31.390625 
Q 18.109375 20.125 21.3125 9.0625 
Q 24.515625 -2 31 -13.1875 
L 23.1875 -13.1875 
Q 15.875 -1.703125 12.234375 9.375 
Q 8.59375 20.453125 8.59375 31.390625 
Q 8.59375 42.28125 12.203125 53.3125 
Q 15.828125 64.359375 23.1875 75.875 
z
" id="DejaVuSans-40"/>
     <path d="M 45.40625 27.984375 
Q 45.40625 37.75 41.375 43.109375 
Q 37.359375 48.484375 30.078125 48.484375 
Q 22.859375 48.484375 18.828125 43.109375 
Q 14.796875 37.75 14.796875 27.984375 
Q 14.796875 18.265625 18.828125 12.890625 
Q 22.859375 7.515625 30.078125 7.515625 
Q 37.359375 7.515625 41.375 12.890625 
Q 45.40625 18.265625 45.40625 27.984375 
z
M 54.390625 6.78125 
Q 54.390625 -7.171875 48.1875 -13.984375 
Q 42 -20.796875 29.203125 -20.796875 
Q 24.46875 -20.796875 20.265625 -20.09375 
Q 16.0625 -19.390625 12.109375 -17.921875 
L 12.109375 -9.1875 
Q 16.0625 -11.328125 19.921875 -12.34375 
Q 23.78125 -13.375 27.78125 -13.375 
Q 36.625 -13.375 41.015625 -8.765625 
Q 45.40625 -4.15625 45.40625 5.171875 
L 45.40625 9.625 
Q 42.625 4.78125 38.28125 2.390625 
Q 33.9375 0 27.875 0 
Q 17.828125 0 11.671875 7.65625 
Q 5.515625 15.328125 5.515625 27.984375 
Q 5.515625 40.671875 11.671875 48.328125 
Q 17.828125 56 27.875 56 
Q 33.9375 56 38.28125 53.609375 
Q 42.625 51.21875 45.40625 46.390625 
L 45.40625 54.6875 
L 54.390625 54.6875 
z
" id="DejaVuSans-103"/>
     <path d="M 73.1875 49.21875 
L 22.796875 31.296875 
L 73.1875 13.484375 
L 73.1875 4.59375 
L 10.59375 27.296875 
L 10.59375 35.40625 
L 73.1875 58.109375 
z
" id="DejaVuSans-60"/>
     <path d="M 8.015625 75.875 
L 15.828125 75.875 
Q 23.140625 64.359375 26.78125 53.3125 
Q 30.421875 42.28125 30.421875 31.390625 
Q 30.421875 20.453125 26.78125 9.375 
Q 23.140625 -1.703125 15.828125 -13.1875 
L 8.015625 -13.1875 
Q 14.5 -2 17.703125 9.0625 
Q 20.90625 20.125 20.90625 31.390625 
Q 20.90625 42.671875 17.703125 53.65625 
Q 14.5 64.65625 8.015625 75.875 
z
" id="DejaVuSans-41"/>
     <path d="M 10.59375 45.40625 
L 73.1875 45.40625 
L 73.1875 37.203125 
L 10.59375 37.203125 
z
M 10.59375 25.484375 
L 73.1875 25.484375 
L 73.1875 17.1875 
L 10.59375 17.1875 
z
" id="DejaVuSans-61"/>
     <path d="M 8.203125 72.90625 
L 55.078125 72.90625 
L 55.078125 68.703125 
L 28.609375 0 
L 18.3125 0 
L 43.21875 64.59375 
L 8.203125 64.59375 
z
" id="DejaVuSans-55"/>
     <path d="M 10.984375 1.515625 
L 10.984375 10.5 
Q 14.703125 8.734375 18.5 7.8125 
Q 22.3125 6.890625 25.984375 6.890625 
Q 35.75 6.890625 40.890625 13.453125 
Q 46.046875 20.015625 46.78125 33.40625 
Q 43.953125 29.203125 39.59375 26.953125 
Q 35.25 24.703125 29.984375 24.703125 
Q 19.046875 24.703125 12.671875 31.3125 
Q 6.296875 37.9375 6.296875 49.421875 
Q 6.296875 60.640625 12.9375 67.421875 
Q 19.578125 74.21875 30.609375 74.21875 
Q 43.265625 74.21875 49.921875 64.515625 
Q 56.59375 54.828125 56.59375 36.375 
Q 56.59375 19.140625 48.40625 8.859375 
Q 40.234375 -1.421875 26.421875 -1.421875 
Q 22.703125 -1.421875 18.890625 -0.6875 
Q 15.09375 0.046875 10.984375 1.515625 
z
M 30.609375 32.421875 
Q 37.25 32.421875 41.125 36.953125 
Q 45.015625 41.5 45.015625 49.421875 
Q 45.015625 57.28125 41.125 61.84375 
Q 37.25 66.40625 30.609375 66.40625 
Q 23.96875 66.40625 20.09375 61.84375 
Q 16.21875 57.28125 16.21875 49.421875 
Q 16.21875 41.5 20.09375 36.953125 
Q 23.96875 32.421875 30.609375 32.421875 
z
" id="DejaVuSans-57"/>
     <path d="M 40.578125 39.3125 
Q 47.65625 37.796875 51.625 33 
Q 55.609375 28.21875 55.609375 21.1875 
Q 55.609375 10.40625 48.1875 4.484375 
Q 40.765625 -1.421875 27.09375 -1.421875 
Q 22.515625 -1.421875 17.65625 -0.515625 
Q 12.796875 0.390625 7.625 2.203125 
L 7.625 11.71875 
Q 11.71875 9.328125 16.59375 8.109375 
Q 21.484375 6.890625 26.8125 6.890625 
Q 36.078125 6.890625 40.9375 10.546875 
Q 45.796875 14.203125 45.796875 21.1875 
Q 45.796875 27.640625 41.28125 31.265625 
Q 36.765625 34.90625 28.71875 34.90625 
L 20.21875 34.90625 
L 20.21875 43.015625 
L 29.109375 43.015625 
Q 36.375 43.015625 40.234375 45.921875 
Q 44.09375 48.828125 44.09375 54.296875 
Q 44.09375 59.90625 40.109375 62.90625 
Q 36.140625 65.921875 28.71875 65.921875 
Q 24.65625 65.921875 20.015625 65.03125 
Q 15.375 64.15625 9.8125 62.3125 
L 9.8125 71.09375 
Q 15.4375 72.65625 20.34375 73.4375 
Q 25.25 74.21875 29.59375 74.21875 
Q 40.828125 74.21875 47.359375 69.109375 
Q 53.90625 64.015625 53.90625 55.328125 
Q 53.90625 49.265625 50.4375 45.09375 
Q 46.96875 40.921875 40.578125 39.3125 
z
" id="DejaVuSans-51"/>
    </defs>
    <g transform="translate(410.04625 16.318125)scale(0.12 -0.12)">
     <use xlink:href="#DejaVuSans-76"/>
     <use x="55.712891" xlink:href="#DejaVuSans-105"/>
     <use x="83.496094" xlink:href="#DejaVuSans-109"/>
     <use x="180.908203" xlink:href="#DejaVuSans-105"/>
     <use x="208.691406" xlink:href="#DejaVuSans-116"/>
     <use x="247.900391" xlink:href="#DejaVuSans-45"/>
     <use x="283.984375" xlink:href="#DejaVuSans-115"/>
     <use x="336.083984" xlink:href="#DejaVuSans-116"/>
     <use x="375.292969" xlink:href="#DejaVuSans-97"/>
     <use x="436.572266" xlink:href="#DejaVuSans-116"/>
     <use x="475.78125" xlink:href="#DejaVuSans-101"/>
     <use x="537.304688" xlink:href="#DejaVuSans-32"/>
     <use x="569.091797" xlink:href="#DejaVuSans-80"/>
     <use x="629.394531" xlink:href="#DejaVuSans-40"/>
     <use x="668.408203" xlink:href="#DejaVuSans-103"/>
     <use x="731.884766" xlink:href="#DejaVuSans-60"/>
     <use x="815.673828" xlink:href="#DejaVuSans-48"/>
     <use x="879.296875" xlink:href="#DejaVuSans-41"/>
     <use x="918.310547" xlink:href="#DejaVuSans-61"/>
     <use x="1002.099609" xlink:href="#DejaVuSans-48"/>
     <use x="1065.722656" xlink:href="#DejaVuSans-46"/>
     <use x="1097.509766" xlink:href="#DejaVuSans-49"/>
     <use x="1161.132812" xlink:href="#DejaVuSans-55"/>
     <use x="1224.755859" xlink:href="#DejaVuSans-55"/>
     <use x="1288.378906" xlink:href="#DejaVuSans-57"/>
     <use x="1352.001953" xlink:href="#DejaVuSans-53"/>
     <use x="1415.625" xlink:href="#DejaVuSans-51"/>
     <use x="1479.248047" xlink:href="#DejaVuSans-50"/>
     <use x="1542.871094" xlink:href="#DejaVuSans-52"/>
     <use x="1606.494141" xlink:href="#DejaVuSans-53"/>
     <use x="1670.117188" xlink:href="#DejaVuSans-56"/>
     <use x="1733.740234" xlink:href="#DejaVuSans-55"/>
     <use x="1797.363281" xlink:href="#DejaVuSans-55"/>
     <use x="1860.986328" xlink:href="#DejaVuSans-57"/>
     <use x="1924.609375" xlink:href="#DejaVuSans-57"/>
     <use x="1988.232422" xlink:href="#DejaVuSans-52"/>
     <use x="2051.855469" xlink:href="#DejaVuSans-56"/>
     <use x="2115.478516" xlink:href="#DejaVuSans-56"/>
    </g>
   </g>
   <g id="legend_2">
    <g id="patch_214">
     <path d="M 627.051563 44.99625 
L 690.678125 44.99625 
Q 692.678125 44.99625 692.678125 42.99625 
L 692.678125 29.318125 
Q 692.678125 27.318125 690.678125 27.318125 
L 627.051563 27.318125 
Q 625.051563 27.318125 625.051563 29.318125 
L 625.051563 42.99625 
Q 625.051563 44.99625 627.051563 44.99625 
z
" style="fill:#ffffff;opacity:0.8;stroke:#cccccc;stroke-linejoin:miter;"/>
    </g>
    <g id="patch_215">
     <path d="M 629.051563 38.916562 
L 649.051563 38.916562 
L 649.051563 31.916562 
L 629.051563 31.916562 
z
" style="fill:#2ca02c;opacity:0.5;"/>
    </g>
    <g id="text_31">
     <!-- g=R-S -->
     <g transform="translate(657.051563 38.916562)scale(0.1 -0.1)">
      <use xlink:href="#DejaVuSans-103"/>
      <use x="63.476562" xlink:href="#DejaVuSans-61"/>
      <use x="147.265625" xlink:href="#DejaVuSans-82"/>
      <use x="216.685547" xlink:href="#DejaVuSans-45"/>
      <use x="252.769531" xlink:href="#DejaVuSans-83"/>
     </g>
    </g>
   </g>
  </g>
 </g>
 <defs>
  <clipPath id="pd1ed94c87a">
   <rect height="161.4" width="313.76875" x="36.465625" y="22.318125"/>
  </clipPath>
  <clipPath id="p77151b2027">
   <rect height="161.4" width="313.76875" x="383.909375" y="22.318125"/>
  </clipPath>
 </defs>
</svg>
